<svg xmlns="http://www.w3.org/2000/svg" xmlns:xlink="http://www.w3.org/1999/xlink" viewBox="-1119 5490.925 78.38 78.415"><defs><style>.a{fill:url(#a);}</style><linearGradient id="a" y1="1.058" x2="0.856" gradientUnits="objectBoundingBox"><stop offset="0" stop-color="#5253fb"/><stop offset="1" stop-color="#7745ff"/></linearGradient></defs><g transform="translate(-1119.104 5490.925)"><g transform="translate(0.104 0)"><g transform="translate(0)"><path class="a" d="M78.31,76.43l-22.045-33.6V26.175h1.306a3.918,3.918,0,0,0,0-7.836H56.265V11.352L67.248,6.468a1.306,1.306,0,0,0-.118-2.429L55.377.121a1.317,1.317,0,0,0-1.724,1.241V18.339H51.041V14.421A3.918,3.918,0,0,0,47.123,10.5H43.779a5.108,5.108,0,0,0,.731-2.612V3.974A3.918,3.918,0,0,0,40.593.056h-6.53A1.306,1.306,0,0,0,32.9,1.949l1.162,2.338v3.6a5.108,5.108,0,0,0,.731,2.612H30.145V4.117A4.035,4.035,0,0,0,26.88.056a3.918,3.918,0,0,0-4.571,3.918v9.142a5.224,5.224,0,0,0,5.224,5.224h5.224V41.847H31.451a1.306,1.306,0,0,0-1.045.522L22.962,52.3H18.391a1.306,1.306,0,0,0-1.058.535L.356,76.338a1.306,1.306,0,0,0,1.058,2.077H77.16A1.332,1.332,0,0,0,78.31,76.43ZM56.265,3.177l6.843,2.272L56.265,8.492Zm0,17.774h1.306a1.306,1.306,0,0,1,0,2.612H56.265ZM40.593,2.668A1.306,1.306,0,0,1,41.9,3.974V7.892a2.612,2.612,0,1,1-5.224,0V3.974a1.308,1.308,0,0,0-.144-.588l-.353-.718h4.414Zm-13.06,13.06a2.612,2.612,0,0,1-2.612-2.612V3.974a1.335,1.335,0,0,1,1.541-1.306,1.423,1.423,0,0,1,1.071,1.45V11.81a1.306,1.306,0,0,0,1.306,1.306H47.123a1.306,1.306,0,0,1,1.306,1.306v5.224a1.306,1.306,0,0,0,1.306,1.306h3.918v2.612H48.429a2.612,2.612,0,0,1-2.612-2.612V15.727H43.2v7.836H35.369v-6.53a1.306,1.306,0,0,0-1.306-1.306Zm26.12,10.448V38.843l-.209-.326a1.306,1.306,0,0,0-1.1-.588H49.735a1.306,1.306,0,0,0-1.306.888l-.966,2.9-1.646-1.711V25.47a5.224,5.224,0,0,0,2.612.705ZM37.981,28.787V40.541a1.307,1.307,0,0,0,.379.927l.392.379H35.369V26.175H43.2V40.541a1.307,1.307,0,0,0,.379.927l.392.379H42.434l-1.841-1.841V28.787ZM4.025,75.8l8.489-11.754H20.35L25.2,71.3l2.168-1.437-5.224-7.836A1.306,1.306,0,0,0,21,61.437H14.343l4.715-6.53H32L36.845,63.4a1.306,1.306,0,0,0,1.136.653h7.065L51.459,75.8Zm50.45,0L50.2,67.967h5.407l3.526,4.7,2.09-1.567-3.918-5.224a1.306,1.306,0,0,0-1.045-.522H48.729l-1.763-3.239a1.306,1.306,0,0,0-1.149-.679H38.738l-4.845-8.489a1.306,1.306,0,0,0-1.136-.653h-6.53L32.1,44.459H48.429a1.306,1.306,0,0,0,1.306-.888l.94-3.03h.966L74.744,75.8Z" transform="translate(-0.104 0)"/></g></g><g transform="translate(0.107 17.033)"><g transform="translate(0)"><path class="a" d="M14.489,105.646a6.3,6.3,0,0,0-1.841.274,7.718,7.718,0,0,0-4.688-1.58,7.836,7.836,0,0,0-7.836,7.836v1.306h20.9v-1.306A6.53,6.53,0,0,0,14.489,105.646ZM2.9,110.87a5.194,5.194,0,0,1,8.593-2.507l.627.575.784-.34a3.918,3.918,0,0,1,5.142,2.064c.029.069.057.138.082.208Z" transform="translate(-0.123 -104.34)"/></g></g><g transform="translate(58.877 27.481)"><path class="a" d="M373.183,169.646a6.369,6.369,0,0,0-.849.065,7.639,7.639,0,0,0-4.375-1.371,7.836,7.836,0,0,0-7.836,7.836v1.306h19.59v-1.306A6.53,6.53,0,0,0,373.183,169.646ZM362.9,174.87a5.224,5.224,0,0,1,8.293-2.756l.5.392.614-.144a4.312,4.312,0,0,1,.875-.1,3.918,3.918,0,0,1,3.7,2.612Z" transform="translate(-360.123 -168.34)"/></g><g transform="translate(11.861 32.705)"><path class="a" d="M78.653,200.34a6.53,6.53,0,0,0-6.53,6.53v1.306h13.06V206.87A6.53,6.53,0,0,0,78.653,200.34Zm-3.7,5.224a3.918,3.918,0,0,1,7.392,0Z" transform="translate(-72.123 -200.34)"/></g></g></svg>