<svg xmlns="http://www.w3.org/2000/svg" xmlns:xlink="http://www.w3.org/1999/xlink" viewBox="-821 5499.147 72.868 72.853"><defs><style>.a{fill:url(#a);}</style><linearGradient id="a" x1="0.192" y1="0.87" x2="0.734" y2="-0.07" gradientUnits="objectBoundingBox"><stop offset="0" stop-color="#5253fb"/><stop offset="1" stop-color="#7745ff"/></linearGradient></defs><path class="a" d="M72.853,22.326A3.536,3.536,0,0,0,69.328,18.8a3.6,3.6,0,0,0-1.146.206l-5.258-6.58a3.5,3.5,0,0,0,.543-1.851,3.521,3.521,0,0,0-6.052-2.453L48.148,3.848a2.2,2.2,0,0,0,.029-.323,3.514,3.514,0,0,0-6.83-1.175H28a3.523,3.523,0,0,0-6.845,1.175,4.186,4.186,0,0,0,.044.426L15.364,6.859a3.512,3.512,0,0,0-5.42,4.392l-5.258,6.58a3.363,3.363,0,0,0-1.146-.206,3.514,3.514,0,0,0-1.175,6.83v7.491A3.511,3.511,0,1,0,6.566,37l6.419,1.16a3.522,3.522,0,0,0,3.466,2.967c.044,0,.088-.015.132-.015l2.247,5.611a3.513,3.513,0,1,0,5.185,4.671l10.091,2.879a3.5,3.5,0,0,0,2.321,3.085v8.666a3.525,3.525,0,1,0,2.35,0V57.357a3.489,3.489,0,0,0,.984-6.066l1.41-4.215,10.546,3.51a3.527,3.527,0,0,0,2.35,3.246V66.023a3.525,3.525,0,1,0,2.35,0V53.847a3.513,3.513,0,0,0,2.35-3.3,3.4,3.4,0,0,0-.235-1.219l9.019-7.52a3.514,3.514,0,1,0,2.967-6.331V25.631A3.52,3.52,0,0,0,72.853,22.326ZM59.927,9.4a1.175,1.175,0,1,1-1.175,1.175A1.179,1.179,0,0,1,59.927,9.4Zm-1.674,4.26a3.388,3.388,0,0,0,1.674.441,3.6,3.6,0,0,0,1.146-.206l5.258,6.58a3.5,3.5,0,0,0-.543,1.851,3.6,3.6,0,0,0,.059.558l-8.328,4.539L51.452,22.37a3.4,3.4,0,0,0,.235-1.219,3.752,3.752,0,0,0-.264-1.351ZM43.477,32.9a3.472,3.472,0,0,0-1.513.353l-4.979-4.979,8.783-4.553a3.473,3.473,0,0,0,4.186.455L55.3,28.642l-9.5,5.185A3.366,3.366,0,0,0,43.477,32.9Zm1.175,3.525a1.175,1.175,0,1,1-1.175-1.175A1.179,1.179,0,0,1,44.652,36.426ZM26.879,23.486l1.968,6.36-10,5.185a3.5,3.5,0,0,0-1.5-.823l-1.63-12.485,8.049-.4A3.56,3.56,0,0,0,26.879,23.486Zm-1.028-3.51a1.175,1.175,0,1,1,1.175,1.175A1.179,1.179,0,0,1,25.851,19.976Zm3.716,12.147,2.982,9.606L19.976,37.543a3.528,3.528,0,0,0-.044-.411Zm-.015-7.946,3.5,3.5-2.086,1.072Zm.646-2.688a3.472,3.472,0,0,0,.353-1.513,3.513,3.513,0,0,0-.294-1.41l5.581-5.2,8.989,6.742a3.528,3.528,0,0,0-.176,1.043c0,.162.029.323.044.485l-9.444,4.891ZM47,21.151a1.175,1.175,0,1,1,1.175,1.175A1.179,1.179,0,0,1,47,21.151Zm10.252,9.092,8.416,7.021L47.428,35.6ZM44.652,2.35a1.175,1.175,0,1,1-1.175,1.175A1.179,1.179,0,0,1,44.652,2.35ZM43.036,6.639a3.463,3.463,0,0,0,4.142-.661l9.268,4.274a2.2,2.2,0,0,0-.029.323,3.691,3.691,0,0,0,.264,1.351l-6.83,6.14a3.388,3.388,0,0,0-1.674-.441,3.557,3.557,0,0,0-1.954.588l-8.651-6.492ZM41.347,4.7c.029.073.044.162.073.235l-5.758,5.376L28.2,4.7ZM24.676,2.35A1.175,1.175,0,1,1,23.5,3.525,1.179,1.179,0,0,1,24.676,2.35ZM16.451,9.4a4.187,4.187,0,0,0-.044-.426l5.831-2.908a3.48,3.48,0,0,0,2.438.984,3.557,3.557,0,0,0,1.954-.588l7.3,5.464-5.288,4.935a3.475,3.475,0,0,0-4.979,2.1l-8.255.411-.9-6.845A3.522,3.522,0,0,0,16.451,9.4ZM12.926,8.225A1.175,1.175,0,1,1,11.75,9.4,1.179,1.179,0,0,1,12.926,8.225ZM11.78,12.72a3.369,3.369,0,0,0,.411.132l.867,6.654-6.272.308a5.635,5.635,0,0,0-.264-.514ZM3.525,19.976A1.175,1.175,0,1,1,2.35,21.151,1.179,1.179,0,0,1,3.525,19.976Zm0,16.451A1.175,1.175,0,1,1,4.7,35.251,1.179,1.179,0,0,1,3.525,36.426Zm9.885-.573-6.419-1.16A3.521,3.521,0,0,0,4.7,31.947V24.456A3.565,3.565,0,0,0,6.889,22.15l6.477-.323,1.645,12.558A3.613,3.613,0,0,0,13.41,35.854Zm3.04,2.923A1.175,1.175,0,1,1,17.626,37.6,1.179,1.179,0,0,1,16.451,38.777Zm4.7,11.75a1.175,1.175,0,1,1,1.175-1.175A1.179,1.179,0,0,1,21.151,50.527Zm13.586,1.483L24.647,49.132a3.518,3.518,0,0,0-3.5-3.3c-.044,0-.088.015-.132.015l-2.247-5.611a4.4,4.4,0,0,0,.441-.47L33.4,44.49l2.1,6.757A3.425,3.425,0,0,0,34.737,52.011ZM37.6,70.5a1.175,1.175,0,1,1,1.175-1.175A1.179,1.179,0,0,1,37.6,70.5Zm0-15.276a1.175,1.175,0,1,1,1.175-1.175A1.179,1.179,0,0,1,37.6,55.227Zm.044-5.009-1.5-4.818,2.791.925Zm2.027-6.11L35.281,42.64l-3.6-11.618L34.8,29.406,40.3,34.914a3.458,3.458,0,0,0,1.013,4.274ZM55.227,70.5A1.175,1.175,0,1,1,56.4,69.328,1.179,1.179,0,0,1,55.227,70.5Zm0-18.8A1.175,1.175,0,1,1,56.4,50.527,1.179,1.179,0,0,1,55.227,51.7Zm1.792-4.2a3.471,3.471,0,0,0-4.553.867L41.905,44.843l1.63-4.906A3.522,3.522,0,0,0,46.664,37.9L65.92,39.643a3.187,3.187,0,0,0,.1.353Zm2.453-18.463,7.506-4.1a3.339,3.339,0,0,0,1.16.69v9.841a2.979,2.979,0,0,0-.617.294Zm9.856,10.913A1.175,1.175,0,1,1,70.5,38.777,1.179,1.179,0,0,1,69.328,39.952Zm0-16.451A1.175,1.175,0,1,1,70.5,22.326,1.179,1.179,0,0,1,69.328,23.5ZM2.35,0H4.7V2.35H2.35Zm0,4.7H4.7V7.05H2.35ZM4.7,2.35H7.05V4.7H4.7ZM0,2.35H2.35V4.7H0Zm61.1,51.7h2.35V56.4H61.1Zm0,4.7h2.35V61.1H61.1Zm2.35-2.35H65.8v2.35h-2.35Zm-4.7,0H61.1v2.35h-2.35Zm9.4-51.7H70.5V7.05h-2.35Zm0,4.7H70.5v2.35h-2.35ZM70.5,7.05h2.35V9.4H70.5Zm-4.7,0h2.35V9.4H65.8ZM14.1,56.4h2.35v2.35H14.1Zm0,4.7h2.35v2.35H14.1Zm2.35-2.35H18.8V61.1h-2.35Zm-4.7,0H14.1V61.1H11.75ZM7.05,43.477H9.4v2.35H7.05Zm0,4.7H9.4v2.35H7.05Zm2.35-2.35h2.35v2.35H9.4Zm-4.7,0H7.05v2.35H4.7Z" transform="translate(-821 5499.147)"/></svg>