<svg xmlns="http://www.w3.org/2000/svg" xmlns:xlink="http://www.w3.org/1999/xlink" viewBox="542 5677.617 87.557 64.283"><defs><style>.a{fill:url(#a);}</style><linearGradient id="a" x1="1.047" y1="0.053" x2="0.08" y2="1.234" gradientUnits="objectBoundingBox"><stop offset="0" stop-color="#7745ff"/><stop offset="0.999" stop-color="#5253fb"/></linearGradient></defs><path class="a" d="M68.455,30a1.283,1.283,0,1,1,0-2.565c.239,0,5.814.017,8.807,1.5a1.3,1.3,0,0,1,.581,1.727,1.287,1.287,0,0,1-1.146.7,1.306,1.306,0,0,1-.564-.137C74.082,30.217,69.892,30,68.455,30Zm19.1,22.385v10.6a1.283,1.283,0,1,1-2.565,0V52.38a2.822,2.822,0,0,0-2.052-2.719l-5.3-1.522a3.058,3.058,0,0,1-.547-.222l-3.249,3.249V62.983a1.283,1.283,0,0,1-2.565,0V51.166L68.011,47.9a6.044,6.044,0,0,1-1.2.428l-.325.086a6.8,6.8,0,0,1,1.9,4.686v9.867a1.283,1.283,0,1,1-2.565,0V53.1a4.21,4.21,0,0,0-2.77-3.95l-8.328-3.027-3.472,5.2a2.592,2.592,0,0,1-1.95,1.163,1.294,1.294,0,0,1-.257.017,2.7,2.7,0,0,1-1.881-.77L45.044,49.61V62.966a1.283,1.283,0,1,1-2.565,0V49.61l-2.121,2.121a2.666,2.666,0,0,1-1.881.77,1.294,1.294,0,0,1-.257-.017,2.727,2.727,0,0,1-1.95-1.163l-3.472-5.2-8.328,3.027A4.21,4.21,0,0,0,21.7,53.1v9.867a1.283,1.283,0,1,1-2.565,0V53.1a6.757,6.757,0,0,1,1.026-3.574l-1.4-.7-1.488,1.419a5.372,5.372,0,0,1-7.422,0L8.362,48.823,4.07,50.961a2.942,2.942,0,0,0-1.5,2.565V63a1.292,1.292,0,0,1-1.283,1.283A1.292,1.292,0,0,1,0,63V53.526A5.382,5.382,0,0,1,2.976,48.7l3.437-1.727C2.736,45.369,1.556,43.112,1.5,42.992a1.234,1.234,0,0,1,0-1.146C2.428,40,2.548,36.613,2.634,33.877c.034-.906.051-1.761.12-2.531C3.2,25.19,7.866,20.555,13.629,20.555S24.078,25.19,24.506,31.346c.051.77.086,1.625.12,2.531.086,2.719.205,6.105,1.129,7.969a1.234,1.234,0,0,1,0,1.146c-.051.12-1.231,2.377-4.908,3.967l1.231.616a7.034,7.034,0,0,1,1.59-.838l7.884-2.873a1.212,1.212,0,0,1,.342-.975l2.394-2.514V36.083A15.688,15.688,0,0,1,28.8,24.13v-2.89A14.878,14.878,0,0,1,27.43,15V12.261A12.258,12.258,0,0,1,39.674,0h19.2a1.292,1.292,0,0,1,1.283,1.283V15a14.936,14.936,0,0,1-1.368,6.242v3.369a15.075,15.075,0,0,1-4.737,10.945c-.239.222-.5.445-.735.65V40.41l2.394,2.514a1.253,1.253,0,0,1,.342.975l7.473,2.719,2.582-.735c1.06-.308,1.06-.428,1.06-.7V43.334a10.012,10.012,0,0,1-4.121-8.089V33.159l-.65-1.317a6.91,6.91,0,0,1-.718-3.027v-.068a8.16,8.16,0,0,1,8.14-8.14H82.17a1.292,1.292,0,0,1,1.283,1.283v6.6a8.2,8.2,0,0,1-.855,3.643l-.513,1.026V35.57a9.426,9.426,0,0,1-2.89,6.823A9.9,9.9,0,0,1,77.963,43.4v1.761a.529.529,0,0,0,.393.513l5.3,1.522A5.407,5.407,0,0,1,87.557,52.38ZM23.138,42.291A14.59,14.59,0,0,1,22.4,39.23,9.434,9.434,0,0,1,19.016,43.4v1.522A9.325,9.325,0,0,0,23.138,42.291ZM5.2,33.98a2.07,2.07,0,0,1-.017.325.833.833,0,0,1,.205-.017A1.292,1.292,0,0,1,6.669,35.57a6.942,6.942,0,0,0,13.8,1.077c-2.069-4.566-7.4-5.182-9.064-5.267l-1.932,2A1.282,1.282,0,0,1,7.627,31.6l2.309-2.394a1.333,1.333,0,0,1,.889-.393,16.308,16.308,0,0,1,4.874.77,11.419,11.419,0,0,1,6.327,4.634V34c-.034-.889-.051-1.71-.1-2.428a9.509,9.509,0,0,0-2.6-5.985,7.972,7.972,0,0,0-11.458,0,9.6,9.6,0,0,0-2.6,5.985C5.25,32.252,5.233,33.09,5.2,33.98ZM8.226,44.924V43.385A9.528,9.528,0,0,1,4.84,39.213,13.754,13.754,0,0,1,4.1,42.291,9.175,9.175,0,0,0,8.226,44.924ZM15.579,48.4l1.2-1.129a2.6,2.6,0,0,1-.308-1.248V44.651a9.638,9.638,0,0,1-5.678,0v1.368a2.6,2.6,0,0,1-.308,1.248l1.2,1.129A2.82,2.82,0,0,0,15.579,48.4ZM42.958,37.007a12.335,12.335,0,0,0,8.328-2.48l.017-.017a11.2,11.2,0,0,0,.992-.838,12.318,12.318,0,0,0,3.933-9.064v-3.66a1.67,1.67,0,0,1,.12-.564A12.371,12.371,0,0,0,57.6,15V2.565H39.674a9.71,9.71,0,0,0-9.7,9.7V15a12.135,12.135,0,0,0,1.248,5.387,1.239,1.239,0,0,1,.12.564V24.13A12.744,12.744,0,0,0,42.958,37.007Zm-6.105.838v2.394L43.8,44.993l6.943-4.754V37.9a14.863,14.863,0,0,1-6.926,1.693c-.342,0-.667-.017-1.009-.034A14.37,14.37,0,0,1,36.853,37.845Zm4.942,8.875-6.054-4.138-1.283,1.351,3.985,5.985c0,.017.017.034.068.034a.177.177,0,0,0,.068-.017Zm11.338-2.787L51.85,42.581,45.8,46.72l3.215,3.215c.017.017.034.034.068.017.034,0,.051-.034.068-.034Zm19.222-1.419A6.923,6.923,0,0,0,79.5,35.587V32.851a1.381,1.381,0,0,1,.137-.581l.65-1.3a5.467,5.467,0,0,0,.581-2.5V23.155H69.806a5.576,5.576,0,0,0-5.575,5.575V28.8a4.226,4.226,0,0,0,.445,1.881l.787,1.59a1.323,1.323,0,0,1,.137.581v2.394A7.217,7.217,0,0,0,72.354,42.513Zm-2.616,2.1v.547a3.656,3.656,0,0,1-.086.77L72.56,48.84l2.924-2.924a2.748,2.748,0,0,1-.086-.752v-.513a9.721,9.721,0,0,1-2.822.428h-.291A8.957,8.957,0,0,1,69.738,44.617ZM80.8,53.475a1.292,1.292,0,0,0-1.283,1.283v8.226a1.283,1.283,0,1,0,2.565,0V54.757A1.292,1.292,0,0,0,80.8,53.475ZM6.789,55.185a1.292,1.292,0,0,0-1.283,1.283V63a1.283,1.283,0,0,0,2.565,0V56.468A1.281,1.281,0,0,0,6.789,55.185Zm28.7-40.393a.078.078,0,0,1,.068-.086,40.292,40.292,0,0,1,8.328-.41c4,.274,6.892,1.265,8.6,2.976A1.282,1.282,0,1,0,54.3,15.459c-4.84-4.857-15-3.916-19.136-3.3A2.635,2.635,0,0,0,32.9,14.775v2.958a1.283,1.283,0,1,0,2.565,0l.017-2.941ZM28.73,56.228a1.292,1.292,0,0,0-1.283,1.283V63a1.283,1.283,0,0,0,2.565,0V57.511A1.281,1.281,0,0,0,28.73,56.228Zm30.166,0a1.292,1.292,0,0,0-1.283,1.283V63a1.283,1.283,0,0,0,2.565,0V57.511A1.281,1.281,0,0,0,58.9,56.228Z" transform="translate(542 5677.617)"/></svg>