<svg xmlns="http://www.w3.org/2000/svg" xmlns:xlink="http://www.w3.org/1999/xlink" viewBox="1089 5675 83.665 75.2"><defs><style>.a{fill:url(#a);}</style><linearGradient id="a" x1="0.766" y1="0.039" x2="0.11" y2="1.022" gradientUnits="objectBoundingBox"><stop offset="0" stop-color="#7745ff"/><stop offset="1" stop-color="#5253fb"/></linearGradient></defs><path class="a" d="M51.326,6.569h-6.16V4.151h8.579v6.438H51.326Zm0,9.167h2.418V13.53H51.326Zm0,46.064H42.094v2.418H53.728V57.193H51.31V61.8ZM35.721,64.219h2.941V61.8H35.721ZM7.713,24.1H50.722V21.684H7.713Zm0,7.533H50.722V29.217H7.713Zm75.952-9.167L66.817,39.316l-1.7-1.7L77.455,25.279,76.066,23.89,64.84,35.116V75.2H6.945V68.386H0V15.965L15.965,0H57.9V6.814H64.84v12.3l4.935-4.935.67-.67a5.484,5.484,0,0,1,7.778,0l.212.212a5.533,5.533,0,0,1,0,7.795l-.67.67,1.389,1.389,2.794-2.794ZM57.9,26.063l4.526-4.526V9.233H57.9ZM4.118,15.262H15.262V4.118ZM55.477,65.968v-21.5l-5.392,5.392a64.811,64.811,0,0,1-7.615,5.736A36,36,0,0,1,37.682,58.3a7.038,7.038,0,0,1-2.6.686,3.173,3.173,0,0,1-.392-.033L33.6,60.052l-1.7-1.7,1.095-1.095a6.192,6.192,0,0,1,.654-2.99,34.24,34.24,0,0,1,2.713-4.788c.621-.948,1.275-1.9,1.912-2.794H7.713V44.267H40.084c.882-1.128,1.618-1.994,2.01-2.4l2.713-2.713H7.713V36.734H47.225l8.268-8.268V2.418H17.681V17.681H2.418V65.968ZM43.809,43.581A60.142,60.142,0,0,0,38.793,50.2c-2.386,3.579-3.219,5.54-3.383,6.357.817-.163,2.778-.98,6.357-3.383a60.143,60.143,0,0,0,6.618-5.017l3.922-3.922-4.575-4.575Zm18.612,29.2V37.518L57.9,42.045V68.37H9.363v4.412ZM74.367,22.174l-2.288-2.288L69.791,17.6,49.431,37.943l4.575,4.575Zm2.386-6.765L76.54,15.2a3.05,3.05,0,0,0-2.19-.9,3.118,3.118,0,0,0-2.19.9l-.67.67,2.288,2.288,2.288,2.288.67-.67A3.092,3.092,0,0,0,76.752,15.409ZM27.828,59.431c-.9-.229-1.5-1.095-2.19-2.092-.294-.425-.6-.866-.948-1.275a5.074,5.074,0,0,0-6.912-.931c-.458.294-.915.621-1.34.948-1.078.8-2.108,1.569-3.219,1.52a2.959,2.959,0,0,1-2.549-1.618c-.359-.85-.163-1.814.621-3.1L9.233,51.62c-.441.719-1.8,2.941-.784,5.311a5.314,5.314,0,0,0,4.657,3.088c1.961.082,3.448-1.029,4.755-1.994q.613-.466,1.177-.833a2.683,2.683,0,0,1,3.791.458c.261.31.523.686.8,1.078a6.51,6.51,0,0,0,3.579,3.056,4.422,4.422,0,0,0,1.111.147,4.287,4.287,0,0,0,2.288-.654L29.3,59.251A2.018,2.018,0,0,1,27.828,59.431Zm.556-41.211a.043.043,0,0,0,.049.049h1.6c.049,0,.065-.016.065-.065V16.471a4.766,4.766,0,0,0,2.288-1.438,2.426,2.426,0,0,0,.588-1.471A2.14,2.14,0,0,0,31.652,11.5a4.913,4.913,0,0,0-1.226-.409c-.441-.1-.833-.18-1.226-.278a3.963,3.963,0,0,1-.948-.359.759.759,0,0,1-.376-.7.63.63,0,0,1,.376-.637,2.183,2.183,0,0,1,.915-.163,4.091,4.091,0,0,1,2.99,1.144V7.974a3.89,3.89,0,0,0-2.141-.719V5.147c0-.033-.016-.049-.065-.049h-1.6c-.049,0-.065.016-.065.065V7.239a4.93,4.93,0,0,0-1.144.621,2.851,2.851,0,0,0-.833.9,2.7,2.7,0,0,0-.245,1.209,2.073,2.073,0,0,0,.376,1.242,3.482,3.482,0,0,0,2.173,1.242l1.226.278a4,4,0,0,1,.948.327.633.633,0,0,1,.376.572c0,.458-.294.768-.866.948a4.418,4.418,0,0,1-1.111.114,3.724,3.724,0,0,1-1.9-.49A3.272,3.272,0,0,1,26,12.827v2.484a9.425,9.425,0,0,0,2.353,1.046Z" transform="translate(1089 5675)"/></svg>