<svg xmlns="http://www.w3.org/2000/svg" xmlns:xlink="http://www.w3.org/1999/xlink" viewBox="-3266 5497.55 71.75 71.75"><defs><style>.a{fill:url(#a);}</style><linearGradient id="a" x1="0.22" y1="1.107" x2="0.894" y2="-0.061" gradientUnits="objectBoundingBox"><stop offset="0" stop-color="#5253fb"/><stop offset="1" stop-color="#7745ff"/></linearGradient></defs><path class="a" d="M9.257,20.823a1.167,1.167,0,0,1,1.166,1.166,1.166,1.166,0,1,1-2.333,0A1.167,1.167,0,0,1,9.257,20.823Zm4.617,0a1.167,1.167,0,0,1,1.166,1.166,1.166,1.166,0,1,1-2.333,0A1.167,1.167,0,0,1,13.874,20.823Zm4.641,0a1.167,1.167,0,0,1,1.166,1.166,1.166,1.166,0,1,1-2.333,0A1.167,1.167,0,0,1,18.515,20.823ZM8.091,63.635H22.985L8.091,49.615Zm2.333-8.65,6.755,6.342H10.424Zm61.3-48.036V0H64.777V2.308H41.646V0H34.7V6.949h6.949V4.617h3.912a13.886,13.886,0,0,0-6.22,11.566H6.949a3.474,3.474,0,0,0-3.475,3.475V34.138A2.143,2.143,0,0,0,1.191,33.6,2.175,2.175,0,0,0,0,35.839V68.276A3.474,3.474,0,0,0,3.475,71.75H38.2a2.113,2.113,0,0,0,2.211-1.191,2.091,2.091,0,0,0-.8-2.381l-1.118-1.045H68.276a3.474,3.474,0,0,0,3.475-3.475V19.681a3.474,3.474,0,0,0-3.475-3.475H67.109a13.853,13.853,0,0,0-6.22-11.566H64.8V6.949ZM67.109,2.308h2.308V4.617H67.109ZM39.337,4.617H37.029V2.308h2.308ZM5.783,19.657A1.167,1.167,0,0,1,6.949,18.49H39.532a.024.024,0,0,1,.024.024,13.727,13.727,0,0,0,3.353,6.925H5.783V19.657ZM3.475,69.418h0a1.167,1.167,0,0,1-1.166-1.166V67.085H4.617V64.777H2.308V62.469H4.617V60.16H2.308V57.852H4.617V55.544H2.308V53.211H4.617V50.9H2.308V48.595H4.617V46.287H2.308V43.978H4.617V41.67H2.308V36.252l12.1,11.371,3.5,3.28L37.588,69.418Zm6.949-28.744V32.388H35.887V48.595H18.83ZM69.418,63.635A1.167,1.167,0,0,1,68.251,64.8H36.033L21.285,50.927H38.171V30.1H8.091v8.407L5.783,36.325V27.772H45.606c.219.146.437.316.656.437v1.312A2.887,2.887,0,0,0,45.1,31.83a2.839,2.839,0,0,0,.583,1.725,2.879,2.879,0,0,0,2.308,4.617H58.411A2.883,2.883,0,0,0,61.3,35.28a2.839,2.839,0,0,0-.583-1.725,2.858,2.858,0,0,0-.583-4.033V28.209c.243-.146.437-.292.656-.437h8.6V63.635ZM48.012,34.721H58.435a.583.583,0,1,1,0,1.166H48.012a.591.591,0,0,1-.583-.583A.576.576,0,0,1,48.012,34.721Zm-.583-2.891a.591.591,0,0,1,.583-.583H58.435a.583.583,0,1,1,0,1.166H48.012A.608.608,0,0,1,47.428,31.83ZM66.915,18.515h1.361a1.167,1.167,0,0,1,1.166,1.166v5.783h-5.88a13.852,13.852,0,0,0,3.329-6.755A.274.274,0,0,1,66.915,18.515ZM64.8,16.206a11.56,11.56,0,0,1-6.317,10.3l-.632.316v2.114H54.378V20.653a4.617,4.617,0,1,0-2.284,0v8.261h-3.5V26.8l-.632-.316A11.569,11.569,0,1,1,64.8,16.206Zm-11.59,2.308a2.308,2.308,0,1,1,2.308-2.308A2.307,2.307,0,0,1,53.211,18.515ZM40.5,41.646H67.109v2.308H40.5Zm0,4.641H67.109v2.308H40.5Zm0,4.617H67.109v2.308H40.5Zm0,4.641H67.109v2.308H40.5Z" transform="translate(-3266 5497.55)"/></svg>