<svg xmlns="http://www.w3.org/2000/svg" xmlns:xlink="http://www.w3.org/1999/xlink" viewBox="-2731 5493.5 77.5 77.5"><defs><style>.a{fill:url(#a);}</style><linearGradient id="a" x1="0.231" y1="1.099" x2="0.839" y2="0.046" gradientUnits="objectBoundingBox"><stop offset="0" stop-color="#5253fb"/><stop offset="1" stop-color="#7745ff"/></linearGradient></defs><path class="a" d="M4569.25-5159.5a6.248,6.248,0,0,1-6.25-6.25V-5172h25v2.5h-22.5v3.75a3.761,3.761,0,0,0,3.75,3.75h65a3.761,3.761,0,0,0,3.75-3.75v-3.75h-22.5v-2.5h25v6.25a6.248,6.248,0,0,1-6.25,6.25Zm25-5a3.761,3.761,0,0,1-3.75-3.75V-5172H4613v3.75a3.761,3.761,0,0,1-3.75,3.75Zm-1.25-3.75a1.254,1.254,0,0,0,1.25,1.25h15a1.254,1.254,0,0,0,1.25-1.25v-1.25H4593Zm42.5-6.251v-40a3.761,3.761,0,0,0-3.751-3.75H4605.5v-2.5h26.25a6.248,6.248,0,0,1,6.251,6.25v40Zm-5,0v-38.75H4613v-2.5h17.5a2.507,2.507,0,0,1,2.5,2.5v38.75Zm-48.749-20a20.016,20.016,0,0,1,18.75-19.937V-5224.5a10.01,10.01,0,0,0-10-10h-6.172a10.012,10.012,0,0,0,9.922,8.751H4598v2.5h-3.751a12.516,12.516,0,0,1-12.5-12.5V-5237h8.749a12.5,12.5,0,0,1,11.25,7.093A12.5,12.5,0,0,1,4613-5237h8.75v1.25a12.517,12.517,0,0,1-12.5,12.5h-3.75v-2.5h3.75a10.021,10.021,0,0,0,9.922-8.751H4613a10.01,10.01,0,0,0-10,10v10.062a20.017,20.017,0,0,1,18.75,19.937,20.018,20.018,0,0,1-20,20A20.018,20.018,0,0,1,4581.75-5194.5Zm2.5,0a17.511,17.511,0,0,0,17.5,17.5,17.511,17.511,0,0,0,17.5-17.5,17.511,17.511,0,0,0-17.5-17.5A17.511,17.511,0,0,0,4584.25-5194.5Zm-13.75,20v-38.75a2.507,2.507,0,0,1,2.5-2.5h17.5v2.5H4573v38.75Zm-5,0v-40a6.248,6.248,0,0,1,6.25-6.25H4598v2.5H4571.75a3.761,3.761,0,0,0-3.75,3.75v40Zm58.75-2.5v-2.5h2.5v2.5Zm-47.5,0v-2.5h2.5v2.5Zm10-17.5a15.023,15.023,0,0,1,15-15,15.023,15.023,0,0,1,15,15,15.024,15.024,0,0,1-15,15A15.024,15.024,0,0,1,4586.75-5194.5Zm2.5,0a12.517,12.517,0,0,0,12.5,12.5,12.516,12.516,0,0,0,12.5-12.5,12.516,12.516,0,0,0-12.5-12.5A12.516,12.516,0,0,0,4589.25-5194.5Zm35,10v-2.5h2.5v2.5Zm-47.5,0v-2.5h2.5v2.5Zm24.873-1.629c-.025-.045-.048-.095-.077-.137q-2.595-3.6-5.19-7.2c-.016-.023-.029-.046-.068-.1a1.382,1.382,0,0,1,.137.062q2.482,1.479,4.965,2.961a.258.258,0,0,0,.3,0q2.575-1.488,5.151-2.965a.445.445,0,0,1,.169-.062c-.039.059-.081.114-.121.173q-2.593,3.6-5.187,7.2c-.016.023-.029.046-.042.068Zm-.2-5.3q-2.411-1.443-4.823-2.881c-.022-.013-.045-.029-.091-.058l5.132-8.461c1.717,2.825,3.418,5.633,5.128,8.447l-.127.085q-2.49,1.433-4.984,2.868a.234.234,0,0,1-.118.037A.235.235,0,0,1,4601.427-5191.432Zm22.823-.569v-2.5h2.5v2.5Zm-47.5,0v-2.5h2.5v2.5Zm23.751-13.749h0Z" transform="translate(-7294 10730.5)"/></svg>