<svg xmlns="http://www.w3.org/2000/svg" xmlns:xlink="http://www.w3.org/1999/xlink" viewBox="-2457 5503.577 64.624 69.223"><defs><style>.a{fill:url(#a);}</style><linearGradient id="a" x1="0.226" y1="0.943" x2="0.827" y2="-0.03" gradientUnits="objectBoundingBox"><stop offset="0" stop-color="#5253fb"/><stop offset="1" stop-color="#7745ff"/></linearGradient></defs><path class="a" d="M39.237,24.21a1.149,1.149,0,0,0,1.15,1.15H51.937a1.15,1.15,0,0,0,0-2.3H40.4A1.152,1.152,0,0,0,39.237,24.21Zm6.925,6.925a1.149,1.149,0,0,0,1.15,1.15h6.925a1.15,1.15,0,1,0,0-2.3H47.312A1.149,1.149,0,0,0,46.162,31.135Zm-1.15-12.7a1.15,1.15,0,0,0,0-2.3H42.7a1.15,1.15,0,1,0,0,2.3ZM31.162,29.986a1.15,1.15,0,0,0,0,2.3H42.7a1.15,1.15,0,1,0,0-2.3ZM36.938,62.3H15a3.469,3.469,0,0,1-3.462-3.462V5.748a1.149,1.149,0,0,0-1.15-1.15,5.781,5.781,0,0,0-5.775,5.775,1.15,1.15,0,1,0,2.3,0,3.454,3.454,0,0,1,2.313-3.26V58.835A5.781,5.781,0,0,0,15,64.611H36.924a1.157,1.157,0,0,0,.014-2.313ZM19.625,25.36H35.788a1.15,1.15,0,1,0,0-2.3H19.625a1.15,1.15,0,0,0,0,2.3Zm0-6.925h4.612a1.15,1.15,0,1,0,0-2.3H19.625a1.15,1.15,0,1,0,0,2.3Zm18.462-2.3H28.85a1.15,1.15,0,1,0,0,2.3h9.238a1.15,1.15,0,0,0,0-2.3ZM54.25,0H10.387A10.408,10.408,0,0,0,0,10.347V10.4a10.414,10.414,0,0,0,5.194,8.954,1.158,1.158,0,1,0,1.163-2A8.063,8.063,0,0,1,10.387,2.3H54.25a8.087,8.087,0,0,1,8.075,8.075V58.849a3.293,3.293,0,0,1-.473,1.691,1.161,1.161,0,0,0,.406,1.582,1.184,1.184,0,0,0,.582.162,1.167,1.167,0,0,0,1-.568,5.679,5.679,0,0,0,.784-2.867V10.387A10.379,10.379,0,0,0,54.25,0Zm3.462,53.06a6.925,6.925,0,1,0-6.925,6.925A6.938,6.938,0,0,0,57.713,53.06Zm-6.925,4.626A4.612,4.612,0,1,1,55.4,53.074,4.618,4.618,0,0,1,50.788,57.686ZM48.7,61.148a1.153,1.153,0,0,0-1.582.419l-2.489,4.3-.392-.6a1.142,1.142,0,0,0-.893-.514l-.717-.041,2.529-4.369a1.158,1.158,0,0,0-2-1.163L39.7,65.179a1.16,1.16,0,0,0,.933,1.731l2,.122,1.109,1.677a1.158,1.158,0,0,0,.96.514h.041a1.157,1.157,0,0,0,.96-.582l3.422-5.924A1.138,1.138,0,0,0,48.7,61.148Zm9.725-1.907a1.158,1.158,0,0,0-2,1.163l2.5,4.315-.717.041a1.18,1.18,0,0,0-.893.514l-.392.6-2.475-4.288a1.158,1.158,0,0,0-2,1.163l3.408,5.9a1.157,1.157,0,0,0,.96.582h.041a1.14,1.14,0,0,0,.96-.514l1.109-1.677,2-.122a1.156,1.156,0,0,0,.947-.609,1.18,1.18,0,0,0-.014-1.123Zm-38.8-26.956H26.55a1.15,1.15,0,0,0,0-2.3H19.625a1.15,1.15,0,1,0,0,2.3Zm0,6.925h13.85a1.15,1.15,0,0,0,0-2.3H19.625a1.15,1.15,0,0,0,0,2.3Zm.122,14.377a1.149,1.149,0,0,0,1.542.514,1.16,1.16,0,0,0,.514-1.555c-1.136-2.286-1.393-4.342-.69-5.491a2.139,2.139,0,0,1,1.961-.92c.555,0,.757.189.879.379.866,1.244.041,5.018-.812,7.3a1.158,1.158,0,0,0,.46,1.38,1.145,1.145,0,0,0,1.434-.149c.487-.487,1.028-.987,1.488-1.38v.568a1.162,1.162,0,0,0,1.975.825,15.2,15.2,0,0,1,1.65-1.42l-.041.081a1.147,1.147,0,0,0,.054,1.123,1.163,1.163,0,0,0,.987.541h4.612a1.15,1.15,0,0,0,0-2.3h-3a2.249,2.249,0,0,0-.2-1.555,1.618,1.618,0,0,0-1.407-.744,4.415,4.415,0,0,0-2.313.974,1.327,1.327,0,0,0-.812-1.109c-.311-.122-.7-.3-1.664.284.379-1.988.487-4.274-.5-5.708a3.218,3.218,0,0,0-2.786-1.366,4.39,4.39,0,0,0-3.922,2.015C18,47.718,18.219,50.531,19.747,53.588ZM50.788,38.06a1.149,1.149,0,0,0-1.15-1.15H38.1a1.15,1.15,0,0,0,0,2.3H49.638A1.149,1.149,0,0,0,50.788,38.06Z" transform="translate(-2457 5503.577)"/></svg>