<svg xmlns="http://www.w3.org/2000/svg" xmlns:xlink="http://www.w3.org/1999/xlink" viewBox="-2195 5496 81 81"><defs><style>.a{fill:url(#a);}</style><linearGradient id="a" x1="0.25" y1="0.933" x2="0.75" y2="0.067" gradientUnits="objectBoundingBox"><stop offset="0" stop-color="#5253fb"/><stop offset="1" stop-color="#7745ff"/></linearGradient></defs><path class="a" d="M4574.865-5167.865A40.178,40.178,0,0,1,4563-5196.5a40.274,40.274,0,0,1,11.864-28.635A40.18,40.18,0,0,1,4603.5-5237a40.179,40.179,0,0,1,28.635,11.866A40.179,40.179,0,0,1,4644-5196.5a40.275,40.275,0,0,1-11.865,28.635A40.178,40.178,0,0,1,4603.5-5156,40.277,40.277,0,0,1,4574.865-5167.865Zm1.677-55.593a37.873,37.873,0,0,0-11.169,26.958,37.875,37.875,0,0,0,11.169,26.958,37.875,37.875,0,0,0,26.958,11.169,37.873,37.873,0,0,0,26.958-11.169,37.875,37.875,0,0,0,11.169-26.958,37.873,37.873,0,0,0-11.169-26.958,37.873,37.873,0,0,0-26.958-11.169A37.875,37.875,0,0,0,4576.542-5223.458Zm25.772,61.193a1.2,1.2,0,0,1,1.186-1.187,33.085,33.085,0,0,0,33.05-33.048,1.2,1.2,0,0,1,1.186-1.187,1.185,1.185,0,0,1,1.187,1.187,35.25,35.25,0,0,1-10.378,25.043,35.158,35.158,0,0,1-25.044,10.379A1.2,1.2,0,0,1,4602.314-5162.264Zm-18.32-11a1.184,1.184,0,0,1-.143-1.677,1.186,1.186,0,0,1,1.678-.142,27.867,27.867,0,0,0,19.126,6.534,27.9,27.9,0,0,0,18.636-8.163,27.866,27.866,0,0,0,8.165-18.637,27.947,27.947,0,0,0-6.535-19.126,1.182,1.182,0,0,1,.143-1.677,1.184,1.184,0,0,1,1.677.142,30.194,30.194,0,0,1,7.071,20.74,30.21,30.21,0,0,1-8.86,20.219,30.138,30.138,0,0,1-20.218,8.858c-.412.032-.823.032-1.234.032A30.266,30.266,0,0,1,4583.994-5173.26Zm-3.734-3.734a30.3,30.3,0,0,1-7.088-20.756,30.21,30.21,0,0,1,8.86-20.219,30.148,30.148,0,0,1,20.218-8.858,30.3,30.3,0,0,1,20.757,7.086,1.168,1.168,0,0,1,.126,1.677,1.182,1.182,0,0,1-1.677.142,27.875,27.875,0,0,0-19.127-6.534,27.9,27.9,0,0,0-18.636,8.165,27.861,27.861,0,0,0-8.163,18.636,27.945,27.945,0,0,0,6.533,19.126,1.185,1.185,0,0,1-.142,1.678,1.166,1.166,0,0,1-.76.284A1.166,1.166,0,0,1,4580.26-5176.994Zm23.148-1.635c-.054-.1-.1-.2-.163-.285q-5.4-7.505-10.814-15.016c-.034-.047-.062-.1-.144-.218a2.476,2.476,0,0,1,.285.13q5.169,3.079,10.345,6.172a.543.543,0,0,0,.633.007q5.363-3.1,10.733-6.179a.9.9,0,0,1,.354-.13c-.082.123-.171.239-.251.362q-5.4,7.5-10.809,15.015a1.614,1.614,0,0,0-.088.143Zm-.408-11.052q-5.027-3.009-10.053-6c-.048-.027-.1-.062-.19-.122l10.7-17.633c3.576,5.887,7.124,11.738,10.687,17.605l-.266.177q-5.191,2.987-10.387,5.975a.493.493,0,0,1-.246.079A.486.486,0,0,1,4603-5189.681Zm-34.922-6.819a35.25,35.25,0,0,1,10.379-25.044,35.159,35.159,0,0,1,25.043-10.377,1.184,1.184,0,0,1,1.187,1.187,1.2,1.2,0,0,1-1.187,1.186,33.085,33.085,0,0,0-33.048,33.05,1.2,1.2,0,0,1-1.187,1.186A1.2,1.2,0,0,1,4568.078-5196.5Z" transform="translate(-6758 10733)"/></svg>