<svg xmlns="http://www.w3.org/2000/svg" viewBox="563.296 8164.271 344.211 344.127"><defs><style>.a{opacity:0.1;}.b{fill:#7745ff;}.c{opacity:0.2;}.d{opacity:0.4;}.e{fill:#6e48fe;}.f{opacity:0.6;}.g{opacity:0.8;}.h{fill:#f7f9ff;}</style></defs><g transform="translate(222.171 8164.683)"><g transform="translate(341.125 -0.412)"><g class="a" transform="translate(172.157 172.055)"><path class="b" d="M606.2,203.2l170.276,24.386c-.254,1.863-.593,4.064-.931,5.927Z" transform="translate(-606.2 -203.2)"/></g><g class="c" transform="translate(172.157 172.055)"><path class="b" d="M606.2,203.2l171.63,12.447c-.254,3.81-.762,8.213-1.27,11.939Z" transform="translate(-606.2 -203.2)"/></g><g class="d" transform="translate(172.157 172.055)"><path class="e" d="M606.2,203.2l172.054.508c0,3.81-.169,8.213-.423,12.023Z" transform="translate(-606.2 -203.2)"/></g><g class="f" transform="translate(172.157 119.304)"><path class="e" d="M606.2,193.651,769.956,140.9a164.656,164.656,0,0,1,8.3,53.174Z" transform="translate(-606.2 -140.9)"/></g><g class="g" transform="translate(172.157 0.001)"><path class="e" d="M606.2,172.054,606.623,0c76.8.254,139.794,46.231,163.333,119.3Z" transform="translate(-606.2)"/></g><g transform="translate(0 0)"><path class="e" d="M575.035,172.054l169.344,30.313a172.085,172.085,0,1,1-338.773-60.71C420.508,58.678,491.125-.254,575.458,0Z" transform="translate(-402.878 0.001)"/></g></g><circle class="h" cx="115.747" cy="115.747" r="115.747" transform="translate(397.536 55.896)"/></g></svg>