<svg xmlns="http://www.w3.org/2000/svg" xmlns:xlink="http://www.w3.org/1999/xlink" viewBox="228 4765 485.352 512.211"><defs><style>.a{fill:#9882fe;}.b{fill:#4a38ce;}.c{fill:#958ed6;}.d{fill:#8579e2;}.e{fill:#6a5bd3;}.f{fill:none;}.g{fill:#e7e5ff;}.h{fill:#32efef;}.i{clip-path:url(#a);}.j{fill:#33f5f5;}.k{fill:#3c648c;}.l{fill:#3e6790;}.m{fill:#385d83;}.n{fill:#6340fe;}.o{fill:#fff;}.p{clip-path:url(#b);}.q{clip-path:url(#c);}.r{fill:#822929;}.s{fill:#8f2e2e;}.t{clip-path:url(#d);}.u{clip-path:url(#e);}.v{fill:#b2a3ff;}.w{fill:#00762e;}.x{clip-path:url(#f);}.y{fill:#234d88;}.z{fill:#7d61fe;}.aa{clip-path:url(#g);}.ab{fill:#f5bca1;}.ac{opacity:0.184;}.ad{fill:#393939;}.ae{fill:#d8a78e;}.af{fill:#f6bda2;}.ag{fill:#c9ab3d;}.ah{fill:#cdae3d;}.ai{fill:#dfbe43;}.aj{fill:#ba9d37;}.ak{fill:#6654ed;}.al{fill:#5851b7;}.am{fill:#7671d1;}.an{fill:#8481c1;}.ao{fill:#007fb5;}.ap{fill:#007aae;}.aq{fill:#f8d505;}.ar{fill:#eecc05;}.as{fill:#2e2f31;}.at{fill:#ffde8d;}.au{fill:#1ddedb;}.av{fill:#ff83c7;}.aw{fill:#cdc4ff;}.ax{fill:#efefef;}.ay{clip-path:url(#h);}.az{fill:#f5f5f5;}.ba{fill:#3c6437;}.bb{fill:#3e6739;}.bc{fill:#385d33;}.bd{clip-path:url(#i);}.be{clip-path:url(#j);}.bf{fill:#cecece;}.bg{clip-path:url(#k);}.bh{fill:#a4a4a4;}.bi{fill:#adadad;}.bj{fill:#b4b4b4;}.bk{fill:#bcbcbc;}.bl{clip-path:url(#l);}.bm{fill:#9c9c9c;}.bn{fill:#9a9a9a;}.bo{fill:silver;}.bp{clip-path:url(#m);}.bq{fill:#a7a7a7;}.br{fill:#434343;}.bs{clip-path:url(#n);}.bt{fill:#3c3c3c;}.bu{fill:#373737;}.bv{fill:#333;}.bw{fill:#303030;}.bx{clip-path:url(#o);}.by{fill:#272727;}.bz{fill:#4e4e4e;}.ca{fill:#686868;}.cb{clip-path:url(#p);}.cc{fill:#4f4f4f;}.cd{fill:#535353;}.ce{fill:#585858;}.cf{fill:#5b5b5b;}.cg{fill:#5f5f5f;}.ch{fill:#646464;}</style><clipPath id="a"><path class="a" d="M271.5,100.488l2.729-1.55a2.281,2.281,0,0,1,2.3.218l-2.674,1.561A2.281,2.281,0,0,0,271.5,100.488Z" transform="translate(-271.5 -98.723)"/></clipPath><clipPath id="b"><path class="a" d="M348.631,199.7,346,201.3a2.183,2.183,0,0,0,.939-2.063l2.674-1.561a2.271,2.271,0,0,1-.982,2.019Z" transform="translate(-346 -197.68)"/></clipPath><clipPath id="c"><path class="a" d="M344,141.331l2.674-1.561a7.1,7.1,0,0,1,3.22,5.589l-2.62,1.55A7.106,7.106,0,0,0,344,141.331Z" transform="translate(-344 -139.77)"/></clipPath><clipPath id="d"><path class="b" d="M295.13,366.894v-17.8a24.168,24.168,0,0,0,1.31,7.848l-.055,17.8a24.245,24.245,0,0,1-1.255-7.848Z" transform="translate(-295.13 -349.09)"/></clipPath><clipPath id="e"><path class="c" d="M422.807,349.45v17.793a25.423,25.423,0,0,1-3.417,12.433V361.883a25.335,25.335,0,0,0,3.417-12.433Z" transform="translate(-419.39 -349.45)"/></clipPath><clipPath id="f"><path class="d" d="M421.573,360.84v17.793c-3.275,5.8-8.842,11.243-16.777,15.85a72.54,72.54,0,0,1-9.246,4.508V381.2a75.742,75.742,0,0,0,9.257-4.508C412.731,372.083,418.32,366.636,421.573,360.84Z" transform="translate(-395.55 -360.84)"/></clipPath><clipPath id="g"><path class="e" d="M404.633,381.615v17.793c-27.06,11.025-64.741,9.529-89.05-4.5-10.239-5.916-16.646-13.2-19.223-20.827l.055-17.8c2.576,7.641,8.984,14.922,19.223,20.827C339.9,391.145,377.584,392.64,404.633,381.615Z" transform="translate(-296.36 -356.28)"/></clipPath><clipPath id="h"><path class="a" d="M182.58,118.063l2.6-1.506a2.183,2.183,0,0,1,2.183.218l-2.6,1.506A2.183,2.183,0,0,0,182.58,118.063Z" transform="translate(-182.58 -116.361)"/></clipPath><clipPath id="i"><path class="a" d="M257.378,214.278l-2.6,1.506a2.183,2.183,0,0,0,.917-2.008l2.6-1.506A2.183,2.183,0,0,1,257.378,214.278Z" transform="translate(-254.78 -212.27)"/></clipPath><clipPath id="j"><path class="a" d="M252.9,157.677l2.6-1.517a6.9,6.9,0,0,1,3.122,5.458l-2.587,1.506A6.877,6.877,0,0,0,252.9,157.677Z" transform="translate(-252.9 -156.16)"/></clipPath><clipPath id="k"><path class="f" d="M286.219,375.86v4.115a.993.993,0,0,1-.579.808v-4.115a1.015,1.015,0,0,0,.579-.808Z" transform="translate(-285.64 -375.86)"/></clipPath><clipPath id="l"><path class="f" d="M81,406.946V402.82a.982.982,0,0,0,.579.808v4.115A1,1,0,0,1,81,406.946Z" transform="translate(-81 -402.82)"/></clipPath><clipPath id="m"><path class="f" d="M161.464,448.42v4.126a3.122,3.122,0,0,1-2.784,0V448.42A3.035,3.035,0,0,0,161.464,448.42Z" transform="translate(-158.68 -448.42)"/></clipPath><clipPath id="n"><path class="f" d="M284.273,288.587l3.559,2.074a.961.961,0,0,0-.993.1l-3.559-2.074a1.015,1.015,0,0,1,.993-.1Z" transform="translate(-283.28 -288.501)"/></clipPath><clipPath id="o"><path class="f" d="M161.824,454.959l-3.559-2.074a.972.972,0,0,1-.415-.9l3.569,2.074A.983.983,0,0,0,161.824,454.959Z" transform="translate(-157.846 -451.99)"/></clipPath><clipPath id="p"><path class="f" d="M161.159,364.975,157.6,362.9a3.056,3.056,0,0,1,1.386-2.4l3.559,2.063a3.078,3.078,0,0,0-1.386,2.412Z" transform="translate(-157.6 -360.5)"/></clipPath></defs><g transform="translate(228 4766.382)"><g transform="translate(0 -1.382)"><path class="g" d="M420.516,304.491a2.183,2.183,0,0,1-1.092-4.061l.2-.109a2.183,2.183,0,1,1,2.183,3.755l-.186.109A2.183,2.183,0,0,1,420.516,304.491Zm7.706-4.552a2.183,2.183,0,0,1-1.092-4.061l.186-.12a2.183,2.183,0,0,1,2.183,3.755l-.186.12a2.183,2.183,0,0,1-1.092.306Zm7.706-4.563a2.183,2.183,0,0,1-1.092-4.061l.186-.109a2.183,2.183,0,0,1,2.183,3.755l-.2.109a2.183,2.183,0,0,1-1.081.327Zm7.706-4.563a2.183,2.183,0,0,1-1.092-4.061l.186-.109a2.183,2.183,0,1,1,2.183,3.755l-.186.12A2.26,2.26,0,0,1,443.636,290.813Zm7.7-4.552a2.183,2.183,0,0,1-1.092-4.061l.2-.109a2.183,2.183,0,0,1,2.183,3.755l-.186.109a2.183,2.183,0,0,1-1.1.306Zm7.706-4.563a2.183,2.183,0,0,1-1.092-4.061l.2-.109a2.183,2.183,0,1,1,2.183,3.766l-.186.109a2.183,2.183,0,0,1-1.1.295Zm7.706-4.552a2.183,2.183,0,0,1-1.092-4.061l.186-.109a2.183,2.183,0,1,1,2.183,3.755l-.186.109a2.183,2.183,0,0,1-1.092.306Zm-7.292-4.268a2.052,2.052,0,0,1-1.026-.262l-.2-.1a2.183,2.183,0,0,1,2.074-3.842l.2.1a2.183,2.183,0,0,1-1.092,4.1Zm-7.87-4.246a2.183,2.183,0,0,1-1.026-.262l-.2-.1a2.185,2.185,0,0,1,2.063-3.853l.2.1a2.183,2.183,0,0,1-1.092,4.115Zm-7.881-4.257a2.183,2.183,0,0,1-1.026-.262l-.2-.1a2.183,2.183,0,0,1,2.074-3.842l.186.1a2.183,2.183,0,0,1-1.037,4.1Zm-7.837-4.246a2.183,2.183,0,0,1-1.092-.262l-.2-.109a2.183,2.183,0,1,1,2.074-3.842l.2.109a2.183,2.183,0,0,1-1.037,4.1ZM177.413,256.1a2.183,2.183,0,0,1-1.092-4.072l.186-.109a2.186,2.186,0,0,1,2.183,3.788l-.186.109A2.183,2.183,0,0,1,177.413,256.1Zm250.537-.229a2.248,2.248,0,0,1-1.037-.262l-.186-.1a2.183,2.183,0,1,1,2.074-3.842l.186.1a2.183,2.183,0,0,1-1.037,4.1Zm-242.776-4.213a2.183,2.183,0,0,1-1.092-4.082l.2-.109a2.191,2.191,0,0,1,2.183,3.8l-.186.109A2.183,2.183,0,0,1,185.174,251.659Zm234.906,0a2.183,2.183,0,0,1-1.092-.262l-.2-.109a2.183,2.183,0,1,1,2.074-3.842l.2.1a2.183,2.183,0,0,1-1.037,4.115ZM412.2,247.4a2.183,2.183,0,0,1-1.026-.262l-.2-.1a2.185,2.185,0,1,1,2.063-3.853l.2.109a2.183,2.183,0,0,1-1.037,4.1Zm-219.253-.153a2.183,2.183,0,0,1-1.092-4.082l.2-.109a2.186,2.186,0,1,1,2.183,3.788l-.2.109a2.183,2.183,0,0,1-1.092.262Zm211.383-4.1a2.183,2.183,0,0,1-1.037-.251l-.2-.109a2.183,2.183,0,0,1,2.074-3.842l.2.1a2.183,2.183,0,0,1-1.037,4.1Zm-203.611-.338a2.183,2.183,0,0,1-1.092-4.082l.186-.109a2.191,2.191,0,1,1,2.183,3.8l-.2.1a2.183,2.183,0,0,1-1.081.262ZM396.447,238.9a2.183,2.183,0,0,1-1.037-.262l-.186-.109a2.183,2.183,0,0,1,2.074-3.842l.186.109a2.183,2.183,0,0,1-1.037,4.1Zm-187.968-.546a2.183,2.183,0,0,1-1.092-4.072l.186-.109a2.186,2.186,0,0,1,2.183,3.788l-.186.109a2.183,2.183,0,0,1-1.092.251Zm180.109-3.711a2.052,2.052,0,0,1-1.026-.262l-.2-.1a2.183,2.183,0,0,1,2.074-3.842l.2.1a2.183,2.183,0,0,1-1.092,4.1Zm-172.315-.731a2.183,2.183,0,0,1-1.092-4.072l.2-.109a2.183,2.183,0,1,1,2.183,3.777l-.186.109a2.183,2.183,0,0,1-1.124.262Zm164.445-3.515a2.183,2.183,0,0,1-1.037-.262l-.186-.109a2.183,2.183,0,1,1,2.063-3.842l.2.109a2.183,2.183,0,0,1-1.092,4.1Zm-156.673-.928a2.183,2.183,0,0,1-1.092-4.082l.186-.109a2.186,2.186,0,1,1,2.183,3.788l-.186.109a2.183,2.183,0,0,1-1.113.262Zm148.792-3.275a2.183,2.183,0,0,1-1.026-.251l-.2-.109a2.185,2.185,0,1,1,2.063-3.853l.2.109a2.183,2.183,0,0,1-1.037,4.1ZM231.806,225.1a2.183,2.183,0,0,1-1.092-4.072l.2-.109a2.186,2.186,0,1,1,2.183,3.788l-.2.109a2.183,2.183,0,0,1-1.157.164Zm133.172-3.122a2.183,2.183,0,0,1-1.037-.262l-.2-.109a2.183,2.183,0,1,1,2.074-3.842l.2.109a2.183,2.183,0,0,1-1.092,4.1Zm-125.389-1.321a2.183,2.183,0,0,1-1.092-4.082l.186-.109a2.191,2.191,0,1,1,2.183,3.8l-.186.109a2.183,2.183,0,0,1-1.124.164ZM357.1,217.722a2.248,2.248,0,0,1-1.037-.262l-.186-.1a2.183,2.183,0,1,1,2.074-3.842l.186.1a2.183,2.183,0,0,1-1.037,4.1Zm-109.736-1.506a2.183,2.183,0,0,1-1.092-4.082l.186-.109a2.191,2.191,0,0,1,2.183,3.8l-.186.109a2.249,2.249,0,0,1-1.124.164Zm101.865-2.74a2.183,2.183,0,0,1-1.092-.262l-.2-.109a2.183,2.183,0,1,1,2.074-3.842l.2.109a2.183,2.183,0,0,1-1.037,4.1Zm-94.093-1.7a2.183,2.183,0,0,1-1.092-4.082l.2-.109a2.186,2.186,0,0,1,2.183,3.788l-.2.109a2.183,2.183,0,0,1-1.124.175Zm86.234-2.554a2.183,2.183,0,0,1-1.037-.262l-.2-.109a2.183,2.183,0,1,1,2.085-3.831l.186.1a2.183,2.183,0,0,1-1.037,4.1Zm-78.451-1.9a2.183,2.183,0,0,1-1.092-4.072l.2-.109a2.186,2.186,0,0,1,2.183,3.788l-.2.109a2.183,2.183,0,0,1-1.146.164Zm70.581-2.347a2.183,2.183,0,0,1-1.037-.262l-.2-.109a2.183,2.183,0,0,1,2.074-3.842l.2.1a2.183,2.183,0,0,1-1.037,4.115Zm-62.809-2.1A2.183,2.183,0,0,1,269.6,198.8l.186-.109a2.183,2.183,0,1,1,2.183,3.777l-.186.109a2.183,2.183,0,0,1-1.146.175Zm54.928-2.183a2.183,2.183,0,0,1-1.037-.262l-.2-.109a2.183,2.183,0,1,1,2.085-3.831l.186.1a2.183,2.183,0,0,1-1.037,4.1Zm-47.156-2.281a2.183,2.183,0,0,1-1.092-4.082l.186-.1a2.183,2.183,0,0,1,2.183,3.777l-.186.109a2.183,2.183,0,0,1-1.146.2Zm39.3-1.976a2.118,2.118,0,0,1-1.092-.262l-.186-.1a2.183,2.183,0,1,1,2.074-3.842l.2.109a2.183,2.183,0,0,1-1.092,4.093Zm-31.59-2.554a2.183,2.183,0,0,1-1.092-4.082l.186-.109a2.186,2.186,0,1,1,2.183,3.788l-.186.109A2.183,2.183,0,0,1,286.166,193.882Zm23.643-1.779a2.183,2.183,0,0,1-1.037-.262l-.2-.109a2.186,2.186,0,1,1,2.085-3.842l.186.109a2.183,2.183,0,0,1-1.092,4.1Zm-15.85-2.685a2.183,2.183,0,0,1-1.092-4.072l.186-.109a2.186,2.186,0,1,1,2.183,3.788l-.2.109A2.184,2.184,0,0,1,293.96,189.417Zm7.99-1.583a2.1,2.1,0,0,1-1.037-.262l-.186-.1a2.183,2.183,0,1,1,2.074-3.842l.2.1a2.183,2.183,0,0,1-1.092,4.1Z" transform="translate(16.046 18.3)"/><path class="g" d="M180.278,252.582a4.923,4.923,0,1,1,2.312-2.982A4.923,4.923,0,0,1,180.278,252.582Z" transform="translate(15.834 23.795)"/><path class="g" d="M396.592,289.248a4.923,4.923,0,1,0,6.746,1.725,4.923,4.923,0,0,0-6.746-1.725Z" transform="translate(36.095 27.932)"/><path class="h" d="M278.161,151.59l2.674-1.55v2.467l-2.685,1.561Z" transform="translate(25.47 15.248)"/><path class="h" d="M278.191,141.811l2.674-1.561-.011,2.478-2.674,1.561Z" transform="translate(25.473 14.352)"/><path class="h" d="M278.21,132.031l2.685-1.561-.011,2.478-2.674,1.55Z" transform="translate(25.476 13.456)"/><path class="h" d="M278.24,122.251l2.674-1.561v2.478l-2.674,1.55Z" transform="translate(25.479 12.561)"/><path class="h" d="M278.271,112.461l2.674-1.561v2.478l-2.685,1.561Z" transform="translate(25.48 11.664)"/><g transform="translate(296.361 109.272)"><path class="a" d="M271.5,100.488l2.729-1.55a2.281,2.281,0,0,1,2.3.218l-2.674,1.561A2.281,2.281,0,0,0,271.5,100.488Z" transform="translate(-271.5 -98.723)"/><g class="i"><g transform="translate(-0.044 -0.012)"><path class="a" d="M271.5,100.487l2.729-1.55a1.659,1.659,0,0,1,.589-.207l-2.773,1.561a1.506,1.506,0,0,0-.589.2" transform="translate(-271.46 -98.711)"/><path class="a" d="M272,100.292l2.674-1.561a2.466,2.466,0,0,1,.4,0l-2.674,1.55a2.434,2.434,0,0,0-.4,0" transform="translate(-271.411 -98.712)"/><path class="a" d="M272.41,100.271l2.674-1.55a1.932,1.932,0,0,1,.349,0l-2.674,1.55h-.349" transform="translate(-271.373 -98.713)"/><path class="a" d="M272.733,100.32l2.674-1.55.338.087-2.718,1.561a1.867,1.867,0,0,0-.327-.1" transform="translate(-271.346 -98.708)"/><path class="a" d="M273,100.411l2.685-1.561.317.142-2.674,1.55a2.052,2.052,0,0,0-.327-.131" transform="translate(-271.319 -98.7)"/><path class="a" d="M273.33,100.528,276,99a2.663,2.663,0,0,1,.306.153l-2.674,1.561c-.1-.065-.207-.109-.306-.164" transform="translate(-271.289 -98.686)"/></g></g></g><path class="a" d="M339.89,198.591l2.674-1.561,5,19.015-2.674,1.561Z" transform="translate(31.124 19.551)"/><path class="j" d="M278.15,153.861l2.685-1.561,66.619,38.467-2.685,1.561Z" transform="translate(25.47 15.455)"/><path class="k" d="M339.191,186.831l2.674-1.561v2.478l-2.685,1.561Z" transform="translate(31.059 18.474)"/><path class="l" d="M278.16,151.59l2.674-1.55L347.453,188.5l-2.674,1.561Z" transform="translate(25.471 15.248)"/><path class="j" d="M278.18,144.081l2.674-1.561,66.619,38.467-2.674,1.561Z" transform="translate(25.473 14.56)"/><path class="k" d="M339.221,177.04l2.674-1.55-.011,2.478-2.674,1.561Z" transform="translate(31.062 17.579)"/><path class="l" d="M278.19,141.811l2.674-1.561,66.619,38.467-2.674,1.55Z" transform="translate(25.474 14.352)"/><path class="m" d="M344.809,180.136l-.011,2.489L278.18,144.158l.011-2.478Z" transform="translate(25.473 14.483)"/><path class="j" d="M278.21,134.29l2.674-1.55L347.5,171.2l-2.674,1.561Z" transform="translate(25.476 13.664)"/><path class="k" d="M339.251,167.26l2.674-1.55-.011,2.467-2.674,1.561Z" transform="translate(31.064 16.683)"/><path class="l" d="M278.21,132.031l2.685-1.561,66.619,38.467-2.674,1.55Z" transform="translate(25.476 13.456)"/><path class="j" d="M278.24,124.51l2.674-1.55,66.619,38.456-2.674,1.561Z" transform="translate(25.479 12.768)"/><path class="l" d="M278.24,122.251l2.674-1.561,66.629,38.467-2.685,1.55Z" transform="translate(25.479 12.561)"/><path class="k" d="M339.27,157.48l2.685-1.55-.011,2.467-2.674,1.561Z" transform="translate(31.067 15.787)"/><path class="j" d="M278.26,114.731l2.685-1.561,66.619,38.467-2.674,1.55Z" transform="translate(25.48 11.872)"/><path class="k" d="M339.3,147.69l2.674-1.55v2.478l-2.674,1.55Z" transform="translate(31.07 14.891)"/><path class="m" d="M344.889,150.786v2.478L278.26,114.808l.011-2.478Z" transform="translate(25.48 11.795)"/><path class="l" d="M278.27,112.461l2.674-1.561,66.619,38.467-2.674,1.55Z" transform="translate(25.481 11.664)"/><path class="n" d="M350.731,144.96a7.106,7.106,0,0,1,3.275,5.578l-.164,57.58c0,2.041-1.452,2.871-3.275,1.845l-4.366-2.5,5,19.015-20.074-27.715L273.71,165.591A7.1,7.1,0,0,1,270.49,160l.164-57.569c0-2.052,1.452-2.882,3.275-1.845Z" transform="translate(24.769 10.679)"/><path class="o" d="M344.8,182.625l.011-2.489L278.191,141.68l-.011,2.478L344.8,182.625" transform="translate(25.473 14.483)"/><path class="o" d="M344.889,153.264v-2.478L278.271,112.33l-.011,2.478,66.629,38.456" transform="translate(25.48 11.795)"/><path class="n" d="M344.859,163.054v-2.478L278.24,122.12v2.467l66.619,38.467" transform="translate(25.479 12.691)"/><path class="n" d="M344.829,172.834l.011-2.478L278.21,131.9v2.467l66.619,38.467" transform="translate(25.476 13.587)"/><path class="n" d="M344.769,192.4l.011-2.478L278.161,151.46l-.011,2.478L344.769,192.4" transform="translate(25.47 15.378)"/><path class="o" d="M344.779,189.927l-.011,2.478L278.15,153.938l.011-2.478Z" transform="translate(25.47 15.378)"/><g transform="translate(377.683 217.291)"><path class="a" d="M348.631,199.7,346,201.3a2.183,2.183,0,0,0,.939-2.063l2.674-1.561a2.271,2.271,0,0,1-.982,2.019Z" transform="translate(-346 -197.68)"/><g class="p"><g transform="translate(0 -0.055)"><path class="a" d="M346.82,199.191l2.674-1.561v.011l-2.674,1.55h0" transform="translate(-345.925 -197.63)"/><path class="a" d="M346.821,199.19l2.674-1.55v.382l-2.685,1.561a2.305,2.305,0,0,0,0-.393" transform="translate(-345.926 -197.629)"/><path class="a" d="M346.8,199.551l2.685-1.561a1.171,1.171,0,0,1-.065.393l-2.674,1.55a.955.955,0,0,1,.055-.382" transform="translate(-345.931 -197.597)"/><path class="a" d="M346.762,199.9l2.674-1.55a2.434,2.434,0,0,1-.142.426l-2.674,1.561a4.1,4.1,0,0,0,.142-.437" transform="translate(-345.943 -197.564)"/><path class="a" d="M346.677,200.3l2.674-1.561a1.725,1.725,0,0,1-.72.862l-2.631,1.6a1.758,1.758,0,0,0,.72-.851" transform="translate(-346 -197.528)"/></g></g></g><path class="o" d="M344.839,170.356l-.011,2.478L278.21,134.367V131.9Z" transform="translate(25.476 13.587)"/><path class="o" d="M344.859,160.576v2.478L278.24,124.587V122.12Z" transform="translate(25.479 12.691)"/><path class="a" d="M346.984,146.44l2.674-1.55-.164,57.569-2.674,1.561Z" transform="translate(31.758 14.777)"/><path class="a" d="M273.61,100.681l2.674-1.561,76.857,44.372-2.674,1.561Z" transform="translate(25.055 10.585)"/><g transform="translate(375.5 154.078)"><path class="a" d="M344,141.331l2.674-1.561a7.1,7.1,0,0,1,3.22,5.589l-2.62,1.55A7.106,7.106,0,0,0,344,141.331Z" transform="translate(-344 -139.77)"/><g class="q"><path class="a" d="M344,141.331l2.674-1.561h0L344,141.331h0" transform="translate(-344 -139.77)"/><path class="a" d="M344.05,141.351l2.674-1.561a3.189,3.189,0,0,1,.349.229l-2.674,1.55-.349-.218" transform="translate(-343.995 -139.768)"/><path class="a" d="M344.37,141.55l2.674-1.55.371.284-2.674,1.561a4.374,4.374,0,0,0-.371-.295" transform="translate(-343.966 -139.749)"/><path class="a" d="M344.71,141.821l2.674-1.561a5.459,5.459,0,0,1,.448.426l-2.674,1.561c-.153-.153-.295-.295-.448-.426" transform="translate(-343.935 -139.725)"/><path class="a" d="M345.12,142.211l2.674-1.561a7.924,7.924,0,0,1,1.517,2.325l-2.674,1.561a7.641,7.641,0,0,0-1.517-2.325" transform="translate(-343.897 -139.689)"/><path class="a" d="M346.51,144.341l2.674-1.561c.087.207.164.4.229.611l-2.685,1.55a4.415,4.415,0,0,0-.218-.6" transform="translate(-343.77 -139.494)"/><path class="a" d="M346.71,144.89l2.685-1.55.131.48-2.674,1.561a1.67,1.67,0,0,0-.142-.491" transform="translate(-343.752 -139.443)"/><path class="a" d="M346.84,145.341l2.674-1.561a2.949,2.949,0,0,0,.087.426l-2.674,1.561a1.968,1.968,0,0,0-.087-.426" transform="translate(-343.74 -139.403)"/><path class="a" d="M346.92,145.731l2.674-1.561v.4l-2.587,1.594v-.4" transform="translate(-343.733 -139.367)"/><path class="a" d="M347,146.131l2.674-1.561v.382L347,146.469V146.1" transform="translate(-343.725 -139.33)"/></g></g><path class="g" d="M373.4,237.718a2.183,2.183,0,0,1-2.183-2.183v-.218a2.183,2.183,0,1,1,4.366,0v.218A2.183,2.183,0,0,1,373.4,237.718Zm0-8.951a2.183,2.183,0,0,1-2.183-2.183v-.218a2.183,2.183,0,1,1,4.366,0v.218a2.183,2.183,0,0,1-2.183,2.183Zm0-8.951a2.183,2.183,0,0,1-2.183-2.183v-.218a2.183,2.183,0,1,1,4.366,0v.218A2.183,2.183,0,0,1,373.4,219.816Zm0-8.951a2.183,2.183,0,0,1-2.183-2.183v-.218a2.183,2.183,0,1,1,4.366,0v.218a2.183,2.183,0,0,1-2.183,2.183Zm0-8.951a2.183,2.183,0,0,1-2.183-2.183v-.218a2.183,2.183,0,1,1,4.366,0v.218A2.183,2.183,0,0,1,373.4,201.914Zm0-8.951a2.183,2.183,0,0,1-2.183-2.183v-.218a2.183,2.183,0,1,1,4.366,0v.218a2.183,2.183,0,0,1-2.183,2.183Zm0-8.951a2.183,2.183,0,0,1-2.183-2.183v-.218a2.183,2.183,0,1,1,4.366,0v.218a2.183,2.183,0,0,1-2.183,2.183Zm0-8.951a2.183,2.183,0,0,1-2.183-2.183v-.218a2.183,2.183,0,1,1,4.366,0v.218a2.183,2.183,0,0,1-2.183,2.183Zm0-8.951a2.183,2.183,0,0,1-2.183-2.183v-.218a2.183,2.183,0,1,1,4.366,0v.218a2.183,2.183,0,0,1-2.183,2.183Zm0-8.951a2.183,2.183,0,0,1-2.183-2.183v-.218a2.183,2.183,0,1,1,4.366,0v.218a2.183,2.183,0,0,1-2.183,2.183Zm0-8.951a2.183,2.183,0,0,1-2.183-2.183v-.218a2.183,2.183,0,0,1,4.366,0v.218a2.183,2.183,0,0,1-2.183,2.183Zm0-8.951a2.183,2.183,0,0,1-2.183-2.183v-.218a2.183,2.183,0,1,1,4.366,0v.218a2.183,2.183,0,0,1-2.183,2.183Zm0-8.951a2.183,2.183,0,0,1-2.183-2.183v-.218a2.183,2.183,0,1,1,4.366,0v.218a2.183,2.183,0,0,1-2.183,2.183Zm0-8.951a2.183,2.183,0,0,1-2.183-2.183v-.218a2.183,2.183,0,1,1,4.366,0v.218a2.183,2.183,0,0,1-2.183,2.183Zm0-8.951a2.183,2.183,0,0,1-2.183-2.183V110a2.183,2.183,0,0,1,4.366,0v.218a2.183,2.183,0,0,1-2.183,2.183Zm0-8.951a2.183,2.183,0,0,1-2.183-2.183v-.218a2.183,2.183,0,0,1,4.366,0v.218a2.183,2.183,0,0,1-2.183,2.183Z" transform="translate(33.993 10.562)"/><path class="r" d="M387.038,315.61l-.055,17.793L358.81,370.156l.055-17.793Z" transform="translate(32.856 30.409)"/><path class="n" d="M392.865,315.9l-28.173,36.753L296.479,360.3c-4.29-12.673,2-26.3,18.9-36.109C336.278,312.04,367.279,309.278,392.865,315.9Z" transform="translate(27.029 30.115)"/><path class="s" d="M364.587,349.28l-.055,17.793-68.212,7.652.055-17.8Z" transform="translate(27.134 33.493)"/><g transform="translate(322.155 382.565)"><path class="b" d="M295.13,366.894v-17.8a24.168,24.168,0,0,0,1.31,7.848l-.055,17.8a24.245,24.245,0,0,1-1.255-7.848Z" transform="translate(-295.13 -349.09)"/><g class="t"><g transform="translate(0)"><path class="b" d="M296.484,356.938l-.055,17.8a24.246,24.246,0,0,1-1.3-7.848v-17.8a24.168,24.168,0,0,0,1.31,7.848" transform="translate(-295.13 -349.09)"/></g></g></g><g transform="translate(457.794 382.958)"><path class="c" d="M422.807,349.45v17.793a25.423,25.423,0,0,1-3.417,12.433V361.883a25.335,25.335,0,0,0,3.417-12.433Z" transform="translate(-419.39 -349.45)"/><g class="u"><path class="c" d="M422.807,349.45v17.793a25.423,25.423,0,0,1-3.417,12.433V361.883a25.335,25.335,0,0,0,3.417-12.433" transform="translate(-419.39 -349.45)"/></g></g><path class="v" d="M407.85,323.884c19.255,11.123,24.942,27.115,17.083,41.1L358.86,352.363l28.173-36.753A83.243,83.243,0,0,1,407.85,323.884Z" transform="translate(32.861 30.409)"/><path class="w" d="M424.937,361.9l-.044,17.793L358.81,367.073l.055-17.793Z" transform="translate(32.856 33.493)"/><g transform="translate(431.771 395.391)"><path class="d" d="M421.573,360.84v17.793c-3.275,5.8-8.842,11.243-16.777,15.85a72.54,72.54,0,0,1-9.246,4.508V381.2a75.742,75.742,0,0,0,9.257-4.508C412.731,372.083,418.32,366.636,421.573,360.84Z" transform="translate(-395.55 -360.84)"/><g class="x"><path class="d" d="M421.573,360.84v17.793c-3.275,5.8-8.842,11.243-16.777,15.85a72.54,72.54,0,0,1-9.246,4.508V381.2a75.742,75.742,0,0,0,9.257-4.508c7.925-4.606,13.514-10.053,16.767-15.85" transform="translate(-395.55 -360.84)"/></g></g><path class="y" d="M398.914,382.256l-.044,17.793L358.81,367.073l.055-17.793Z" transform="translate(32.856 33.493)"/><path class="a" d="M424.933,361.9c-3.275,5.8-8.842,11.243-16.767,15.85a75.742,75.742,0,0,1-9.257,4.508L358.86,349.28Z" transform="translate(32.861 33.493)"/><path class="z" d="M364.582,349.28l40.05,32.976c-27.049,11.025-64.73,9.529-89.039-4.508-10.239-5.905-16.646-13.186-19.223-20.827Z" transform="translate(27.139 33.493)"/><g transform="translate(323.498 390.414)"><path class="e" d="M404.633,381.615v17.793c-27.06,11.025-64.741,9.529-89.05-4.5-10.239-5.916-16.646-13.2-19.223-20.827l.055-17.8c2.576,7.641,8.984,14.922,19.223,20.827C339.9,391.145,377.584,392.64,404.633,381.615Z" transform="translate(-296.36 -356.28)"/><g class="aa"><path class="e" d="M404.633,381.615v17.793c-27.06,11.025-64.741,9.529-89.05-4.5-10.239-5.916-16.646-13.2-19.223-20.827l.055-17.8c2.576,7.641,8.984,14.922,19.223,20.827,24.309,14.038,61.99,15.533,89.039,4.508" transform="translate(-296.36 -356.28)"/></g></g><path class="ab" d="M381.274,259.637s-.164,9.289-1,16.985c-.491,4.443-1.266,9.573-1.474,10.7-.535,2.816-1.7,8.634-1.7,8.634a37.682,37.682,0,0,0,.1,4.017c.513,3.209,1.736,8.547-3.5,9.191-4.454.546-3.733-5.829-1.812-11.145.317-.884,0-6.277.218-10.577.207-5.054.72-6.211.917-11.811.262-7.03.36-16.548.36-16.548Z" transform="translate(33.915 25.233)"/><path class="n" d="M369.381,247s6.135.131,9.453,4.366c6.375,8.034,2.281,39.613-.1,40.388a3.275,3.275,0,0,1-2.762-1.856c-1.092-3.2,0-12.007-.153-17.094C376.793,252.7,368.967,252.731,369.381,247Z" transform="translate(33.823 24.127)"/><path class="ac" d="M355.317,339.816c13.535-1.5,27.016,2.467,30.127,8.842s-5.349,12.75-18.873,14.245-27.016-2.467-30.127-8.842S341.793,341.312,355.317,339.816Z" transform="translate(30.749 32.597)"/><path class="ad" d="M352.383,348.07c1.092.819,8.667,2.707,7.925,6.931s-15.566-.5-15.227-5.283C345.321,346.17,351.27,347.229,352.383,348.07Z" transform="translate(31.599 33.306)"/><path class="ad" d="M366.458,342.449c1.092.819,8.733,2.707,7.925,6.931s-15.566-.5-15.282-5.283C359.406,340.56,365.344,341.619,366.458,342.449Z" transform="translate(32.883 32.792)"/><path class="ad" d="M378.016,293.09s-3.351,57.613-4.825,59.676-4.868,1.583-6.32.36S364,293.461,364,293.461Z" transform="translate(33.332 28.347)"/><path class="ad" d="M365.266,293.43s-4.082,63.311-6.375,64.948a5.611,5.611,0,0,1-6.32.36c-1.692-1-2.4-64.9-2.4-64.9Z" transform="translate(32.065 28.378)"/><path class="n" d="M360.138,246.762s-8.733.939-11.09,9.289c-2.456,8.656.186,41.4.207,42.637s4.454,6.637,17.738,5.709c12.651-.884,14.321-4.508,14.278-6.7,0-1.79-1.845-7.182-1.092-14.616,1.244-11.418,2.183-26.372.688-30.87C378.378,244.84,365.465,245.081,360.138,246.762Z" transform="translate(31.867 24.016)"/><path class="ae" d="M361.26,240.18s-.535,6.811.688,7.445c3.679,1.878,7.859-.426,7.859-.426l.5-8.329Z" transform="translate(33.07 23.382)"/><path class="af" d="M357.419,226.262s-4.89,18.448,1.583,19.812c4.868,1.026,13.339-1.223,13.961-7.881s4.443-14.19-.186-14.507S357.124,221.743,357.419,226.262Z" transform="translate(32.567 21.942)"/><path class="ad" d="M355.719,228.883a18.557,18.557,0,0,0,3.209,3.591c1.485,1.092.557,4.235.7,5.207s4.508,1.146,4.541,3.209-2.816,5.753,3.275,6.135c2.6.164,7.75-1.375,8.176-4.628s3.155-5.807,3.362-9.89c.458-8.984-5.2-12.9-10.414-13.175S352.935,222.006,355.719,228.883Z" transform="translate(32.531 21.592)"/><path class="af" d="M360.738,235.838s1.583-3.428,3.6-1.812,0,7.368-2.565,6.2S360.738,235.838,360.738,235.838Z" transform="translate(32.991 22.899)"/><path class="a" d="M370.339,244.46a10.85,10.85,0,0,1-4.6,1.233c-2.489,0-3.766-1.092-4.606-.688a7,7,0,0,0-2.347,2.118c-.109.371,2.041,2.336,5.873,2.511s7.368-1.932,7.183-2.478S371.3,244.384,370.339,244.46Z" transform="translate(32.854 23.894)"/><path class="n" d="M355.038,249.77s6.2-2.238,5.807,6.844-2.838,27.737-3.569,31.841-.884,11.32-1.594,11.691-2.554,1.288-3.82.6-3.711-9.377-3.711-9.377Z" transform="translate(31.88 24.358)"/><path class="af" d="M357.217,262.358s-.469,9.278-1.561,16.941c-.633,4.432-1.583,9.529-1.823,10.654-.633,2.794-1.987,8.569-1.987,8.569a37.054,37.054,0,0,0,0,4.028c.415,3.22,1.452,8.591-3.8,9.06-4.475.4-3.548-5.938-1.452-11.2.349-.862.251-6.266.568-10.566.371-5.043.928-6.178,1.31-11.767.48-7.019.9-16.526.9-16.526Z" transform="translate(31.578 25.459)"/><path class="n" d="M350.581,252.085c1.768-2.27,9.682-3.864,9.5.8s-3.275,46.3-5.065,47.09a14.921,14.921,0,0,1-6.266.666,5.349,5.349,0,0,1-4.235-2.827C343.573,296.359,347.6,255.928,350.581,252.085Z" transform="translate(31.534 24.39)"/><path class="ag" d="M376.645,61.129l-1.6-.939L398.629,69.2l1.616.939Z" transform="translate(34.343 7.021)"/><path class="z" d="M376.51,64.085,399.979,27.91l.131,45.18Z" transform="translate(34.477 4.065)"/><path class="ah" d="M376.645,64.163l-1.6-.939L398.5,27.05l1.616.939Z" transform="translate(34.343 3.986)"/><path class="ai" d="M371.616,69.588,370,68.661l5.5-8.471,1.6.939Z" transform="translate(33.881 7.021)"/><path class="ag" d="M366.565,66.959l-1.615-.939,5.512,2.107,1.616.928Z" transform="translate(33.419 7.554)"/><path class="v" d="M379.4,61.05,403,70.055,344.93,103.578,368.4,67.414l5.512,2.1Z" transform="translate(31.585 7.099)"/><path class="ai" d="M345.066,103.122l-1.616-.939L366.919,66.02l1.615.939Z" transform="translate(31.45 7.554)"/><path class="aj" d="M344.946,58.709l-1.616-.939,23.6,9.005,1.615.939Z" transform="translate(31.439 6.799)"/><path class="z" d="M344.81,58.63l23.6,9.005L344.941,103.8Z" transform="translate(31.574 6.878)"/><path class="v" d="M345.077,103.878l-1.616-.939L343.33,57.77l1.616.939Z" transform="translate(31.439 6.799)"/><path class="a" d="M402.882,27.91,379.413,64.085l-5.491,8.46-5.512-2.1-23.6-9.005Z" transform="translate(31.574 4.065)"/><path class="v" d="M344.946,61.522l-1.616-.939L401.4,27.05l1.616.939Z" transform="translate(31.439 3.986)"/><circle class="g" cx="5.054" cy="5.054" r="5.054" transform="translate(402.342 103.964)"/><path class="b" d="M231.231,286.562,212.106,275.45l-.2-69.02,19.124,11.112Z" transform="translate(19.405 20.412)"/><path class="n" d="M231.034,218.454,211.91,207.342l18.83-10.872,19.135,11.112Z" transform="translate(19.405 19.5)"/><path class="ak" d="M248.271,206.65l.186,69.02-18.83,10.872-.2-69.02Z" transform="translate(21.009 20.432)"/><path class="e" d="M253.339,298.736l-19.124-11.112-.175-61.914,19.124,11.112Z" transform="translate(21.431 22.177)"/><path class="z" d="M253.164,237.734,234.04,226.622l18.841-10.872L272,226.862Z" transform="translate(21.431 21.265)"/><path class="al" d="M270.4,225.93l.175,61.9-18.84,10.883L251.56,236.8Z" transform="translate(23.035 22.197)"/><path class="d" d="M276.173,310.159l-19.124-11.112-.109-39.537,19.124,11.112Z" transform="translate(23.528 25.272)"/><path class="a" d="M276.064,271.534,256.94,260.422l18.841-10.872L294.9,260.662Z" transform="translate(23.528 24.36)"/><path class="am" d="M293.3,259.73l.109,39.526-18.841,10.883L274.46,270.6Z" transform="translate(25.132 25.292)"/><path class="c" d="M298.928,321.539,279.8,310.416l-.044-14.736,19.124,11.112Z" transform="translate(25.618 28.584)"/><path class="v" d="M298.884,307.705,279.76,296.593l18.83-10.883,19.124,11.112Z" transform="translate(25.618 27.671)"/><path class="an" d="M316.11,295.89l.044,14.747-18.83,10.883-.044-14.747Z" transform="translate(27.222 28.604)"/><path class="ao" d="M166.064,271.747,156.5,266.18,62.78,320.289l9.573,5.567Z" transform="translate(5.749 25.883)"/><path class="ap" d="M157.713,95.636,148.14,90.08l.546,192.226,9.562,5.567Z" transform="translate(13.565 9.758)"/><path class="aq" d="M165.575,95.636,156,90.08l-93.722,54.1,9.573,5.567Z" transform="translate(5.703 9.758)"/><path class="ar" d="M71.853,145.207,62.28,139.64l.546,192.236,9.573,5.567Z" transform="translate(5.703 14.296)"/><path class="n" d="M71.05,149.279,71.6,341.516l93.711-54.109L164.772,95.17Z" transform="translate(6.506 10.224)"/><path class="ad" d="M169.278,76.306c2.663-1.539,4.825-.306,4.836,2.751l.644,229.23a10.577,10.577,0,0,1-4.8,8.318L68.57,375.123c-2.653,1.528-4.825.295-4.825-2.762l-.655-229.23a10.6,10.6,0,0,1,4.792-8.318Zm-96.953,267,93.711-54.109L165.49,96.958,71.779,151.067,72.325,343.3m52-232.5-11.44,6.615A4.126,4.126,0,0,0,111,120.689c0,1.2.851,1.681,1.9,1.092l11.44-6.549a4.192,4.192,0,0,0,1.888-3.275c0-1.19-.851-1.681-1.9-1.092" transform="translate(5.777 8.436)"/><path class="g" d="M118.81,299.087a16.57,16.57,0,0,0-7.51,13c0,4.781,3.406,6.713,7.554,4.312a16.57,16.57,0,0,0,7.51-13.012C126.342,298.617,122.98,296.685,118.81,299.087Z" transform="translate(10.192 28.802)"/><path class="g" d="M108.868,114.5a4.126,4.126,0,0,0-1.888,3.275c0,1.2.851,1.681,1.9,1.092l11.44-6.549a4.192,4.192,0,0,0,1.888-3.275c0-1.19-.851-1.681-1.9-1.092Z" transform="translate(9.796 11.371)"/><path class="as" d="M54.35,137.481a5.928,5.928,0,0,1,.065-.6h0a5.9,5.9,0,0,1,.131-.633,1.78,1.78,0,0,1,.12-.458.906.906,0,0,0,0-.164v-.1a9.05,9.05,0,0,1,.338-.906v-.076l.131-.273a7.791,7.791,0,0,1,.4-.8,3.677,3.677,0,0,1,.207-.349c.142-.24.284-.458.437-.677a3.777,3.777,0,0,1,.24-.338c.175-.229.371-.458.557-.666l.2-.229h.055a7.137,7.137,0,0,1,.666-.622.294.294,0,0,1,.087-.076l.142-.109.317-.251.513-.338h0L160.505,71.2l.448-.229h0a1.19,1.19,0,0,1,.251-.1l.218-.1h0l.349-.109h.12l.491-.065h.065a3.277,3.277,0,0,1,.458,0h.218l.295.076h.131l.382.175,9.573,5.567a1.726,1.726,0,0,0-.382-.175h-.142a2.183,2.183,0,0,0-.284-.065h-.153a3.023,3.023,0,0,0-.448,0H172a2.685,2.685,0,0,0-.491.076h-.142l-.338.1-.24.1-.24.1-.469.251-101.4,58.5a7.433,7.433,0,0,0-.873.611l-.142.109a8.828,8.828,0,0,0-.808.764l-.2.218a8.335,8.335,0,0,0-.557.677l-.24.327c-.153.218-.306.448-.448.677l-.207.349c-.142.262-.273.535-.4.808,0,.087-.087.175-.12.262a10.1,10.1,0,0,0-.4,1.092,1.092,1.092,0,0,1,0,.153,7.872,7.872,0,0,0-.251,1.092h0a7.357,7.357,0,0,0-.1,1.179l.655,229.23a5.229,5.229,0,0,0,.087.961s0,.087,0,.131a4.018,4.018,0,0,0,.251.8.609.609,0,0,0,0,.087,2.739,2.739,0,0,0,.393.622h0a2.39,2.39,0,0,0,.546.458L56.3,370.346a2.184,2.184,0,0,1-.557-.458h0a2.665,2.665,0,0,1-.393-.611v-.087a.47.47,0,0,0,0-.076,3.7,3.7,0,0,1-.2-.644h0v-.076a.545.545,0,0,0,0-.131v-.371a5,5,0,0,1,0-.578h0l-.644-229.23A3.33,3.33,0,0,1,54.35,137.481Z" transform="translate(4.977 7.973)"/><path class="g" d="M85.37,152.4v2.685l-.273.142a5.611,5.611,0,0,0-2.794,4.847v5.774l-2.183,1.244V155.631l2.183-1.244v1.943A6.811,6.811,0,0,1,85.37,152.4Z" transform="translate(7.337 15.464)"/><path class="g" d="M95.984,152.324a9,9,0,0,1-.076,1.092L87.96,158c.349,1.594,1.6,1.779,3.2.862a6.418,6.418,0,0,0,2.576-2.9l1.779.164a10.752,10.752,0,0,1-4.366,5.021c-3.275,1.91-5.458.546-5.458-2.893a11.1,11.1,0,0,1,5.25-9.082C93.931,147.434,95.973,149.049,95.984,152.324Zm-8.045,3.657L93.8,152.6c-.306-1.8-1.561-1.921-2.849-1.179a6.408,6.408,0,0,0-3.013,4.563" transform="translate(7.847 15.104)"/><path class="g" d="M97.755,152.887c.819-.469,1.5-.1,1.5.862a3.275,3.275,0,0,1-1.485,2.554c-.841.48-1.5.076-1.5-.862a3.275,3.275,0,0,1,1.485-2.554Z" transform="translate(8.815 15.49)"/><path class="g" d="M97.746,148.455c-.84.491-1.5.087-1.506-.862a3.275,3.275,0,0,1,1.5-2.576c.819-.469,1.5-.1,1.5.862a3.275,3.275,0,0,1-1.485,2.576Z" transform="translate(8.813 14.77)"/><path class="g" d="M105.7,136.393c.164-.1.338-.186.513-.273v2.38l-.415.218a3.635,3.635,0,0,0-1.921,3.406v.229L106.226,141v2.38l-2.336,1.343V153.8l-2.183,1.255v-9.082l-1.517.873v-2.38l1.517-.873v-.24a7.728,7.728,0,0,1,4-6.964Z" transform="translate(9.174 13.973)"/><path class="g" d="M114.791,135.874l2.183-1.244v11.461l-2.183,1.233v-1.648a8.645,8.645,0,0,1-3.482,3.973c-2.707,1.561-4.978.229-4.988-3.166a11.189,11.189,0,0,1,4.956-8.907c1.55-.9,2.729-.84,3.493-.076ZM111.669,147.1a6.724,6.724,0,0,0,3.133-5.458c0-2.183-1.364-2.893-3.155-1.856a6.713,6.713,0,0,0-3.144,5.458c0,2.129,1.364,2.882,3.166,1.845" transform="translate(9.736 13.837)"/><path class="g" d="M123.05,130.621c1.954-1.092,3.657-.939,4.454.393l-1.845,2.27c-.448-.819-1.419-.939-2.62-.251a6.637,6.637,0,0,0-3.078,5.392c0,2.052,1.343,2.816,3.1,1.812a6.451,6.451,0,0,0,2.653-3.275l1.856.131a10.916,10.916,0,0,1-4.486,5.578c-3.013,1.747-5.272.4-5.283-2.98A11.232,11.232,0,0,1,123.05,130.621Z" transform="translate(10.787 13.404)"/><path class="g" d="M131.594,122.9v3.209l2.467-1.43v2.38l-2.456,1.408v5.458c0,1.157.524,1.092,1.561.491l.917-.568v2.183a15.094,15.094,0,0,1-1.354.9c-2.314,1.332-3.275.742-3.275-1.79v-5.512l-1.845,1.092v-2.249l1.834-1.092V124.9Z" transform="translate(11.685 12.763)"/><path class="g" d="M139.74,120.993c2.925-1.7,5.272-.426,5.283,2.991a11.407,11.407,0,0,1-5.25,9.071c-2.914,1.681-5.283.4-5.283-2.991A11.407,11.407,0,0,1,139.74,120.993Zm0,9.649a6.691,6.691,0,0,0,3.111-5.458c0-2.085-1.375-2.838-3.133-1.834a6.691,6.691,0,0,0-3.1,5.458c0,2.074,1.364,2.827,3.122,1.812" transform="translate(12.315 12.52)"/><path class="g" d="M151.08,114.47v2.674l-.262.153a5.523,5.523,0,0,0-2.794,4.836v5.774l-2.183,1.244V117.69l2.183-1.244v1.878A6.746,6.746,0,0,1,151.08,114.47Z" transform="translate(13.355 11.991)"/><path class="at" d="M89.26,205.714l.458-.4Z" transform="translate(8.174 20.309)"/><path class="at" d="M88.619,206.21l-.229.164Z" transform="translate(8.094 20.392)"/><path class="at" d="M85.7,208.12a8.9,8.9,0,0,1-4.268.731,8.9,8.9,0,0,0,4.268-.731Z" transform="translate(7.457 20.567)"/><path class="f" d="M92.19,202.735l.065-.076.306-.382.546-.742v-.055A14.159,14.159,0,0,1,92.19,202.735Z" transform="translate(8.442 19.958)"/><path class="f" d="M84.351,199A18.7,18.7,0,0,0,81,206.281,18.7,18.7,0,0,1,84.351,199Z" transform="translate(7.417 19.731)"/><path class="f" d="M91.12,203.962l.349-.382.306-.349.2-.24C91.7,203.317,91.415,203.645,91.12,203.962Z" transform="translate(8.344 20.097)"/><path class="n" d="M92.084,205.458c.295-.317.579-.644.851-.971l.317-.393c.327-.4.644-.83.95-1.255l.109-.153c-.175-4.072-2.183-6.386-4.857-6.025a11.036,11.036,0,0,0,2.052-6.156c0-3.176-1.867-4.694-4.126-3.384s-4.093,4.945-4.093,8.121c0,2.129.841,3.5,2.074,3.788a12.244,12.244,0,0,0-.971,1.092,18.7,18.7,0,0,0-3.351,7.292,17.313,17.313,0,0,0-.448,3.275h0a5.8,5.8,0,0,0,.655.131h.306a8.951,8.951,0,0,0,4.279-.731l.24-.1.48-.229.229-.109.24-.12.251-.142.218-.12.262-.153.24-.153.218-.142.262-.164.448-.317.229-.175a21,21,0,0,0,2.631-2.336h0Z" transform="translate(7.38 18.6)"/><path class="n" d="M90.81,204.233l.262-.273-.229.24Z" transform="translate(8.315 20.186)"/><path class="o" d="M90.671,204.44c-.317.327-.644.633-.971.928C90.027,205.051,90.355,204.767,90.671,204.44Z" transform="translate(8.214 20.23)"/><path class="o" d="M93.046,201.53l-.546.742Z" transform="translate(8.47 19.963)"/><path class="o" d="M91.146,203.912l-.306.327.229-.24.426-.469Z" transform="translate(8.318 20.146)"/><path class="o" d="M91.746,203.21l-.306.349Z" transform="translate(8.373 20.117)"/><path class="o" d="M92.556,202.21l-.306.382Z" transform="translate(8.447 20.025)"/><path class="o" d="M93,201.546l.142-.2h0l-.109.153Z" transform="translate(8.516 19.947)"/><path class="o" d="M90.819,204.221l-.229.24.24-.251h0Z" transform="translate(8.295 20.208)"/><path class="o" d="M81.438,207.88a18.7,18.7,0,0,1,3.351-7.281,12.236,12.236,0,0,1,.971-1.092c-1.233-.284-2.063-1.659-2.074-3.788,0-3.176,1.823-6.811,4.093-8.121s4.115.207,4.126,3.384a11.036,11.036,0,0,1-2.052,6.156c2.7-.36,4.683,1.954,4.857,6.025a24.4,24.4,0,0,0,4.672-13.415c0-7.357-5.218-10.315-11.614-6.626S76.2,195.764,76.22,203.11c0,4.366,1.878,7.215,4.727,7.99h0a17.313,17.313,0,0,1,.491-3.22Z" transform="translate(6.979 18.132)"/><path class="o" d="M91.916,203.039l-.2.24c.2-.24.393-.469.579-.71l-.065.076Z" transform="translate(8.399 20.058)"/><path class="f" d="M84.351,235.88A18.819,18.819,0,0,0,81,243.161,18.819,18.819,0,0,1,84.351,235.88Z" transform="translate(7.417 23.109)"/><path class="f" d="M82.38,245.72a8.735,8.735,0,0,0,2.1-.36,8.8,8.8,0,0,1-2.1.36Z" transform="translate(7.544 23.977)"/><path class="f" d="M82.423,245.69a7.482,7.482,0,0,1-.993,0A7.482,7.482,0,0,0,82.423,245.69Z" transform="translate(7.457 24.007)"/><path class="f" d="M91.13,240.82c.109-.12.229-.24.338-.371l.306-.349.186-.229C91.687,240.187,91.414,240.514,91.13,240.82Z" transform="translate(8.345 23.474)"/><path class="f" d="M92.2,239.6v-.076l.306-.393.535-.72h0A10.059,10.059,0,0,1,92.2,239.6Z" transform="translate(8.443 23.34)"/><path class="au" d="M82.463,245.742h0a7.482,7.482,0,0,1-.993,0,8.58,8.58,0,0,0,3.973-.622,7.628,7.628,0,0,1-.84.295A8.733,8.733,0,0,1,82.463,245.742Z" transform="translate(7.46 23.955)"/><path class="n" d="M92.1,242.316c.284-.306.557-.633.83-.95l.338-.4c.317-.4.633-.819.939-1.244l.109-.164c-.175-4.061-2.183-6.375-4.857-6.015a11.036,11.036,0,0,0,2.052-6.167c0-3.176-1.867-4.683-4.126-3.373s-4.093,4.934-4.093,8.11c0,2.183.84,3.5,2.074,3.788-.338.349-.655.72-.971,1.092a18.818,18.818,0,0,0-3.351,7.3,17.193,17.193,0,0,0-.448,3.22h0a5.8,5.8,0,0,0,.655.131h.262a7.493,7.493,0,0,0,.993,0h0a8.8,8.8,0,0,0,2.1-.36,7.641,7.641,0,0,0,.841-.295l.306-.109.24-.1.48-.218.229-.12.24-.12.251-.142.218-.12.262-.153.24-.153.218-.142.262-.164.448-.317.229-.164a22.779,22.779,0,0,0,2.631-2.336h0Z" transform="translate(7.38 21.977)"/><path class="n" d="M90.8,241.115l.273-.295-.229.251Z" transform="translate(8.315 23.561)"/><path class="o" d="M91.157,240.771l-.317.338.229-.251.426-.458C91.386,240.531,91.266,240.651,91.157,240.771Z" transform="translate(8.318 23.522)"/><path class="o" d="M91.746,240.08l-.306.349Z" transform="translate(8.373 23.493)"/><path class="o" d="M92.556,239.07l-.306.393Z" transform="translate(8.447 23.401)"/><path class="o" d="M93,238.427l.153-.207h0l-.109.164Z" transform="translate(8.516 23.323)"/><path class="o" d="M90.671,241.31c-.317.317-.633.633-.961.928C90.027,241.943,90.354,241.627,90.671,241.31Z" transform="translate(8.215 23.606)"/><path class="o" d="M93.045,238.41l-.535.72Z" transform="translate(8.471 23.34)"/><path class="o" d="M81.434,244.76a18.819,18.819,0,0,1,3.395-7.281,11.906,11.906,0,0,1,.971-1.092c-1.233-.284-2.063-1.648-2.074-3.788,0-3.176,1.823-6.8,4.093-8.11s4.115.2,4.126,3.373a11.036,11.036,0,0,1-2.052,6.167c2.7-.36,4.683,1.954,4.857,6.015a24.4,24.4,0,0,0,4.672-13.415c0-7.346-5.218-10.315-11.614-6.626S76.238,232.654,76.26,240c0,4.366,1.878,7.215,4.727,8h0a17.193,17.193,0,0,1,.448-3.242Z" transform="translate(6.983 21.509)"/><path class="o" d="M91.906,239.91l-.186.229c.2-.24.393-.469.579-.71v.076Z" transform="translate(8.399 23.434)"/><path class="o" d="M90.819,241.1l-.229.229.229-.24h0Z" transform="translate(8.295 23.586)"/><path class="au" d="M89.26,242.583l.448-.393Z" transform="translate(8.174 23.686)"/><path class="au" d="M88.89,242.863l.2-.153Z" transform="translate(8.14 23.734)"/><path class="au" d="M88.82,242.915l.076-.065Z" transform="translate(8.133 23.747)"/><path class="au" d="M88.619,243.08l-.229.175Z" transform="translate(8.094 23.768)"/><path class="av" d="M89.26,279.453l.448-.393Z" transform="translate(8.174 27.063)"/><path class="f" d="M92.2,276.47l.065-.076.295-.382c.186-.24.36-.48.535-.731h0C92.833,275.651,92.517,276.066,92.2,276.47Z" transform="translate(8.443 26.716)"/><path class="f" d="M82.423,282.56a5.007,5.007,0,0,1-.993,0A5.007,5.007,0,0,0,82.423,282.56Z" transform="translate(7.457 27.383)"/><path class="f" d="M91.13,277.69c.109-.12.229-.24.338-.371l.295-.338.2-.24C91.687,277.024,91.414,277.384,91.13,277.69Z" transform="translate(8.345 26.85)"/><path class="f" d="M82.38,282.59a8.2,8.2,0,0,0,2.1-.36A8.284,8.284,0,0,1,82.38,282.59Z" transform="translate(7.544 27.353)"/><path class="f" d="M83.456,273.91A19.475,19.475,0,0,0,81,279.925,19.474,19.474,0,0,1,83.456,273.91Z" transform="translate(7.417 26.591)"/><path class="av" d="M82.463,282.611h0a5.007,5.007,0,0,1-.993,0A8.526,8.526,0,0,0,85.323,282c-.229.087-.469.175-.71.24A8.2,8.2,0,0,1,82.463,282.611Z" transform="translate(7.46 27.332)"/><path class="n" d="M90.8,278.024a3.354,3.354,0,0,0,.273-.284l-.24.251Z" transform="translate(8.315 26.942)"/><path class="n" d="M92.1,279.186c.284-.306.557-.622.83-.95.109-.131.229-.262.338-.4.317-.4.633-.819.939-1.244l.109-.164c-.175-4.05-2.183-6.375-4.857-6.015a11,11,0,0,0,2.052-6.156c0-3.176-1.867-4.694-4.126-3.384s-4.093,4.945-4.093,8.121c0,2.183.84,3.493,2.074,3.788a15.283,15.283,0,0,0-1.867,2.369,19.473,19.473,0,0,0-2.456,6.015,17.313,17.313,0,0,0-.448,3.22h0l.655.142h.306a5.009,5.009,0,0,0,.993,0h0a8.286,8.286,0,0,0,2.1-.36c.24-.065.48-.153.71-.24l.437-.153.24-.109.48-.218.229-.12.24-.12.251-.142.218-.12.262-.153.24-.153.218-.142.262-.164.448-.317.229-.164a21.829,21.829,0,0,0,2.631-2.238h0Z" transform="translate(7.38 25.354)"/><path class="o" d="M92.555,276l-.295.382Z" transform="translate(8.448 26.782)"/><path class="o" d="M93.045,275.28c-.175.251-.349.491-.535.731A5.427,5.427,0,0,0,93.045,275.28Z" transform="translate(8.471 26.716)"/><path class="o" d="M91.735,277l-.295.338Z" transform="translate(8.373 26.874)"/><path class="o" d="M93,275.3a2.529,2.529,0,0,0,.153-.207h0l-.109.164Z" transform="translate(8.516 26.699)"/><path class="o" d="M90.671,278.19c-.317.317-.633.622-.961.917C90.027,278.812,90.354,278.507,90.671,278.19Z" transform="translate(8.215 26.983)"/><path class="o" d="M91.157,277.641l-.327.349.24-.251.426-.469C91.387,277.4,91.267,277.521,91.157,277.641Z" transform="translate(8.317 26.899)"/><path class="o" d="M90.819,278l-.229.24.229-.251h0Z" transform="translate(8.295 26.965)"/><path class="o" d="M91.906,276.78l-.2.24.6-.72-.065.076C92.136,276.518,92.027,276.649,91.906,276.78Z" transform="translate(8.398 26.81)"/><path class="o" d="M81.434,281.631a19.473,19.473,0,0,1,2.5-6.015,15.281,15.281,0,0,1,1.867-2.369c-1.233-.295-2.063-1.659-2.074-3.788,0-3.177,1.823-6.811,4.093-8.121s4.115.207,4.126,3.384a11,11,0,0,1-2.052,6.156c2.7-.36,4.683,1.965,4.857,6.015a24.364,24.364,0,0,0,4.672-13.415c0-7.346-5.218-10.315-11.614-6.615s-11.571,12.64-11.549,20c0,4.366,1.878,7.2,4.727,7.99h0a17.314,17.314,0,0,1,.448-3.22Z" transform="translate(6.983 24.884)"/><path class="g" d="M150.245,143.01l.011.862L132.78,153.958V153.1Z" transform="translate(12.159 14.604)"/><path class="g" d="M150.255,146.95l.011.841L132.79,157.877v-.841Z" transform="translate(12.16 14.965)"/><path class="g" d="M150.3,158.74v.851L132.83,169.678v-.851Z" transform="translate(12.163 16.045)"/><path class="g" d="M150.336,171.58v.851L132.86,182.518v-.851Z" transform="translate(12.166 17.221)"/><path class="g" d="M150.305,162.67v.851L132.84,173.608v-.851Z" transform="translate(12.164 16.405)"/><path class="g" d="M150.286,154.81v.851l-17.465,10.086-.011-.851Z" transform="translate(12.161 15.685)"/><path class="g" d="M150.276,150.87v.862l-17.465,10.086-.011-.862Z" transform="translate(12.161 15.324)"/><path class="au" d="M132.283,151.8v2.139l-5.512,3.187-.011-2.139Z" transform="translate(11.607 15.409)"/><path class="g" d="M137.637,195.09l.011.851-4.737,2.729v-.84Z" transform="translate(12.171 19.373)"/><path class="g" d="M142.263,200.52v.851l-9.333,5.381V205.9Z" transform="translate(12.172 19.871)"/><path class="g" d="M150.385,192.28l.011.851L132.92,203.218v-.851Z" transform="translate(12.172 19.116)"/><path class="g" d="M150.365,184.42v.851L132.9,195.358v-.851Z" transform="translate(12.17 18.396)"/><path class="g" d="M142.213,183.75v.841l-9.322,5.392-.011-.851Z" transform="translate(12.168 18.335)"/><path class="g" d="M150.346,175.51v.851l-17.465,10.086-.011-.851Z" transform="translate(12.167 17.58)"/><path class="g" d="M150.315,167.65l.011.851L132.85,178.588v-.851Z" transform="translate(12.165 16.861)"/><path class="at" d="M132.353,176.43v2.139l-5.512,3.187-.011-2.139Z" transform="translate(11.614 17.665)"/><path class="av" d="M132.392,193.21l.011,2.129-5.523,3.176V196.4Z" transform="translate(11.618 19.201)"/><path class="z" d="M124.41,155.112l29.156-16.832.186,65.2L124.6,220.311Z" transform="translate(11.392 14.171)"/><path class="o" d="M150.3,159.591v-.851L132.83,168.826v.851L150.3,159.591" transform="translate(12.163 16.045)"/><path class="o" d="M150.336,172.431v-.851L132.86,181.666v.851l17.476-10.086" transform="translate(12.166 17.221)"/><path class="o" d="M150.276,151.732v-.862L132.8,160.956l.011.862,17.465-10.086" transform="translate(12.161 15.324)"/><path class="o" d="M150.256,143.872l-.011-.862L132.78,153.1v.862l17.476-10.086" transform="translate(12.159 14.604)"/><path class="o" d="M150.266,147.791l-.011-.841L132.79,157.036v.841l17.476-10.086" transform="translate(12.16 14.965)"/><path class="o" d="M150.4,193.131l-.011-.851L132.92,202.366v.851L150.4,193.131" transform="translate(12.172 19.116)"/><path class="o" d="M150.365,185.271v-.851L132.9,194.506v.851l17.465-10.086" transform="translate(12.17 18.396)"/><path class="o" d="M150.286,155.661v-.851L132.81,164.9l.011.851,17.465-10.086" transform="translate(12.161 15.685)"/><path class="o" d="M150.305,163.521v-.851L132.84,172.756v.851l17.465-10.086" transform="translate(12.164 16.405)"/><path class="o" d="M150.326,168.5l-.011-.851L132.85,177.736v.851L150.326,168.5" transform="translate(12.165 16.861)"/><path class="o" d="M150.346,176.361v-.851L132.87,185.6l.011.851,17.465-10.086" transform="translate(12.167 17.58)"/><path class="o" d="M132.353,178.569V176.43l-5.523,3.187.011,2.139,5.512-3.187" transform="translate(11.614 17.665)"/><path class="o" d="M132.283,153.939V151.8l-5.523,3.187.011,2.139,5.512-3.187" transform="translate(11.607 15.409)"/><path class="o" d="M132.4,195.339l-.011-2.129L126.88,196.4v2.118l5.523-3.176" transform="translate(11.618 19.201)"/><path class="o" d="M142.263,201.371v-.851L132.93,205.9v.851l9.333-5.381" transform="translate(12.172 19.871)"/><path class="o" d="M132.88,189.131l.011.851,9.322-5.392v-.841l-9.333,5.381" transform="translate(12.168 18.335)"/><path class="o" d="M132.91,197.83v.84l4.737-2.729-.011-.851-4.727,2.74" transform="translate(12.171 19.373)"/><path class="ad" d="M133.529,244.66,119,245.031l2.838,51.216,8.252-4.77C131.957,276.687,133.529,244.66,133.529,244.66Z" transform="translate(10.897 23.913)"/><path class="ad" d="M104.77,245.415l2.489,59.556.535.142,7.03-4.061C117.214,288.161,120.3,245,120.3,245Z" transform="translate(9.594 23.944)"/><path class="af" d="M127.62,210.557l6.342,17.76s13.426,2.925,15.533,3.275,7.75,8,13.579,4.475.775-5.458-2.456-5.927-4.454-1.452-3-1.976,4.366.906,4.432-.5-3.941-2.576-6.189-1.888a15.074,15.074,0,0,1-6.266.393c-1.616-.218-11.341-5.1-11.341-5.1L136.374,210Z" transform="translate(11.686 20.739)"/><path class="aw" d="M148.522,229.225c.229-1.026,1.681-1.91,1.681-1.91l-10.916-5.731s-3.176-15.282-5.523-19.714c-2.674-5.043-9.7-5.25-9.7-5.25-.24,3.078,9.54,33.107,10.086,33.151s15.151,3.187,15.151,3.187S147.8,232.456,148.522,229.225Z" transform="translate(11.36 19.513)"/><path class="v" d="M135.067,227.6a86.234,86.234,0,0,1-1.092-10.555c-.1-2.816-.71-12.116-2.707-16.308-1.321-2.751-2.423-3.089-3.384-3.526a19.429,19.429,0,0,0-3.864-.633c-.24,3.078,9.54,33.107,10.086,33.151s13.284,2.784,14.965,3.144C145.885,231.969,135.373,228.8,135.067,227.6Z" transform="translate(11.356 19.51)"/><path class="aw" d="M115.318,196.122s-9.911,1.965-11.527,10.152c-1.812,9.1-.513,42.669-.513,43.947s4.486,6.91,18.2,6.178c13.1-.7,14.834-4.366,14.834-6.669,0-4.727-.862-40.683-3.155-48.378C131.4,195.271,120.874,194.485,115.318,196.122Z" transform="translate(9.416 19.4)"/><path class="n" d="M123.282,198.1l-4.792,1.386s1.888,6.309,3.526,6.691a2.008,2.008,0,0,0,2.27-.633S124.417,198.1,123.282,198.1Z" transform="translate(10.85 19.649)"/><path class="n" d="M123.847,204.66a48.389,48.389,0,0,1,3.875,15.042,95.207,95.207,0,0,1-.153,18.393s-1.321,3.777-2.456,4.061-3.6-3.209-4.072-4.159.437-32.955.437-32.955Z" transform="translate(11.071 20.25)"/><path class="g" d="M143.624,216.63l-18.349,3.3-2.2,27.158,17.072-3.111Z" transform="translate(11.27 21.346)"/><path class="v" d="M121.433,194.64a6.484,6.484,0,0,1,3.406,4.159,7.3,7.3,0,0,1-.382,5.043l-3.657-5.294Z" transform="translate(11.062 19.332)"/><path class="v" d="M120.655,205.18l.884-6.549-5.25-3.526-1.266-1.255s-1.408,3.657-2.019,5.043C111.562,202.026,120.655,205.18,120.655,205.18Z" transform="translate(10.334 19.26)"/><path class="ae" d="M123.444,188.428s0,10.479-1.179,11.309-7.576-.284-7.576-3.875.076-8.361.076-8.361Z" transform="translate(10.502 18.678)"/><path class="af" d="M130.431,174.665s.95,21.035-5.851,22.05c-5.109.753-12.084-1.583-12.3-8.525s-2.423-17.181,2.391-17.181S130.988,169.982,130.431,174.665Z" transform="translate(10.218 17.159)"/><path class="ad" d="M109.155,173.23s-.393,7.03-.273,10.173,3.733,6.473,4.967,5.24.7-12.76.7-12.76Z" transform="translate(9.968 17.372)"/><path class="ad" d="M121.658,167.39s8.438.4,9.551,4.945.808,7.39-.961,7.1-9.922-.83-11.189-2.6c0,0-2.183,10.01-4.836,7.477s-7.172-6.866-4.2-13.273S121.658,167.39,121.658,167.39Z" transform="translate(9.986 16.783)"/><path class="af" d="M114.687,183.779s-1.419-3.668-3.624-2.107-.415,7.641,2.281,6.549S114.687,183.779,114.687,183.779Z" transform="translate(10.079 18.109)"/><path class="v" d="M121.179,244.936c-1.092-2.27,1.91-6.277,1.517-6.462s-9.431-2.9-10.435-3.908,1-13.1,1.233-24.015c.142-7.117-2.893-10.3-4.868-11.1-2.118,1.561-4.192,3.2-4.836,6.451-1.3,6.549-.993,25.652-.72,36.4,3.722,2.38,9.464,3.275,12.291,3.81C119.389,246.846,122.271,247.206,121.179,244.936Z" transform="translate(9.416 19.773)"/><path class="af" d="M111.507,221.9s-2.063,10.294-1.757,11.44,8.449,2.783,10.632,3.777a11.319,11.319,0,0,0,4.683.873s5.185-3.46,8.11-2.3,1.583,6.669-1.354,8.143a10.02,10.02,0,0,1-7.554.491c-1.19-.568-12.619-1.419-17.6-3.711s-4.727-8.034-4.694-9.824-.087-10.468-.087-10.468Z" transform="translate(9.33 21.684)"/><path class="aw" d="M123.3,239.34s-2.478-.841-5.567-1.747c-2.325-.688-5.785-2.085-7.368-2.74.862-4.082,2.642-26.252,2.183-28.61s-2.281-6.255-3.362-6.669-6.342,2.019-7.008,8.285c-.48,4.5-.982,28.01.437,31.754,2.041,5.349,19.932,6.713,19.932,6.713a8.788,8.788,0,0,1-.622-3.089,4.421,4.421,0,0,1,1.375-3.9Z" transform="translate(9.312 19.78)"/><path class="z" d="M56.025,11.976l-.229-.131C42.206,4.106,31.2,7.271,31.17,18.951c0,6.058,2.914,13.23,7.641,19.834-1.266,2.358-3.853,5.687-7.641,3.973a50.921,50.921,0,0,0,6.244,4.257c3.831,2.183,8.58,4.192,11.767,2.838a51.49,51.49,0,0,0,6.79,4.727c7.739,4.465,14.66,5.458,19.212,3.275,3.5-1.659,5.622-5.141,5.632-10.261C80.782,35.827,69.713,19.879,56.025,11.976Z" transform="translate(2.854 2.206)"/><path class="o" d="M45.273,24.024c-1.19-.677-2.183-.131-2.183,1.223a4.759,4.759,0,0,0,2.183,3.711c1.19.688,2.183.131,2.183-1.233a4.716,4.716,0,0,0-2.183-3.7Z" transform="translate(3.946 3.682)"/><path class="o" d="M62.873,34.144c-1.19-.677-2.183-.131-2.183,1.233a4.716,4.716,0,0,0,2.183,3.7c1.19.688,2.183.142,2.183-1.223a4.759,4.759,0,0,0-2.183-3.711Z" transform="translate(5.557 4.609)"/><path class="o" d="M54.073,29.075c-1.19-.688-2.183-.142-2.183,1.212A4.759,4.759,0,0,0,54.073,34c1.19.688,2.183.131,2.183-1.223a4.716,4.716,0,0,0-2.183-3.7Z" transform="translate(4.752 4.144)"/><path class="a" d="M33.7,38.464,31.11,39.97a4.53,4.53,0,0,0,4.366-.175l2.587-1.5a4.552,4.552,0,0,1-4.366.164Z" transform="translate(2.849 5.016)"/><path class="a" d="M58.2,10.6l-.229-.131c-8.078-4.6-15.249-5.349-19.757-2.74L35.65,9.253c4.5-2.609,11.658-1.867,19.736,2.74l.229.131c13.688,7.9,24.757,23.851,24.724,35.618,0,4.366-1.528,7.5-4.126,9.377L74.706,58c.262-.12.5-.251.742-.382l.12-.076,2.467-1.43c3.056-1.779,4.879-5.119,4.89-9.824C82.97,34.447,71.89,18.5,58.2,10.6Z" transform="translate(3.264 2.08)"/><path class="n" d="M104.037,69.774c1.561,4.759,4.737,12.629,9.551,16.035a46.435,46.435,0,0,1-7.816-3.7c-4.814-2.762-10.719-7.139-14.638-13.426a45.683,45.683,0,0,1-8.481-3.875A63.639,63.639,0,0,1,73.091,58c3.5-1.659,5.622-5.141,5.632-10.261C78.723,35.968,67.688,20.02,54,12.117l-.229-.131c4.465-7.488,15.784-8.11,29.036-.469,17.116,9.89,30.957,29.822,30.913,44.536C113.654,63.628,109.953,68.333,104.037,69.774ZM95.359,49.209c1.561.9,2.827.175,2.838-1.626A6.222,6.222,0,0,0,95.381,42.7c-1.572-.906-2.849-.186-2.849,1.616a6.189,6.189,0,0,0,2.827,4.89M82.675,41.884c1.561.906,2.838.186,2.838-1.616a6.211,6.211,0,0,0-2.816-4.89c-1.572-.906-2.838-.186-2.849,1.616a6.222,6.222,0,0,0,2.827,4.89" transform="translate(4.924 2.065)"/><path class="a" d="M102.407,63.06l-2.587,1.5c1.561,4.759,4.737,12.629,9.551,16.035l2.587-1.5C107.144,75.679,103.968,67.808,102.407,63.06Z" transform="translate(9.141 7.283)"/><path class="a" d="M107.224,68.5l2.576-1.5c3.831-2.183,6.1-6.4,6.124-12.324,0-14.714-13.8-34.657-30.913-44.536C74.793,4.253,65.69,3.271,60.057,6.556L57.47,8.063c5.665-3.275,14.736-2.314,24.953,3.58,17.116,9.89,30.957,29.822,30.913,44.536C113.315,62.117,111.044,66.287,107.224,68.5Z" transform="translate(5.263 1.939)"/><path class="g" d="M345.009,471.9a2.183,2.183,0,0,1-2.183-2.183V469.5a2.183,2.183,0,1,1,4.366,0v.218A2.183,2.183,0,0,1,345.009,471.9Zm-6.888-3.275a2.183,2.183,0,0,1-1.092-.295l-.186-.109a2.183,2.183,0,0,1,2.183-3.777l.186.109a2.2,2.2,0,0,1-1.092,4.093Zm-7.739-4.486a2.183,2.183,0,0,1-1.092-.295l-.2-.109a2.183,2.183,0,0,1,2.183-3.777l.186.109a2.183,2.183,0,0,1-1.092,4.072Zm14.627-1.19a2.183,2.183,0,0,1-2.183-2.183v-.218a2.183,2.183,0,0,1,4.366,0v.218A2.183,2.183,0,0,1,345.009,462.954Zm-22.366-3.275a2.106,2.106,0,0,1-1.092-.295l-.186-.109a2.183,2.183,0,1,1,2.183-3.777l.186.109a2.183,2.183,0,0,1-1.092,4.072Zm-7.728-4.5a2.1,2.1,0,0,1-1.092-.306l-.2-.109A2.183,2.183,0,1,1,315.81,451l.2.109a2.183,2.183,0,0,1-1.092,4.072Zm30.095-1.092a2.183,2.183,0,0,1-2.183-2.183v-.218a2.183,2.183,0,0,1,4.366,0v.218a2.183,2.183,0,0,1-2.183,2.1Zm-37.834-3.373a2.183,2.183,0,0,1-1.092-.295l-.186-.109a2.183,2.183,0,1,1,2.183-3.777l.186.109a2.183,2.183,0,0,1-1.092,4.072Zm-7.728-4.508a2.183,2.183,0,0,1-1.092-.295l-.2-.109a2.183,2.183,0,0,1,2.183-3.777l.2.109a2.183,2.183,0,0,1-1.092,4.072Zm45.562-1.092a2.183,2.183,0,0,1-2.183-2.183v-.218a2.183,2.183,0,0,1,4.366,0v.218a2.183,2.183,0,0,1-2.183,2.118Zm-53.3-3.438a2.183,2.183,0,0,1-1.092-.295l-.186-.109a2.183,2.183,0,1,1,2.183-3.777l.186.109a2.183,2.183,0,0,1-1.092,4.072Zm-7.728-4.552a2.183,2.183,0,0,1-1.092-.295l-.186-.109a2.183,2.183,0,0,1,2.183-3.777l.2.109a2.184,2.184,0,0,1-1.1,4.072Zm61.03-1a2.183,2.183,0,0,1-2.183-2.183v-.218a2.183,2.183,0,0,1,4.366,0v.218a2.183,2.183,0,0,1-2.183,2.161ZM276.24,432.63a2.118,2.118,0,0,1-1.092-.306l-.186-.109a2.183,2.183,0,1,1,2.183-3.766l.186.109a2.183,2.183,0,0,1-1.092,4.072Zm-7.728-4.508a2.26,2.26,0,0,1-1.092-.295l-.186-.109a2.183,2.183,0,0,1,2.183-3.777l.2.109a2.183,2.183,0,0,1-1.092,4.072Z" transform="translate(24.378 40.306)"/><path class="g" d="M333.89,433.492a4.923,4.923,0,1,1,1.438,3.488,4.923,4.923,0,0,1-1.438-3.488Z" transform="translate(30.574 40.754)"/><path class="g" d="M269.421,420.836a4.923,4.923,0,1,0,1.768,6.735A4.923,4.923,0,0,0,269.421,420.836Z" transform="translate(23.993 39.983)"/><path class="n" d="M32.343,235.437v2.685c0,2.38-1.572,4.759-4.694,6.549-6.3,3.657-16.537,3.657-22.868,0C1.583,242.849,0,240.426,0,238.024V235.35c0,2.412,1.583,4.825,4.77,6.669,6.331,3.657,16.57,3.657,22.857,0C30.771,240.2,32.332,237.828,32.343,235.437Z" transform="translate(0 23.06)"/><path class="v" d="M27.561,229.549c6.342,3.668,6.375,9.595.076,13.252s-16.526,3.657-22.857,0-6.364-9.584-.076-13.241S21.23,225.925,27.561,229.549Z" transform="translate(0.001 22.279)"/><path class="n" d="M19.184,207.9l-2.871-1.67a3.155,3.155,0,0,1,1.31,2.882,9.824,9.824,0,0,1-4.475,7.728,3.166,3.166,0,0,1-3.187.317l2.882,1.67a3.166,3.166,0,0,0,3.187-.317,9.824,9.824,0,0,0,4.465-7.728,3.133,3.133,0,0,0-1.31-2.882Z" transform="translate(0.912 20.393)"/><path class="n" d="M20.066,199.958l2.871,1.67c-1.845-1.092-4.366-.928-7.226.71l-2.871-1.67C15.667,199.03,18.221,198.888,20.066,199.958Z" transform="translate(1.176 19.756)"/><path class="n" d="M16.669,239.89,13.8,238.22c-.513-.688-10.206-13.7-10.228-20.139s4.508-14.3,10.119-17.531l2.871,1.67c-5.6,3.275-10.13,11.079-10.119,17.465S16.156,239.246,16.669,239.89Z" transform="translate(0.327 19.873)"/><path class="a" d="M16.319,202.2c5.611-3.275,10.173-.644,10.2,5.8s-9.584,30.564-10.086,31.874c-.513-.644-10.206-13.743-10.228-20.15S10.719,205.386,16.319,202.2Zm0,16.81a9.824,9.824,0,0,0,4.465-7.728c0-2.849-2.019-4-4.5-2.565a9.824,9.824,0,0,0-4.465,7.728c0,2.849,2.019,4,4.5,2.565" transform="translate(0.568 19.895)"/><path class="ax" d="M189.041,167.616l2.587-1.506v2.4l-2.6,1.506Z" transform="translate(17.31 16.72)"/><path class="ax" d="M189.071,158.126l2.587-1.506v2.4l-2.6,1.517Z" transform="translate(17.312 15.851)"/><path class="ax" d="M189.09,148.646l2.6-1.506-.011,2.4-2.587,1.506Z" transform="translate(17.315 14.983)"/><path class="ax" d="M189.121,139.156l2.6-1.506-.011,2.4-2.6,1.506Z" transform="translate(17.317 14.114)"/><path class="ax" d="M189.151,129.677l2.587-1.517v2.412l-2.6,1.506Z" transform="translate(17.32 13.245)"/><g transform="translate(199.299 128.525)"><path class="a" d="M182.58,118.063l2.6-1.506a2.183,2.183,0,0,1,2.183.218l-2.6,1.506A2.183,2.183,0,0,0,182.58,118.063Z" transform="translate(-182.58 -116.361)"/><g class="ay"><g transform="translate(0 -0.012)"><path class="a" d="M182.58,118.063l2.6-1.506a1.594,1.594,0,0,1,.568-.2l-2.6,1.506a1.67,1.67,0,0,0-.568.2" transform="translate(-182.58 -116.349)"/><path class="a" d="M183.1,117.867l2.6-1.506a2.293,2.293,0,0,1,.393,0l-2.6,1.506a2.367,2.367,0,0,0-.393,0" transform="translate(-182.532 -116.35)"/><path class="a" d="M183.46,117.856l2.6-1.506a1.974,1.974,0,0,1,.338.055l-2.6,1.506a1.823,1.823,0,0,0-.338,0" transform="translate(-182.499 -116.35)"/><path class="a" d="M183.77,117.906l2.6-1.506.317.087-2.6,1.506-.317-.087" transform="translate(-182.471 -116.345)"/><path class="a" d="M184.06,117.986l2.6-1.506a1.941,1.941,0,0,1,.317.131l-2.6,1.528-.317-.131" transform="translate(-182.444 -116.338)"/><path class="a" d="M184.35,118.126l2.6-1.506.295.153-2.6,1.506-.295-.153" transform="translate(-182.418 -116.325)"/></g></g></g><path class="az" d="M189.03,169.816l2.6-1.506,64.61,37.3-2.6,1.506Z" transform="translate(17.31 16.921)"/><path class="ba" d="M248.22,201.786l2.6-1.506v2.4l-2.6,1.506Z" transform="translate(22.73 19.849)"/><path class="bb" d="M189.04,167.616l2.6-1.506,64.6,37.3-2.6,1.506Z" transform="translate(17.31 16.72)"/><path class="az" d="M189.06,160.337l2.6-1.517,64.6,37.31-2.587,1.506Z" transform="translate(17.312 16.052)"/><path class="bb" d="M189.07,158.126l2.587-1.506,64.61,37.3-2.6,1.517Z" transform="translate(17.313 15.851)"/><path class="bc" d="M253.67,195.31v2.4l-64.61-37.3.011-2.412Z" transform="translate(17.312 15.977)"/><path class="ba" d="M248.25,192.307l2.6-1.517-.011,2.412-2.587,1.506Z" transform="translate(22.732 18.98)"/><path class="az" d="M189.09,150.846l2.587-1.506,64.61,37.3-2.6,1.506Z" transform="translate(17.315 15.184)"/><path class="ba" d="M248.281,182.816l2.6-1.506-.011,2.4-2.6,1.506Z" transform="translate(22.734 18.112)"/><path class="bb" d="M189.09,148.646l2.6-1.506,64.61,37.3-2.6,1.506Z" transform="translate(17.315 14.983)"/><path class="bc" d="M253.7,185.819l-.011,2.4-64.6-37.3v-2.4Z" transform="translate(17.315 15.109)"/><path class="az" d="M189.11,141.356l2.6-1.506,64.61,37.3-2.6,1.506Z" transform="translate(17.317 14.315)"/><path class="bb" d="M189.12,139.156l2.6-1.506,64.6,37.3-2.587,1.506Z" transform="translate(17.318 14.114)"/><path class="ba" d="M248.311,173.326l2.587-1.506v2.4l-2.6,1.506Z" transform="translate(22.737 17.243)"/><path class="az" d="M189.14,131.876l2.6-1.506,64.6,37.3-2.6,1.506Z" transform="translate(17.32 13.447)"/><path class="ba" d="M248.331,163.846l2.6-1.506-.011,2.4-2.6,1.506Z" transform="translate(22.739 16.374)"/><path class="bb" d="M189.15,129.677l2.587-1.517,64.61,37.31-2.6,1.506Z" transform="translate(17.321 13.245)"/><path class="z" d="M259.429,161.2a6.877,6.877,0,0,1,3.133,5.4l-.164,55.834c0,1.987-1.419,2.784-3.144,1.79L203.53,192.057l-19.55,4.366,4.934-12.782-4.192-2.423a6.877,6.877,0,0,1-3.122-5.458l.153-55.834c0-1.987,1.419-2.784,3.144-1.79Z" transform="translate(16.629 12.288)"/><path class="z" d="M253.72,178.73l.011-2.4-64.61-37.3-.011,2.4,64.61,37.3" transform="translate(17.317 14.24)"/><path class="o" d="M253.689,188.22l.011-2.4-64.61-37.3v2.4l64.6,37.3" transform="translate(17.315 15.109)"/><path class="z" d="M253.64,207.19v-2.4l-64.6-37.3-.011,2.4,64.61,37.3" transform="translate(17.31 16.846)"/><path class="z" d="M253.739,169.25l.011-2.4-64.6-37.3-.011,2.4,64.6,37.3" transform="translate(17.32 13.372)"/><path class="o" d="M253.67,197.711v-2.4L189.071,158l-.011,2.412,64.61,37.3" transform="translate(17.312 15.977)"/><path class="o" d="M253.64,204.789v2.4l-64.61-37.3.011-2.4Z" transform="translate(17.31 16.846)"/><g transform="translate(278.11 233.217)"><path class="a" d="M257.378,214.278l-2.6,1.506a2.183,2.183,0,0,0,.917-2.008l2.6-1.506A2.183,2.183,0,0,1,257.378,214.278Z" transform="translate(-254.78 -212.27)"/><g class="bd"><g transform="translate(0)"><path class="a" d="M255.62,213.776l2.6-1.506h0l-2.6,1.517v-.011" transform="translate(-254.703 -212.27)"/><path class="a" d="M255.622,213.787l2.6-1.517v.382l-2.62,1.506v-.371" transform="translate(-254.705 -212.27)"/><path class="a" d="M255.6,214.126l2.6-1.506a2.025,2.025,0,0,1-.065.371L255.55,214.5v-.371" transform="translate(-254.709 -212.238)"/><path class="a" d="M255.561,214.466l2.587-1.506a2.063,2.063,0,0,1-.131.415l-2.587,1.506a2.065,2.065,0,0,0,.131-.415" transform="translate(-254.72 -212.207)"/><path class="a" d="M255.49,214.846l2.587-1.506a1.637,1.637,0,0,1-.7.841l-2.6,1.506a1.7,1.7,0,0,0,.71-.84" transform="translate(-254.78 -212.172)"/></g></g></g><path class="o" d="M253.731,176.329l-.011,2.4-64.61-37.3.011-2.4Z" transform="translate(17.317 14.24)"/><path class="o" d="M253.75,166.849l-.011,2.4-64.6-37.3.011-2.4Z" transform="translate(17.32 13.372)"/><path class="a" d="M255.784,162.626l2.587-1.506-.153,55.834-2.6,1.506Z" transform="translate(23.407 16.263)"/><path class="a" d="M184.62,118.246l2.6-1.506,74.532,43.03-2.6,1.506Z" transform="translate(16.906 12.199)"/><g transform="translate(276.058 171.969)"><path class="a" d="M252.9,157.677l2.6-1.517a6.9,6.9,0,0,1,3.122,5.458l-2.587,1.506A6.877,6.877,0,0,0,252.9,157.677Z" transform="translate(-252.9 -156.16)"/><g class="be"><g transform="translate(0)"><path class="a" d="M252.9,157.677l2.6-1.517h0l-2.6,1.506h0" transform="translate(-252.9 -156.16)"/><path class="a" d="M252.93,157.686l2.6-1.506.338.218-2.6,1.506a3.588,3.588,0,0,0-.338-.218" transform="translate(-252.897 -156.158)"/><path class="a" d="M253.24,157.886l2.6-1.506.36.284-2.6,1.485-.36-.284" transform="translate(-252.869 -156.14)"/><path class="a" d="M253.57,158.126l2.6-1.506.437.4-2.565,1.539a5.181,5.181,0,0,0-.437-.415" transform="translate(-252.839 -156.118)"/><path class="a" d="M254,158.527l2.6-1.517a7.7,7.7,0,0,1,1.474,2.26l-2.6,1.506A7.434,7.434,0,0,0,254,158.527" transform="translate(-252.799 -156.082)"/><path class="a" d="M255.32,160.586l2.6-1.506c.076.2.153.393.207.589l-2.587,1.506c-.065-.2-.142-.393-.218-.589" transform="translate(-252.678 -155.893)"/><path class="a" d="M255.52,161.126l2.587-1.506a3.275,3.275,0,0,1,.131.469l-2.587,1.506-.131-.469" transform="translate(-252.66 -155.843)"/><path class="a" d="M255.64,161.556l2.587-1.506a3.137,3.137,0,0,0,.087.415l-2.6,1.506a.8.8,0,0,0-.076-.415" transform="translate(-252.649 -155.804)"/><path class="a" d="M255.71,161.936l2.6-1.506v.382l-2.6,1.506v-.382" transform="translate(-252.643 -155.769)"/><path class="a" d="M255.75,162.286l2.6-1.506v.371l-2.587,1.506v-.371" transform="translate(-252.639 -155.737)"/></g></g></g><path class="n" d="M109.392,366.451l-.153-55.834c0-1.987-1.419-2.794-3.144-1.8L31.552,351.856a6.91,6.91,0,0,0-3.122,5.458l.164,55.845c0,1.976,1.408,2.784,3.144,1.779L87.462,382.77l19.55,4.366-4.945-12.782,4.2-2.423a6.866,6.866,0,0,0,3.122-5.48Z" transform="translate(2.603 29.748)"/><path class="a" d="M107.051,308.631a1.268,1.268,0,0,1,.338-.076,1.342,1.342,0,0,1,.295,0h.469a2.325,2.325,0,0,1,.382.153l-2.6-1.517a1.026,1.026,0,0,0-.251-.109.251.251,0,0,0-.12,0h-.48a2.721,2.721,0,0,0-.295,0h-.131l-.218.065h-.153a3.8,3.8,0,0,0-.579.262L29.167,350.471a5,5,0,0,0-.72.524,1.767,1.767,0,0,0-.207.2,4.769,4.769,0,0,0-.458.48.622.622,0,0,0-.12.12.774.774,0,0,0-.109.153l-.273.36-.131.2-.1.164-.175.306-.109.2-.1.207-.131.317-.076.164a.281.281,0,0,1-.076.229c-.076.076-.087.262-.12.393a.961.961,0,0,0-.055.164.649.649,0,0,1-.055.317,1.932,1.932,0,0,0,0,.218,5.3,5.3,0,0,0-.055.7l.153,55.834a2.183,2.183,0,0,0,.917,2.008l2.6,1.506a2.183,2.183,0,0,1-.917-2l-.164-55.845a3.963,3.963,0,0,1,.065-.7,1.931,1.931,0,0,1,0-.218,3.644,3.644,0,0,1,.109-.469,1.533,1.533,0,0,1,.12-.4,4.165,4.165,0,0,1,.142-.393l.142-.306c.065-.142.131-.284.207-.415a2.771,2.771,0,0,1,.175-.306l.229-.349c.087-.131.175-.251.273-.371a2.655,2.655,0,0,1,.218-.273,6.55,6.55,0,0,1,.469-.48l.207-.2a4.649,4.649,0,0,1,.72-.524l74.543-43.041a3.725,3.725,0,0,1,.568-.262Z" transform="translate(2.39 29.628)"/><path class="o" d="M100.561,348.67v2.4l-64.61,37.31-.011-2.4Z" transform="translate(3.291 33.437)"/><path class="o" d="M100.481,320.21v2.4l-64.61,37.31-.011-2.4Z" transform="translate(3.284 30.831)"/><path class="o" d="M100.58,358.16l.011,2.4-64.61,37.3-.011-2.4Z" transform="translate(3.294 34.306)"/><path class="o" d="M100.53,339.19v2.4l-64.61,37.3v-2.4Z" transform="translate(3.289 32.569)"/><path class="o" d="M100.5,329.7l.011,2.4L35.9,369.4,35.89,367Z" transform="translate(3.286 31.7)"/><path class="bf" d="M305.029,387.288,220.815,338.32a4.148,4.148,0,0,0-3.875,0l-135.846,78.4a1.932,1.932,0,0,0,0,3.5l84.28,48.968a4.126,4.126,0,0,0,3.864,0l135.8-78.4a1.932,1.932,0,0,0,0-3.5Z" transform="translate(7.323 32.445)"/><g transform="translate(88.37 361.676)"><path class="bf" d="M217.341,330.288a3.034,3.034,0,0,1,2.773,0l84.28,48.968a.851.851,0,0,1,0,1.616l-135.813,78.4a3.035,3.035,0,0,1-2.773,0L81.539,410.3a.851.851,0,0,1,0-1.616Z" transform="translate(-80.957 -329.953)"/><g transform="translate(223.426 50.111)"><g class="bg"><path class="bh" d="M286.17,375.86v4.115a.448.448,0,0,1,0,.12v-4.082a.489.489,0,0,0,0-.12" transform="translate(-285.591 -375.86)"/><path class="bi" d="M286.169,376v4.115a.7.7,0,0,1-.109.284v-4.126a.839.839,0,0,0,.109-.273" transform="translate(-285.602 -375.847)"/><path class="bj" d="M286.093,376.22v4.126a1.265,1.265,0,0,1-.393.36v-4.115a1.179,1.179,0,0,0,.393-.371" transform="translate(-285.635 -375.827)"/><path class="bk" d="M285.706,376.56v4.115h-.065V376.6h.065" transform="translate(-285.64 -375.796)"/></g></g><g transform="translate(0.047 79.539)"><g class="bl"><g transform="translate(-0.044 0)"><path class="bm" d="M81.539,403.628v4.115a1,1,0,0,1-.579-.8V402.82a.982.982,0,0,0,.579.808" transform="translate(-80.96 -402.82)"/></g></g></g><path class="bn" d="M165.759,452.528l.011,4.115L81.5,407.675l-.011-4.115Z" transform="translate(-80.908 -323.213)"/><path class="bo" d="M297.031,376.6l.011,4.115-135.791,78.4L161.24,455Z" transform="translate(-73.605 -325.681)"/><g transform="translate(84.841 129.315)"><g class="bp"><g transform="translate(0.011 0)"><path class="bk" d="M161.268,448.42v4.126a2.118,2.118,0,0,1-.458.186v-4.115a2.4,2.4,0,0,0,.448-.2" transform="translate(-158.496 -448.42)"/><path class="bj" d="M160.88,448.6v4.115a2.479,2.479,0,0,1-.71.131v-4.115a3.557,3.557,0,0,0,.71-.131" transform="translate(-158.554 -448.404)"/><path class="bi" d="M160.211,448.72v4.115h-.491V448.72h.491" transform="translate(-158.596 -448.393)"/><path class="bh" d="M159.76,448.726v4.115a2.326,2.326,0,0,1-.48-.076V448.65a3.4,3.4,0,0,0,.48.076" transform="translate(-158.636 -448.399)"/><path class="bm" d="M159.334,448.671v4.115a2.632,2.632,0,0,1-.644-.24V448.42a2.26,2.26,0,0,0,.644.251" transform="translate(-158.69 -448.42)"/></g></g></g><path class="bq" d="M178.512,357.744a3.788,3.788,0,0,1,3.428,0l20.74,12.007a1.092,1.092,0,0,1,0,1.976l-47.592,27.518a3.788,3.788,0,0,1-3.428,0l-20.74-12.007c-.95-.546-.939-1.43,0-1.987Z" transform="translate(-76.446 -327.446)"/><path class="br" d="M233.208,358.827a3.1,3.1,0,0,1,2.773,0l4.159,2.412a.851.851,0,0,1,0,1.616l-4.181,2.412a3.056,3.056,0,0,1-2.784,0l-4.148-2.412a.851.851,0,0,1,0-1.6Z" transform="translate(-67.45 -327.339)"/><path class="br" d="M225,363.568a3.056,3.056,0,0,1,2.784,0l4.148,2.412a.851.851,0,0,1,0,1.616l-4.181,2.412a3.1,3.1,0,0,1-2.773,0l-4.159-2.412a.851.851,0,0,1,0-1.616Z" transform="translate(-68.203 -326.906)"/><path class="br" d="M216.8,368.308a3.035,3.035,0,0,1,2.773,0l4.159,2.412a.848.848,0,0,1,0,1.6l-4.181,2.412a3.056,3.056,0,0,1-2.784,0l-4.148-2.412a.851.851,0,0,1,0-1.6Z" transform="translate(-68.952 -326.471)"/><path class="br" d="M228.068,371.908a3.122,3.122,0,0,1,2.784,0L235,374.331a.848.848,0,0,1,0,1.6l-4.181,2.412a3.035,3.035,0,0,1-2.773,0l-4.159-2.412a.851.851,0,0,1,0-1.6Z" transform="translate(-67.92 -326.141)"/><path class="br" d="M251.187,369.028a3.089,3.089,0,0,1,2.784,0l4.148,2.412a.851.851,0,0,1,0,1.616l-10.37,5.993a3.122,3.122,0,0,1-2.784,0l-4.148-2.423a.851.851,0,0,1,0-1.6Z" transform="translate(-66.37 -326.405)"/><path class="br" d="M208.59,373.027a3.122,3.122,0,0,1,2.784,0l4.148,2.412a.851.851,0,0,1,0,1.616l-4.181,2.412a3.057,3.057,0,0,1-2.784,0l-4.159-2.412a.851.851,0,0,1,0-1.616Z" transform="translate(-69.706 -326.039)"/><path class="br" d="M219.878,376.648a3.035,3.035,0,0,1,2.773,0l4.159,2.412a.848.848,0,0,1,0,1.6l-4.181,2.412a3.057,3.057,0,0,1-2.784,0l-4.148-2.412a.851.851,0,0,1,0-1.6Z" transform="translate(-68.67 -325.708)"/><path class="br" d="M236.8,377.028a3.056,3.056,0,0,1,2.784,0l4.148,2.412a.851.851,0,0,1,0,1.6l-4.181,2.423a3.122,3.122,0,0,1-2.784,0l-4.159-2.423a.85.85,0,0,1,0-1.6Z" transform="translate(-67.122 -325.673)"/><path class="br" d="M260.069,374.028a3.056,3.056,0,0,1,2.784,0L267,376.44a.851.851,0,0,1,0,1.6l-12.16,7.03a3.122,3.122,0,0,1-2.784,0l-4.148-2.412a.851.851,0,0,1,0-1.616Z" transform="translate(-65.722 -325.948)"/><path class="br" d="M211.678,381.368a3.089,3.089,0,0,1,2.784,0l4.148,2.412c.775.437.764,1.157,0,1.6l-4.181,2.412a3.056,3.056,0,0,1-2.783,0l-4.148-2.412a.851.851,0,0,1,0-1.6Z" transform="translate(-69.421 -325.275)"/><path class="br" d="M228.61,381.718a3.035,3.035,0,0,1,2.773,0l4.159,2.412a.851.851,0,0,1,0,1.616l-4.181,2.412a3.122,3.122,0,0,1-2.784,0l-4.148-2.412a.851.851,0,0,1,0-1.615Z" transform="translate(-67.872 -325.243)"/><path class="br" d="M192.188,382.518a3.035,3.035,0,0,1,2.773,0l4.159,2.412a.85.85,0,0,1,0,1.6l-4.181,2.412a3.056,3.056,0,0,1-2.784,0l-4.148-2.412a.851.851,0,0,1,0-1.6Z" transform="translate(-71.206 -325.17)"/><path class="br" d="M243.68,383.127a3.122,3.122,0,0,1,2.783,0l4.148,2.412a.851.851,0,0,1,0,1.616l-4.192,2.412a3.034,3.034,0,0,1-2.773,0l-4.159-2.412a.851.851,0,0,1,0-1.616Z" transform="translate(-66.493 -325.114)"/><path class="br" d="M203.489,386.108a3.056,3.056,0,0,1,2.784,0l4.148,2.412a.848.848,0,0,1,0,1.6l-4.192,2.445a3.034,3.034,0,0,1-2.773,0l-4.159-2.412a.851.851,0,0,1,0-1.6Z" transform="translate(-70.172 -324.842)"/><path class="br" d="M220.4,386.448a3.035,3.035,0,0,1,2.773,0l4.159,2.412a.851.851,0,0,1,0,1.616l-4.181,2.412a3.122,3.122,0,0,1-2.784,0l-4.148-2.412a.851.851,0,0,1,0-1.616Z" transform="translate(-68.624 -324.81)"/><path class="br" d="M183.98,387.248a3.089,3.089,0,0,1,2.784,0l4.148,2.412a.851.851,0,0,1,0,1.616l-4.181,2.412a3.035,3.035,0,0,1-2.773,0l-4.159-2.412a.851.851,0,0,1,0-1.616Z" transform="translate(-71.959 -324.737)"/><path class="br" d="M235.278,388.027a3.1,3.1,0,0,1,2.773,0l4.159,2.423a.85.85,0,0,1,0,1.6l-4.181,2.412a3.056,3.056,0,0,1-2.784,0l-4.148-2.412a.851.851,0,0,1,0-1.6Z" transform="translate(-67.26 -324.665)"/><path class="br" d="M212.22,391.178a3.056,3.056,0,0,1,2.784,0l4.148,2.412a.851.851,0,0,1,0,1.616l-4.181,2.412a3.122,3.122,0,0,1-2.784,0l-4.148-2.412a.851.851,0,0,1,0-1.616Z" transform="translate(-69.373 -324.377)"/><path class="br" d="M175.779,392.028a3.035,3.035,0,0,1,2.773,0l4.159,2.412a.851.851,0,0,1,0,1.6l-4.181,2.423a3.122,3.122,0,0,1-2.784,0l-4.148-2.423a.848.848,0,0,1,0-1.6Z" transform="translate(-72.709 -324.299)"/><path class="br" d="M187.109,395.568a3.035,3.035,0,0,1,2.773,0l4.148,2.412a.851.851,0,0,1,0,1.6L189.849,402a3.056,3.056,0,0,1-2.784,0l-4.148-2.412a.851.851,0,0,1,0-1.6Z" transform="translate(-71.672 -323.975)"/><path class="br" d="M204.03,395.908a3.057,3.057,0,0,1,2.784,0l4.148,2.412a.851.851,0,0,1,0,1.616l-4.181,2.412a3.035,3.035,0,0,1-2.773,0l-4.159-2.412a.851.851,0,0,1,0-1.616Z" transform="translate(-70.123 -323.944)"/><path class="br" d="M167.567,396.728a3.056,3.056,0,0,1,2.784,0l4.159,2.412a.85.85,0,0,1,0,1.6l-4.181,2.412a3.056,3.056,0,0,1-2.784,0l-4.148-2.412a.851.851,0,0,1,0-1.6Z" transform="translate(-73.459 -323.869)"/><path class="br" d="M178.909,400.3a3.056,3.056,0,0,1,2.784,0l4.148,2.412a.848.848,0,0,1,0,1.6l-4.213,2.412a3.034,3.034,0,0,1-2.773,0l-4.137-2.358a.851.851,0,0,1,0-1.6Z" transform="translate(-72.423 -323.542)"/><path class="br" d="M195.836,400.638a3.035,3.035,0,0,1,2.773,0l4.159,2.412a.851.851,0,0,1,0,1.616l-4.137,2.412a3.089,3.089,0,0,1-2.784,0l-4.148-2.412a.851.851,0,0,1,0-1.616Z" transform="translate(-70.869 -323.511)"/><path class="br" d="M159.4,401.458a3.089,3.089,0,0,1,2.784,0l4.148,2.412a.851.851,0,0,1,0,1.616L162.15,407.9a3.035,3.035,0,0,1-2.773,0l-4.159-2.412a.851.851,0,0,1,0-1.616Z" transform="translate(-74.21 -323.436)"/><path class="br" d="M151.169,406.2a3.035,3.035,0,0,1,2.773,0l4.159,2.412a.851.851,0,0,1,0,1.6l-4.181,2.423a3.122,3.122,0,0,1-2.784,0l-4.148-2.423a.848.848,0,0,1,0-1.6Z" transform="translate(-74.963 -323.002)"/><path class="br" d="M170.719,405.028a3.034,3.034,0,0,1,2.773,0l4.159,2.412a.851.851,0,0,1,0,1.6l-4.181,2.412a3.056,3.056,0,0,1-2.784,0l-4.148-2.412a.848.848,0,0,1,0-1.6Z" transform="translate(-73.172 -323.109)"/><path class="br" d="M162.53,409.758a3.035,3.035,0,0,1,2.773,0l4.148,2.412a.851.851,0,0,1,0,1.6l-4.181,2.412a3.057,3.057,0,0,1-2.784,0l-4.148-2.412c-.775-.437-.764-1.157,0-1.6Z" transform="translate(-73.924 -322.676)"/><path class="br" d="M142.957,410.927a3.122,3.122,0,0,1,2.784,0l4.159,2.423a.85.85,0,0,1,0,1.6l-4.181,2.412a3.056,3.056,0,0,1-2.784,0l-4.148-2.412a.851.851,0,0,1,0-1.6Z" transform="translate(-75.713 -322.568)"/><path class="br" d="M154.328,414.488a3.056,3.056,0,0,1,2.784,0l4.148,2.412a.851.851,0,0,1,0,1.6l-4.181,2.423a3.1,3.1,0,0,1-2.773,0l-4.159-2.423a.85.85,0,0,1,0-1.6Z" transform="translate(-74.673 -322.243)"/><path class="br" d="M171.26,414.828a3.035,3.035,0,0,1,2.773,0l4.159,2.412a.851.851,0,0,1,0,1.616l-4.181,2.412a3.056,3.056,0,0,1-2.784,0l-4.148-2.412a.851.851,0,0,1,0-1.616Z" transform="translate(-73.124 -322.212)"/><path class="br" d="M134.76,415.668a3.056,3.056,0,0,1,2.784,0l4.148,2.412a.851.851,0,0,1,0,1.616l-4.181,2.412a3.035,3.035,0,0,1-2.773,0l-4.159-2.412a.851.851,0,0,1,0-1.616Z" transform="translate(-76.466 -322.135)"/><path class="br" d="M180.4,419.658a3.056,3.056,0,0,1,2.784,0l4.148,2.412a.851.851,0,0,1,0,1.616L183.15,426.1a3.034,3.034,0,0,1-2.773,0l-4.159-2.412a.851.851,0,0,1,0-1.616Z" transform="translate(-72.287 -321.769)"/><path class="br" d="M146.381,419.218a3.035,3.035,0,0,1,2.773,0l4.159,2.412a.851.851,0,0,1,0,1.6l-7.062,4.082a3.056,3.056,0,0,1-2.784,0l-4.159-2.412a.851.851,0,0,1,0-1.6Z" transform="translate(-75.665 -321.81)"/><path class="br" d="M172,424.507a3.1,3.1,0,0,1,2.773,0l4.2,2.423a.85.85,0,0,1,0,1.6l-4.181,2.412a3.034,3.034,0,0,1-2.773,0l-4.159-2.412a.851.851,0,0,1,0-1.6Z" transform="translate(-73.05 -321.325)"/><path class="br" d="M155.111,424.287a3.122,3.122,0,0,1,2.784,0l4.148,2.412a.851.851,0,0,1,0,1.616L154.98,432.4a3.121,3.121,0,0,1-2.784,0l-4.148-2.412a.851.851,0,0,1,0-1.616Z" transform="translate(-74.866 -321.345)"/><path class="br" d="M163.841,429.368a3.056,3.056,0,0,1,2.784,0l4.148,2.412a.851.851,0,0,1,0,1.6l-7.062,4.082a3.035,3.035,0,0,1-2.773,0l-4.159-2.412a.851.851,0,0,1,0-1.616Z" transform="translate(-74.067 -320.88)"/><path class="bq" d="M242.917,356.318a3.056,3.056,0,0,1,2.783,0l37.19,21.613a.851.851,0,0,1,0,1.6L166.2,446.908a3.1,3.1,0,0,1-2.773,0l-37.19-21.613a.851.851,0,0,1,0-1.616Zm-.284,42.255-4.148-2.412a3.056,3.056,0,0,0-2.783,0l-45.726,26.427a.851.851,0,0,0,0,1.616l4.148,2.412a3.122,3.122,0,0,0,2.784,0l45.715-26.405a.851.851,0,0,0,0-1.6m35.509-20.5-4.148-2.412a3.056,3.056,0,0,0-2.783,0l-12.171,7.019a.851.851,0,0,0,0,1.616l4.148,2.412a3.122,3.122,0,0,0,2.784,0l12.16-7.03a.851.851,0,0,0,0-1.6m-9.529-5.545-4.148-2.412a3.089,3.089,0,0,0-2.784,0l-10.381,5.993a.851.851,0,0,0,0,1.6l4.148,2.423a3.122,3.122,0,0,0,2.784,0l10.37-5.993a.851.851,0,0,0,0-1.616m-9.529-5.534-4.159-2.412a3.035,3.035,0,0,0-2.773,0L241.738,370.6a.851.851,0,0,0,0,1.6l4.159,2.412a3.056,3.056,0,0,0,2.784,0l10.37-5.993a.851.851,0,0,0,0-1.6M154.478,427.39l-4.159-2.412a3.035,3.035,0,0,0-2.773,0l-7.073,4.082a.851.851,0,0,0,0,1.6l4.159,2.412a3.056,3.056,0,0,0,2.784,0l7.062-4.082a.851.851,0,0,0,0-1.6m9.529,5.534-4.148-2.412a3.122,3.122,0,0,0-2.784,0l-7.03,4.082a.851.851,0,0,0,0,1.616l4.148,2.412a3.122,3.122,0,0,0,2.784,0l7.062-4.082a.851.851,0,0,0,0-1.616m9.529,5.545-4.148-2.412a3.056,3.056,0,0,0-2.784,0l-7.062,4.072a.851.851,0,0,0,0,1.616l4.159,2.412a3.035,3.035,0,0,0,2.773,0l7.062-4.082a.851.851,0,0,0,0-1.6m20.139-49.535,4.148,2.412a3.056,3.056,0,0,0,2.784,0l4.181-2.412c.764-.448.775-1.168,0-1.6l-4.159-2.412a3.035,3.035,0,0,0-2.773,0l-4.181,2.412a.851.851,0,0,0,0,1.6m-26.864,15.511,4.148,2.412a3.056,3.056,0,0,0,2.784,0l4.181-2.412c.764-.448.775-1.168,0-1.6l-4.159-2.412a3.056,3.056,0,0,0-2.784,0l-4.181,2.412a.851.851,0,0,0,0,1.6m17.9-10.337,4.159,2.412a3.035,3.035,0,0,0,2.773,0l4.181-2.412a.851.851,0,0,0,0-1.616L191.7,390.08a3.089,3.089,0,0,0-2.784,0l-4.181,2.412a.851.851,0,0,0,0,1.616m-31.656,23.1a3.122,3.122,0,0,0,2.784,0l4.181-2.423a.851.851,0,0,0,0-1.6l-4.159-2.412a3.035,3.035,0,0,0-2.773,0l-4.181,2.412c-.775.448-.775,1.168,0,1.6l4.148,2.423m-8.951,5.163a3.056,3.056,0,0,0,2.784,0l4.181-2.412c.764-.448.775-1.168,0-1.6l-4.159-2.423a3.122,3.122,0,0,0-2.784,0l-4.181,2.423a.851.851,0,0,0,0,1.6l4.159,2.412M211.611,378.6l4.159,2.412a3.057,3.057,0,0,0,2.784,0l4.181-2.412a.851.851,0,0,0,0-1.616l-4.148-2.412a3.122,3.122,0,0,0-2.784,0l-4.181,2.412a.851.851,0,0,0,0,1.616m-49.568,33.435a3.035,3.035,0,0,0,2.773,0l4.181-2.412a.851.851,0,0,0,0-1.616l-4.148-2.412a3.056,3.056,0,0,0-2.784,0L157.894,408a.851.851,0,0,0,0,1.616l4.159,2.412m13.754-12.76,4.148,2.423a3.122,3.122,0,0,0,2.784,0l4.181-2.423a.851.851,0,0,0,0-1.6l-4.213-2.369a3.035,3.035,0,0,0-2.773,0l-4.181,2.412c-.775.448-.775,1.168,0,1.6m73.8-37.856-4.159-2.412a3.1,3.1,0,0,0-2.773,0l-4.159,2.412a.851.851,0,0,0,0,1.6l4.148,2.412a3.056,3.056,0,0,0,2.784,0l4.181-2.412a.851.851,0,0,0,0-1.616m-5.032,26.6a.851.851,0,0,0,0-1.616l-4.159-2.412a3.035,3.035,0,0,0-2.773,0l-4.181,2.412a.851.851,0,0,0,0,1.616l4.148,2.412a3.122,3.122,0,0,0,2.784,0l4.181-2.412m8.951-6.779-4.115-2.347a3.056,3.056,0,0,0-2.784,0l-4.181,2.412c-.764.448-.775,1.168,0,1.6l4.159,2.423a3.122,3.122,0,0,0,2.784,0l4.181-2.423a.851.851,0,0,0,0-1.6m-9.617-5.578-4.148-2.423a3.122,3.122,0,0,0-2.784,0l-4.181,2.423a.851.851,0,0,0,0,1.6l4.159,2.412a3.035,3.035,0,0,0,2.773,0l4.181-2.412c.775-.448.775-1.168,0-1.6m-13.1,2.751a3.035,3.035,0,0,0-2.773,0l-4.181,2.412a.851.851,0,0,0,0,1.6l4.148,2.412a3.057,3.057,0,0,0,2.784,0l4.181-2.412c.775-.448.775-1.168,0-1.6l-4.159-2.412m-8.351,15.861a3.056,3.056,0,0,0-2.784,0l-4.148,2.412a.851.851,0,0,0,0,1.616l4.148,2.412a3.122,3.122,0,0,0,2.784,0l4.181-2.412a.851.851,0,0,0,0-1.616L222.5,394.37m-9.529-5.534a3.056,3.056,0,0,0-2.784,0l-4.181,2.412a.851.851,0,0,0,0,1.6l4.159,2.412a3.035,3.035,0,0,0,2.773,0l4.181-2.412c.775-.448.775-1.168,0-1.6l-4.148-2.412m-26.831,15.489a3.056,3.056,0,0,0-2.784,0l-4.181,2.412a.851.851,0,0,0,0,1.6l4.159,2.412a3.035,3.035,0,0,0,2.773,0l4.181-2.412c.775-.448.775-1.168,0-1.6l-4.148-2.412m9.529,5.534a3.056,3.056,0,0,0-2.784,0l-4.181,2.412a.851.851,0,0,0,0,1.616l4.148,2.412a3.056,3.056,0,0,0,2.784,0l4.181-2.412a.851.851,0,0,0,0-1.616l-4.148-2.412m-39.144,9.955-4.181,2.412c-.764.448-.775,1.168,0,1.6l4.159,2.412a3.067,3.067,0,0,0,2.773,0l4.181-2.423a.851.851,0,0,0,0-1.6l-4.148-2.412a3.056,3.056,0,0,0-2.784,0m5.349,9.562,4.148,2.412a3.056,3.056,0,0,0,2.784,0l4.181-2.412a.851.851,0,0,0,0-1.616l-4.148-2.412a3.056,3.056,0,0,0-2.783,0l-4.181,2.412a.851.851,0,0,0,0,1.616m3.6-14.725-4.192,2.412c-.764.448-.775,1.168,0,1.6l4.148,2.412a3.056,3.056,0,0,0,2.784,0l4.181-2.412a.851.851,0,0,0,0-1.6l-4.148-2.412a3.035,3.035,0,0,0-2.773,0m9.486,12.007a3.057,3.057,0,0,0,2.784,0l4.181-2.412a.851.851,0,0,0,0-1.616l-4.159-2.412a3.035,3.035,0,0,0-2.773,0l-4.213,2.38a.851.851,0,0,0,0,1.616l4.148,2.412m2.183-17.138a3.034,3.034,0,0,0-2.773,0l-4.181,2.412c-.775.448-.775,1.168,0,1.6l4.148,2.412a3.056,3.056,0,0,0,2.784,0l4.181-2.412a.851.851,0,0,0,0-1.6l-4.093-2.4m6.7,12.007a3.035,3.035,0,0,0,2.773,0l4.181-2.412a.851.851,0,0,0,0-1.616l-4.148-2.412a3.056,3.056,0,0,0-2.784,0l-4.181,2.412a.851.851,0,0,0,0,1.616l4.159,2.412m29.647-21.93a3.057,3.057,0,0,0-2.784,0l-4.181,2.412a.851.851,0,0,0,0,1.616l4.159,2.412a3.035,3.035,0,0,0,2.773,0l4.181-2.412a.851.851,0,0,0,0-1.616l-4.148-2.412m-9.54-5.534a3.035,3.035,0,0,0-2.773,0l-4.159,2.358a.851.851,0,0,0,0,1.6l4.148,2.412a3.056,3.056,0,0,0,2.784,0l4.181-2.412c.775-.448.775-1.168,0-1.6l-4.159-2.412m-73.048,31.132,4.159,2.412a3.035,3.035,0,0,0,2.773,0l4.181-2.412a.851.851,0,0,0,0-1.616l-4.148-2.412a3.056,3.056,0,0,0-2.784,0l-4.181,2.412a.851.851,0,0,0,0,1.616m120.848-31.83-4.159-2.347a3.1,3.1,0,0,0-2.773,0l-4.181,2.423a.851.851,0,0,0,0,1.6l4.148,2.412a3.056,3.056,0,0,0,2.784,0l4.181-2.412c.764-.448.775-1.168,0-1.6m9.169-5.305-4.148-2.412a3.122,3.122,0,0,0-2.784,0l-4.181,2.412a.851.851,0,0,0,0,1.616l4.159,2.412a3.034,3.034,0,0,0,2.773,0l4.181-2.412a.851.851,0,0,0,0-1.616m-69.064,39.875-4.148-2.412a3.056,3.056,0,0,0-2.784,0l-4.181,2.412a.851.851,0,0,0,0,1.616l4.159,2.412a3.034,3.034,0,0,0,2.773,0l4.181-2.412a.851.851,0,0,0,0-1.616m28.6-54.458,4.148,2.412a3.056,3.056,0,0,0,2.784,0l4.181-2.412c.775-.448.775-1.157,0-1.6l-4.159-2.412a3.034,3.034,0,0,0-2.773,0l-4.181,2.412a.851.851,0,0,0,0,1.6m8.951-5.163,4.159,2.412a3.1,3.1,0,0,0,2.773,0l4.181-2.412a.851.851,0,0,0,0-1.616l-4.148-2.412a3.056,3.056,0,0,0-2.784,0l-4.181,2.412a.851.851,0,0,0,0,1.616m-26.864,15.5,4.159,2.423a3.1,3.1,0,0,0,2.773,0l4.181-2.423a.851.851,0,0,0,0-1.6l-4.148-2.412a3.056,3.056,0,0,0-2.783,0l-4.17,2.412c-.775.448-.775,1.168,0,1.6m-7.532,15.4a3.056,3.056,0,0,0-2.784,0l-4.181,2.412a.851.851,0,0,0,0,1.6l4.148,2.412a3.056,3.056,0,0,0,2.784,0l4.181-2.412a.851.851,0,0,0,0-1.6l-4.148-2.412m9.529,5.534a3.035,3.035,0,0,0-2.773,0l-4.181,2.412a.851.851,0,0,0,0,1.616l4.148,2.412a3.089,3.089,0,0,0,2.783,0l4.181-2.412a.851.851,0,0,0,0-1.616l-4.148-2.456m-21.831,28.479-4.159-2.423a3.1,3.1,0,0,0-2.773,0l-4.192,2.423a.851.851,0,0,0,0,1.6l4.159,2.412a3.034,3.034,0,0,0,2.773,0l4.181-2.412c.764-.448.775-1.168,0-1.6m52.832-39.941a.851.851,0,0,0,0-1.616l-4.159-2.412a3.035,3.035,0,0,0-2.773,0l-4.192,2.412a.851.851,0,0,0,0,1.616l4.148,2.412a3.122,3.122,0,0,0,2.784,0l4.181-2.412m-13.677-9.562a3.089,3.089,0,0,0-2.784,0l-4.181,2.423a.851.851,0,0,0,0,1.6l4.148,2.412a3.056,3.056,0,0,0,2.784,0l4.181-2.412c.764-.448.775-1.168,0-1.6l-4.148-2.412" transform="translate(-76.863 -327.569)"/><path class="br" d="M195.3,390.838a3.035,3.035,0,0,1,2.773,0l4.159,2.412a.848.848,0,0,1,0,1.6l-4.181,2.412a3.056,3.056,0,0,1-2.784,0l-4.148-2.412a.851.851,0,0,1,0-1.6Z" transform="translate(-70.921 -324.408)"/><path class="br" d="M187.64,405.368a3.056,3.056,0,0,1,2.784,0l4.148,2.412a.851.851,0,0,1,0,1.616l-4.181,2.412a3.056,3.056,0,0,1-2.784,0l-4.148-2.412a.851.851,0,0,1,0-1.616Z" transform="translate(-71.624 -323.078)"/><path class="br" d="M179.45,410.1a3.057,3.057,0,0,1,2.784,0l4.148,2.412a.851.851,0,0,1,0,1.616l-4.192,2.445a3.035,3.035,0,0,1-2.773,0l-4.159-2.412a.851.851,0,0,1,0-1.616Z" transform="translate(-72.375 -322.645)"/><path class="br" d="M230.354,392.838a3.056,3.056,0,0,1,2.784,0l4.148,2.412a.851.851,0,0,1,0,1.6L191.57,423.26a3.122,3.122,0,0,1-2.784,0l-4.148-2.412a.851.851,0,0,1,0-1.616Z" transform="translate(-71.516 -324.225)"/><path class="br" d="M242.461,363.908a3.035,3.035,0,0,1,2.773,0l4.159,2.412a.851.851,0,0,1,0,1.6l-10.37,5.993a3.056,3.056,0,0,1-2.784,0l-4.192-2.412a.851.851,0,0,1,0-1.6Z" transform="translate(-67.173 -326.874)"/><path class="br" d="M200.4,377.778a3.056,3.056,0,0,1,2.784,0l4.148,2.412a.851.851,0,0,1,0,1.6l-4.181,2.423a3.1,3.1,0,0,1-2.773,0l-4.159-2.423a.848.848,0,0,1,0-1.6Z" transform="translate(-70.455 -325.604)"/><path class="br" d="M163.06,419.558a3.056,3.056,0,0,1,2.784,0l4.148,2.412a.851.851,0,0,1,0,1.616L165.81,426a3.056,3.056,0,0,1-2.784,0l-4.148-2.412a.851.851,0,0,1,0-1.616Z" transform="translate(-73.875 -321.779)"/></g><g transform="translate(309.22 316.428)"><g class="bs"><g transform="translate(0 -0.001)"><path class="bt" d="M286.839,290.759l-3.559-2.074a1.409,1.409,0,0,1,.426-.175l3.559,2.074a1.527,1.527,0,0,0-.426.175" transform="translate(-283.28 -288.499)"/><path class="bu" d="M287.229,290.585l-3.559-2.074a.989.989,0,0,1,.251,0l3.559,2.063a1.016,1.016,0,0,0-.251,0" transform="translate(-283.244 -288.5)"/><path class="bv" d="M287.459,290.563,283.9,288.5h.2l3.559,2.074h-.2" transform="translate(-283.223 -288.5)"/><path class="bw" d="M287.639,290.6l-3.559-2.074.12.055,3.559,2.074-.12-.055" transform="translate(-283.207 -288.497)"/></g></g></g><g transform="translate(172.3 494.888)"><g class="bx"><path class="by" d="M161.824,454.959l-3.559-2.074a.972.972,0,0,1-.415-.9l3.569,2.074a.983.983,0,0,0,.4.9" transform="translate(-157.846 -451.99)"/></g></g><path class="bz" d="M161.442,462.24l-3.569-2.074L157.6,362.7l3.559,2.074Z" transform="translate(14.431 34.721)"/><path class="ca" d="M162.429,369.141l-3.559-2.063,135.8-78.407,3.559,2.074Z" transform="translate(14.548 27.942)"/><g transform="translate(172.031 395.02)"><g class="cb"><g transform="translate(0 -0.044)"><path class="cc" d="M161.159,364.821l-3.559-2.074a2.064,2.064,0,0,1,.077-.557l3.558,2.074a2.444,2.444,0,0,0-.076.557" transform="translate(-157.6 -360.302)"/><path class="cd" d="M161.229,364.293l-3.559-2.074a2.541,2.541,0,0,1,.109-.349l3.559,2.074a2.181,2.181,0,0,0-.109.349" transform="translate(-157.594 -360.331)"/><path class="ce" d="M161.3,363.97,157.74,361.9a2.331,2.331,0,0,1,.131-.306l3.559,2.074c0,.1-.1.207-.131.306" transform="translate(-157.587 -360.357)"/><path class="cf" d="M161.449,363.688l-3.559-2.074.164-.284,3.569,2.063c-.065.1-.12.2-.175.295" transform="translate(-157.573 -360.38)"/><path class="cg" d="M161.613,363.42,158,361.357c.076-.12.153-.218.229-.317L161.8,363.1a2.117,2.117,0,0,0-.229.317" transform="translate(-157.563 -360.407)"/><path class="ch" d="M161.819,363.156l-3.569-2.107a2.6,2.6,0,0,1,.677-.589l3.559,2.063a2.588,2.588,0,0,0-.666.59" transform="translate(-157.54 -360.46)"/></g></g></g><path class="ad" d="M298.049,290.586c.775-.448,1.4-.087,1.4.8l.273,97.466a3,3,0,0,1-1.386,2.4L162.541,469.658c-.775.437-1.4.087-1.4-.8L160.86,371.4a3.078,3.078,0,0,1,1.386-2.412Z" transform="translate(14.73 28.1)"/><path class="g" d="M61.145,113.575a2.183,2.183,0,0,1-1.092-.284l-.186-.109a2.191,2.191,0,1,1,2.183-3.8l.2.109a2.183,2.183,0,0,1-1.092,4.082Zm-7.783-4.366a2.183,2.183,0,0,1-1.092-.284l-.186-.109a2.191,2.191,0,1,1,2.183-3.8l.186.109a2.183,2.183,0,0,1-1.092,4.082Zm-7.794-4.366a2.183,2.183,0,0,1-1.092-.284l-.2-.109a2.191,2.191,0,1,1,2.183-3.8l.2.109a2.183,2.183,0,0,1-1.092,4.082Zm-7.794-4.366a2.183,2.183,0,0,1-1.092-.284l-.186-.109a2.191,2.191,0,0,1,2.183-3.8l.186.109a2.183,2.183,0,0,1-1.092,4.082ZM29.992,96.11a2.183,2.183,0,0,1-1.092-.284l-.186-.109a2.191,2.191,0,1,1,2.183-3.8l.2.109A2.183,2.183,0,0,1,30,96.11ZM22.2,91.744a2.183,2.183,0,0,1-1.092-.284l-.2-.109a2.191,2.191,0,1,1,2.183-3.8l.186.109a2.035,2.035,0,0,1-1.092,3.864Zm-7.783-4.366a2.183,2.183,0,0,1-1.092-.284l-.186-.109a2.191,2.191,0,0,1,2.183-3.8l.2.109a2.183,2.183,0,0,1-1.092,4.082Zm-.5-8.656a2.183,2.183,0,0,1-2.183-2.183V76.32a2.183,2.183,0,0,1,4.366,0v.218A2.183,2.183,0,0,1,13.9,78.46Zm0-8.951a2.183,2.183,0,0,1-2.183-2.183v-.218a2.183,2.183,0,1,1,4.366,0v.218A2.183,2.183,0,0,1,13.9,69.509Zm0-8.951a2.183,2.183,0,0,1-2.183-2.183v-.218a2.183,2.183,0,1,1,4.366,0v.218A2.183,2.183,0,0,1,13.9,60.558Zm0-8.951a2.183,2.183,0,0,1-2.183-2.183v-.218a2.183,2.183,0,1,1,4.366,0v.218A2.183,2.183,0,0,1,13.9,51.607Zm0-8.951a2.183,2.183,0,0,1-2.183-2.183v-.218a2.183,2.183,0,1,1,4.366,0v.218A2.183,2.183,0,0,1,13.9,42.656Zm0-8.951a2.183,2.183,0,0,1-2.183-2.183v-.218a2.183,2.183,0,1,1,4.366,0v.218A2.183,2.183,0,0,1,13.9,33.705Zm0-8.951a2.183,2.183,0,0,1-2.183-2.183v-.218a2.183,2.183,0,1,1,4.366,0v.218A2.183,2.183,0,0,1,13.9,24.754Zm0-8.951a2.183,2.183,0,0,1-2.183-2.183v-.218a2.183,2.183,0,1,1,4.366,0v.218A2.183,2.183,0,0,1,13.9,15.8Zm0-8.951A2.183,2.183,0,0,1,11.73,4.931V4.713a2.183,2.183,0,1,1,4.366,0v.218A2.183,2.183,0,0,1,13.9,6.853Z" transform="translate(1.074 1.741)"/><circle class="g" cx="4.923" cy="4.923" r="4.923" transform="translate(8.541 9.096) rotate(-67.5)"/><path class="g" d="M60.98,110.353a4.923,4.923,0,1,0-1.867-6.713,4.923,4.923,0,0,0,1.867,6.713Z" transform="translate(5.355 10.77)"/></g></g></svg>