<svg xmlns="http://www.w3.org/2000/svg" xmlns:xlink="http://www.w3.org/1999/xlink" viewBox="762.248 159.831 447.92 492.348"><defs><style>.a{fill:url(#a);}.b{fill:#fff;}.c{fill:#5253fb;}.d{filter:url(#n);}.e{filter:url(#l);}.f{filter:url(#j);}.g{filter:url(#h);}.h{filter:url(#f);}.i{filter:url(#d);}.j{filter:url(#b);}</style><radialGradient id="a" cx="0.5" cy="0.5" r="0.5" gradientUnits="objectBoundingBox"><stop offset="0" stop-color="#654aff" stop-opacity="0"/><stop offset="1" stop-color="#fff" stop-opacity="0.396"/></radialGradient><filter id="b" x="1019.537" y="393.843" width="91.184" height="91.184" filterUnits="userSpaceOnUse"><feOffset input="SourceAlpha"/><feGaussianBlur stdDeviation="12.5" result="c"/><feFlood flood-color="#080036" flood-opacity="0.051"/><feComposite operator="in" in2="c"/><feComposite in="SourceGraphic"/></filter><filter id="d" x="762.248" y="460.468" width="125.659" height="125.659" filterUnits="userSpaceOnUse"><feOffset input="SourceAlpha"/><feGaussianBlur stdDeviation="12.5" result="e"/><feFlood flood-color="#fff" flood-opacity="0.4"/><feComposite operator="in" in2="e"/><feComposite in="SourceGraphic"/></filter><filter id="f" x="1070.605" y="500.647" width="105.531" height="105.531" filterUnits="userSpaceOnUse"><feOffset input="SourceAlpha"/><feGaussianBlur stdDeviation="12.5" result="g"/><feFlood flood-color="#fff" flood-opacity="0.4"/><feComposite operator="in" in2="g"/><feComposite in="SourceGraphic"/></filter><filter id="h" x="895.605" y="546.647" width="105.531" height="105.531" filterUnits="userSpaceOnUse"><feOffset input="SourceAlpha"/><feGaussianBlur stdDeviation="12.5" result="i"/><feFlood flood-color="#fff" flood-opacity="0.4"/><feComposite operator="in" in2="i"/><feComposite in="SourceGraphic"/></filter><filter id="j" x="1019.836" y="180.666" width="101.215" height="101.215" filterUnits="userSpaceOnUse"><feOffset input="SourceAlpha"/><feGaussianBlur stdDeviation="12.5" result="k"/><feFlood flood-color="#fff" flood-opacity="0.4"/><feComposite operator="in" in2="k"/><feComposite in="SourceGraphic"/></filter><filter id="l" x="1110.009" y="259.126" width="100.159" height="100.159" filterUnits="userSpaceOnUse"><feOffset input="SourceAlpha"/><feGaussianBlur stdDeviation="12.5" result="m"/><feFlood flood-color="#fff" flood-opacity="0.4"/><feComposite operator="in" in2="m"/><feComposite in="SourceGraphic"/></filter><filter id="n" x="771.544" y="159.831" width="116.712" height="116.712" filterUnits="userSpaceOnUse"><feOffset input="SourceAlpha"/><feGaussianBlur stdDeviation="12.5" result="o"/><feFlood flood-color="#fff" flood-opacity="0.396"/><feComposite operator="in" in2="o"/><feComposite in="SourceGraphic"/></filter></defs><g transform="translate(109.824 98)"><path class="a" d="M154.532,0,0,156.439,154.532,311.5,311.5,156.439Zm153.1,155.591L185.258,128.573,155.485,3.92ZM201.945,198.4l-16.158-67.545,118.561,26.17L202.263,198.5Zm-1.642,2.119-45.136,104.31L126.3,184.039,200.3,200.2ZM125.66,181.761,109.449,114l74.061,16.317,16.158,67.6Zm-18.489-68.286,16.211,67.757L6.94,155.75l99.86-42.381Zm1.7-2.119L154,6.675,182.98,128.043l-74.061-16.37ZM152.254,5.351,106.641,111.2l-101.5,43.07ZM3.814,157.286l120.1,26.276L153.578,307.58Zm153,148.969,45.718-105.582,103.886-42.222Z" transform="translate(708.176 124)"/><g transform="translate(947.213 333.343)"><g class="j" transform="matrix(1, 0, 0, 1, -1057.04, -431.34)"><circle class="b" cx="8.092" cy="8.092" r="8.092" transform="translate(1057.04 431.34)"/></g><path class="c" d="M5.785,7.564l-.2-.913A.181.181,0,0,0,5.5,6.528a.178.178,0,0,0-.149-.009l-.026.009-.07.018c-.026.009-.07.018-.105.026S5.056,6.589,5,6.6l-.167.026a1.315,1.315,0,0,1-.193.018,1.623,1.623,0,0,1-.2.009A2.3,2.3,0,0,1,2.282,5.193H4.495a.185.185,0,0,0,.114-.044.163.163,0,0,0,.061-.105l.14-.641a.2.2,0,0,0-.035-.158.183.183,0,0,0-.14-.07H2c-.009-.263-.009-.456,0-.6H4.793a.168.168,0,0,0,.184-.149l.14-.65a.162.162,0,0,0-.044-.149.171.171,0,0,0-.14-.07H2.256a2.25,2.25,0,0,1,.86-1.01,2.333,2.333,0,0,1,1.29-.369.371.371,0,0,1,.167.009c.1.009.149.018.167.018a.713.713,0,0,1,.149.018c.088.009.132.018.132.018l.1.018c.026.009.053.009.07.018l.026.009a.158.158,0,0,0,.14-.018.155.155,0,0,0,.079-.114l.237-.9a.193.193,0,0,0-.018-.14A.268.268,0,0,0,5.539.032,4.545,4.545,0,0,0,4.433-.1a3.925,3.925,0,0,0-2.3.737,3.727,3.727,0,0,0-1.4,1.931H.184a.179.179,0,0,0-.132.053A.215.215,0,0,0,0,2.762v.65A.18.18,0,0,0,.184,3.6H.571c-.009.184-.018.386-.009.6H.184a.179.179,0,0,0-.132.053A.194.194,0,0,0,0,4.377v.65a.18.18,0,0,0,.184.184H.729a3.686,3.686,0,0,0,1.361,2.01,3.8,3.8,0,0,0,2.344.746,1.835,1.835,0,0,0,.219-.009,1.573,1.573,0,0,0,.211-.018l.193-.026.176-.026.149-.026A.5.5,0,0,0,5.5,7.827.546.546,0,0,0,5.592,7.8a.56.56,0,0,0,.061-.018l.026-.009a.215.215,0,0,0,.1-.079.226.226,0,0,0,.009-.132Zm0,0" transform="translate(4.633 4.212)"/></g><g transform="translate(689.924 399.968)"><g class="i" transform="matrix(1, 0, 0, 1, -799.75, -497.97)"><circle class="b" cx="25.329" cy="25.329" r="25.329" transform="translate(799.75 497.97)"/></g><g transform="translate(15.539 9.457)"><path class="c" d="M9.886,297.6c-.048-.085-.091-.175-.145-.254q-4.8-6.671-9.614-13.349c-.03-.042-.054-.085-.127-.193a2.3,2.3,0,0,1,.254.115q4.6,2.737,9.2,5.487a.481.481,0,0,0,.562.006q4.768-2.756,9.542-5.493a.8.8,0,0,1,.314-.115c-.073.109-.151.211-.224.32q-4.8,6.671-9.608,13.349a1.428,1.428,0,0,0-.079.127Z" transform="translate(0 -266.65)"/><path class="c" d="M25.911,15.651l-.236.157q-4.614,2.656-9.234,5.312a.372.372,0,0,1-.435,0q-4.469-2.674-8.937-5.336c-.042-.024-.085-.054-.169-.109L16.412,0C19.59,5.233,22.745,10.436,25.911,15.651Z" transform="translate(-6.483)"/></g></g><g transform="translate(998.281 440.147)"><g class="h" transform="matrix(1, 0, 0, 1, -1108.1, -538.15)"><circle class="b" cx="15.266" cy="15.266" r="15.266" transform="translate(1108.1 538.15)"/></g><g transform="translate(9.307 7.357)"><path class="c" d="M66.136.183A.35.35,0,0,0,65.827,0H63.638a.332.332,0,0,0-.332.218L61.116,5.032q-.08.195-.315.7t-.35.779q-.424-1-.642-1.433L57.345.206A.362.362,0,0,0,57.013,0H54.789a.359.359,0,0,0-.321.183.39.39,0,0,0,0,.367l3.679,6.625H55.694a.372.372,0,0,0-.367.367V8.734A.347.347,0,0,0,55.436,9a.363.363,0,0,0,.258.1H59v.974h-3.3a.372.372,0,0,0-.367.367v1.18a.347.347,0,0,0,.109.264.362.362,0,0,0,.258.1H59v3.782a.347.347,0,0,0,.109.263.363.363,0,0,0,.258.1h1.972a.371.371,0,0,0,.367-.367V11.989h3.324a.362.362,0,0,0,.258-.1.347.347,0,0,0,.109-.264v-1.18a.372.372,0,0,0-.367-.367H61.7V9.1h3.324a.362.362,0,0,0,.258-.1.347.347,0,0,0,.109-.264V7.542a.371.371,0,0,0-.367-.367H62.56L66.148.539A.347.347,0,0,0,66.136.183Z" transform="translate(-54.422)"/></g></g><g transform="translate(823.281 486.147)"><g class="g" transform="matrix(1, 0, 0, 1, -933.1, -584.15)"><path class="b" d="M15.266,0A15.266,15.266,0,1,1,0,15.266,15.266,15.266,0,0,1,15.266,0Z" transform="translate(933.1 584.15)"/></g><g transform="translate(22.756 23.556) rotate(180)"><path class="c" d="M15.321,0H.416a.416.416,0,0,0,0,.832h.9V15.819a.421.421,0,0,0,.217.368.405.405,0,0,0,.425-.022l1.807-1.2,1.811,1.2a.4.4,0,0,0,.459,0l1.807-1.2,1.811,1.2a.4.4,0,0,0,.459,0l1.807-1.2,1.811,1.2a.432.432,0,0,0,.23.069.48.48,0,0,0,.2-.048.421.421,0,0,0,.217-.368L14.364.832h.945a.416.416,0,0,0,.416-.416.4.4,0,0,0-.4-.416ZM13.553,15.044l-1.4-.927a.4.4,0,0,0-.459,0l-1.807,1.2-1.811-1.2a.4.4,0,0,0-.459,0l-1.807,1.2L4,14.117a.4.4,0,0,0-.459,0l-1.391.927V.832h11.4Zm0,0" transform="translate(15.725 16.238) rotate(180)"/><path class="c" d="M.416.832H4.775a.416.416,0,1,0,0-.832H.416a.416.416,0,1,0,0,.832Zm0,0" transform="translate(12.081 10.427) rotate(180)"/><path class="c" d="M.416.832H3.679a.416.416,0,1,0,0-.832H.416a.416.416,0,1,0,0,.832Zm0,0" transform="translate(12.081 8.984) rotate(180)"/><path class="c" d="M.416.832H1.5A.416.416,0,0,0,1.5,0H.416a.416.416,0,0,0,0,.832Zm0,0" transform="translate(5.547 10.427) rotate(180)"/><path class="c" d="M.416.832H1.5A.416.416,0,1,0,1.5,0H.416a.416.416,0,0,0,0,.832Zm0,0" transform="translate(5.547 8.984) rotate(180)"/><path class="c" d="M.416.832H4.775a.416.416,0,1,0,0-.832H.416a.416.416,0,1,0,0,.832Zm0,0" transform="translate(12.081 13.768) rotate(180)"/><path class="c" d="M.416.832H3.679a.416.416,0,1,0,0-.832H.416a.416.416,0,1,0,0,.832Zm0,0" transform="translate(12.081 12.325) rotate(180)"/><path class="c" d="M.416.832H1.5A.416.416,0,0,0,1.5,0H.416a.416.416,0,0,0,0,.832Zm0,0" transform="translate(5.547 13.768) rotate(180)"/><path class="c" d="M.416.832H1.5A.416.416,0,0,0,1.5,0H.416a.416.416,0,0,0,0,.832Zm0,0" transform="translate(5.547 12.325) rotate(180)"/><path class="c" d="M.416.832H4.775a.416.416,0,1,0,0-.832H.416a.416.416,0,1,0,0,.832Zm0,0" transform="translate(12.081 7.047) rotate(180)"/><path class="c" d="M.416.832H3.679a.416.416,0,0,0,0-.832H.416a.416.416,0,1,0,0,.832Zm0,0" transform="translate(12.081 5.605) rotate(180)"/><path class="c" d="M.416.832H1.5A.416.416,0,0,0,1.5,0H.416a.416.416,0,0,0,0,.832Zm0,0" transform="translate(5.547 7.047) rotate(180)"/><path class="c" d="M.416.832H1.5A.416.416,0,0,0,1.5,0H.416a.416.416,0,0,0,0,.832Zm0,0" transform="translate(5.547 5.605) rotate(180)"/></g></g><g transform="translate(947.512 120.166)"><g class="f" transform="matrix(1, 0, 0, 1, -1057.34, -218.17)"><circle class="b" cx="13.107" cy="13.107" r="13.107" transform="translate(1057.34 218.17)"/></g><path class="c" d="M7.06,8.18a21.4,21.4,0,0,0-2.214-1A4.777,4.777,0,0,1,3.631,6.5,1.055,1.055,0,0,1,3.892,4.62a2.154,2.154,0,0,1,.743-.154,5.647,5.647,0,0,1,2.794.551c.439.215.589.145.738-.313.159-.486.29-.981.434-1.467a.511.511,0,0,0-.332-.682A7.06,7.06,0,0,0,6.5,2.027c-.8-.121-.8-.126-.8-.93,0-1.14,0-1.14-1.135-1.14-.164,0-.327,0-.5,0C3.542-.024,3.448.07,3.434.6c-.009.238,0,.477,0,.719,0,.71-.009.7-.687.944A3.791,3.791,0,0,0-.028,5.779,3.6,3.6,0,0,0,2.009,9.222a22.646,22.646,0,0,0,2.546,1.145,3.687,3.687,0,0,1,.925.547,1.272,1.272,0,0,1-.3,2.228,3.053,3.053,0,0,1-1.635.215,7.306,7.306,0,0,1-2.49-.743c-.458-.238-.593-.178-.752.322-.135.43-.252.864-.374,1.3-.159.584-.1.719.458,1a7.964,7.964,0,0,0,2.242.645c.607.1.626.121.631.752,0,.285,0,.57.009.855a.507.507,0,0,0,.547.575c.42.009.841.009,1.261,0a.479.479,0,0,0,.519-.542c0-.388.019-.78,0-1.168a.615.615,0,0,1,.533-.7,4.22,4.22,0,0,0,2.2-1.411A3.978,3.978,0,0,0,7.06,8.18Zm0,0" transform="translate(8.729 4.176)"/></g><g transform="translate(1037.685 198.626)"><g class="e" transform="matrix(1, 0, 0, 1, -1147.51, -296.63)"><circle class="b" cx="12.579" cy="12.579" r="12.579" transform="translate(1147.51 296.63)"/></g><path class="c" d="M3.354,6.2H6.218V7.542H3.638a2.019,2.019,0,0,1,.173.8,4.276,4.276,0,0,1-.376,1.671A6.223,6.223,0,0,1,2.2,11.81a4.988,4.988,0,0,1,1.307-.2,7.316,7.316,0,0,1,1.7.228,11.172,11.172,0,0,0,2.119.372A4.343,4.343,0,0,0,9.064,11.7l.529,1.5a9.408,9.408,0,0,1-1.294.465,3.967,3.967,0,0,1-.914.11,4.431,4.431,0,0,1-.774-.072c-.165-.03-.554-.14-1.176-.33s-1.024-.3-1.205-.343a5.294,5.294,0,0,0-.854-.072,4.756,4.756,0,0,0-1.4.228A5.537,5.537,0,0,0,.63,13.81L0,12.233a4.316,4.316,0,0,0,1.48-1.375A3.791,3.791,0,0,0,2.09,8.671a4.2,4.2,0,0,0-.157-1.125H.157V6.2h1.4c-.2-.677-.326-1.176-.381-1.485A5.27,5.27,0,0,1,1.1,3.8,3.49,3.49,0,0,1,2.5.85,4.364,4.364,0,0,1,5.215,0,4.038,4.038,0,0,1,7.927.905,3.947,3.947,0,0,1,9.238,3.443l-1.624.245A2.712,2.712,0,0,0,6.8,1.971a2.3,2.3,0,0,0-1.62-.626A2.293,2.293,0,0,0,3.506,2a2.1,2.1,0,0,0-.673,1.565A9.113,9.113,0,0,0,3.354,6.2Zm0,0" transform="translate(7.717 5.432)"/></g><g transform="translate(699.22 99.331)"><g class="d" transform="matrix(1, 0, 0, 1, -809.04, -197.33)"><circle class="b" cx="20.856" cy="20.856" r="20.856" transform="translate(809.04 197.33)"/></g><path class="c" d="M1.191,21.432H2.381v1.191a1.191,1.191,0,0,0,2.381,0V21.432H7.144v1.191a1.191,1.191,0,0,0,2.381,0V21.432h.6a5.338,5.338,0,0,0,2.657-9.979A5.326,5.326,0,0,0,9.525,2.441V1.191a1.191,1.191,0,1,0-2.381,0V2.381H4.763V1.191a1.191,1.191,0,1,0-2.381,0V2.381H1.191A1.194,1.194,0,0,0,0,3.572V20.241A1.194,1.194,0,0,0,1.191,21.432Zm8.93-2.381H2.381V13.1h7.739a2.977,2.977,0,0,1,0,5.953ZM2.381,4.763H8.93a2.977,2.977,0,1,1,0,5.953H2.381Z" transform="translate(13.904 9.051)"/></g></g></svg>