<svg xmlns="http://www.w3.org/2000/svg" xmlns:xlink="http://www.w3.org/1999/xlink" viewBox="698.192 1742 44.121 42.575">
  <defs>
    <style>
      .cls-1 {
        fill: url(#linear-gradient);
      }
    </style>
    <linearGradient id="linear-gradient" x1="-0.114" y1="1" x2="1.166" gradientUnits="objectBoundingBox">
      <stop offset="0" stop-color="#5253fb"/>
      <stop offset="1" stop-color="#7745ff"/>
    </linearGradient>
  </defs>
  <path id="Union_3" data-name="Union 3" class="cls-1" d="M21.729,42.468.535,34.654A.955.955,0,0,1,0,33.8V8.643A.762.762,0,0,1,.321,8c.106,0,.106-.107.214-.107L21.729.08a.681.681,0,0,1,.642,0L43.565,7.894c.321.107.642.428.535.749V33.8a.848.848,0,0,1-.535.856L22.371,42.468a.393.393,0,0,1-.321.107C21.943,42.575,21.836,42.468,21.729,42.468ZM1.713,33.262l19.481,7.386V17.313l-4.175-1.606V25.77a1.084,1.084,0,0,1-.429.749c-.214,0-.321.107-.535.107-.107,0-.214-.107-.321-.107L6.208,22.986a.954.954,0,0,1-.535-.856v-10.7l-3.96-1.5ZM23.013,17.1V40.434l19.481-7.172V9.927ZM7.493,21.488l7.707,2.89V14.959l-7.707-2.89ZM16.377,6.4,25.9,9.821a.953.953,0,0,1,.535.856.847.847,0,0,1-.535.856l-7.279,2.676,3.425,1.285L40.675,8.643,22.051,1.793,3.425,8.643,6.637,9.821l9.2-3.425ZM9.1,10.784l6.957,2.569,6.957-2.569L16.056,8.215ZM26.867,36.153a1.014,1.014,0,0,1,.535-1.178l.428-.107a.867.867,0,1,1,.643,1.606l-.429.107a.393.393,0,0,1-.321.107A.847.847,0,0,1,26.867,36.153Zm3-.964a1.015,1.015,0,0,1,.535-1.178l9.1-3.425a.9.9,0,0,1,1.177.428,1.014,1.014,0,0,1-.535,1.178l-9.1,3.425a.391.391,0,0,1-.321.107A.847.847,0,0,1,29.864,35.189Zm1.82-4.389a1.013,1.013,0,0,1,.535-1.177L39.5,26.947a1.187,1.187,0,0,1,1.177.429,1.013,1.013,0,0,1-.535,1.177l-7.279,2.676a.393.393,0,0,1-.321.107A.847.847,0,0,1,31.684,30.8Zm0-3.532a1.014,1.014,0,0,1,.535-1.178L39.5,23.415a1.188,1.188,0,0,1,1.177.428,1.014,1.014,0,0,1-.535,1.178L32.861,27.7a.393.393,0,0,1-.321.107A.847.847,0,0,1,31.684,27.268Z" transform="translate(698.192 1742)"/>
</svg>
