<svg xmlns="http://www.w3.org/2000/svg" viewBox="1208.983 1470.487 15.468 19.713"><defs><style>.a{fill:#fff;}</style></defs><g transform="translate(1208.983 1470.487)"><path class="a" d="M10.966,156.481l-.05-.021c-.121-.057-.235-.1-.341-.142a4.131,4.131,0,0,0-.391-.142l-.313-.1q-.245-.075-.491-.128c-.057-.014-.114-.021-.171-.036l-.036-.007c-.1-.021-.2-.036-.3-.05l-.021-.007H8.811c-.085-.014-.164-.021-.249-.036l-.3-.021a9.251,9.251,0,0,0-1.088,0l-.27.021c-.107.014-.213.028-.334.043l-.036.007-.22.043c-.078.014-.164.028-.249.05-.156.036-.313.078-.469.121-.114.036-.235.071-.356.114l-.071.028c-.235.085-.476.178-.7.284l-.114.057h0A7.771,7.771,0,0,0,0,163.507c0,.064.007.128.007.192l.028.711h15.4l.028-.683c.007-.071.007-.142.007-.22A7.753,7.753,0,0,0,10.966,156.481Zm-9.729,6.692a6.53,6.53,0,0,1,3.712-5.547l.114-.043.014-.014c.164-.071.327-.142.5-.2l.057-.021a2.948,2.948,0,0,1,.306-.092c.128-.036.256-.071.384-.1l.206-.043.021-.007a1.365,1.365,0,0,0,.149-.028l.021-.007c.121-.021.213-.028.3-.043l.235-.021a6.893,6.893,0,0,1,.939,0l.228.021c.057.007.107.014.178.021l.085.014.256.043.043.007c.05.007.092.021.135.028.128.028.263.064.412.107.107.028.192.057.263.078.107.036.213.078.327.121s.206.085.306.128l.021.007a6.524,6.524,0,0,1,3.79,5.583h-13Z" transform="translate(0 -144.697)"/><path class="a" d="M42.708,9.444h0l.171.064.128.05c.05.021.1.036.149.057a4.792,4.792,0,0,0,1.422.22h.043a3.9,3.9,0,0,0,.5-.028l.171-.021.107-.014a1.474,1.474,0,0,0,.213-.036c.05-.014.1-.021.149-.036l.128-.036a1.906,1.906,0,0,0,.192-.05c.043-.014.085-.028.121-.043l.1-.036.235-.085c.028-.014.064-.028.092-.043l.028-.014c.1-.043.2-.092.306-.149l.071-.043c.1-.057.228-.128.348-.213a1.93,1.93,0,0,0,.178-.135l.185-.142L47.75,8.7a4.868,4.868,0,0,0,1.785-3.741V4.921a4.912,4.912,0,0,0-9.814-.313l-.007.057c-.007.071-.014.164-.014.249A4.913,4.913,0,0,0,42.708,9.444Zm-1.771-4.53c0-.05.007-.1.007-.156l.007-.078a3.687,3.687,0,0,1,7.368.192v.043a3.687,3.687,0,0,1-1.344,2.837L46.8,7.88l-.007.007c-.036.028-.064.057-.107.085-.078.057-.171.107-.256.156l-.05.036a2.32,2.32,0,0,1-.228.107l-.1.05c-.043.014-.092.036-.142.05l-.149.057a.1.1,0,0,1-.043.014.46.46,0,0,0-.092.028l-.2.05a.453.453,0,0,0-.05.014l-.121.021-.156.021c-.028.007-.057.007-.085.014a2.75,2.75,0,0,1-.341.021h-.036a3.746,3.746,0,0,1-1.1-.164l-.057-.021-.171-.064c-.036-.014-.071-.021-.107-.036A3.7,3.7,0,0,1,40.937,4.914Z" transform="translate(-36.877)"/></g></svg>