<svg xmlns="http://www.w3.org/2000/svg" viewBox="373.63 3248.442 691.516 732.973"><defs><style>.a{fill:#fff;}.b{fill:#f7f9ff;}</style></defs><circle class="a" cx="48.245" cy="48.245" r="48.245" transform="translate(436.834 3856.232)"/><circle class="a" cx="34.684" cy="34.684" r="34.684" transform="translate(796.453 3846.495)"/><circle class="a" cx="21.643" cy="21.643" r="21.643" transform="translate(573.823 3872.26)"/><path class="b" d="M2.5,44.93h2.5v2.5a2.5,2.5,0,0,0,4.992,0v-2.5h4.992v2.5a2.5,2.5,0,0,0,4.992,0v-2.5h1.248a11.191,11.191,0,0,0,5.57-20.921A11.165,11.165,0,0,0,19.969,5.117V2.5a2.5,2.5,0,1,0-4.992,0v2.5H9.985V2.5a2.5,2.5,0,1,0-4.992,0v2.5H2.5A2.5,2.5,0,0,0,0,7.488V42.434A2.5,2.5,0,0,0,2.5,44.93Zm18.721-4.992H4.992V27.458H21.217a6.24,6.24,0,0,1,0,12.481ZM4.992,9.985H18.721a6.24,6.24,0,0,1,0,12.481H4.992Z" transform="translate(469.251 3878.441)"/><g transform="translate(968.264 3839.508)"><circle class="a" cx="21.643" cy="21.643" r="21.643" transform="translate(0 0)"/><path class="b" d="M1.236,22.24H2.471v1.236a1.236,1.236,0,0,0,2.471,0V22.24H7.413v1.236a1.236,1.236,0,0,0,2.471,0V22.24H10.5a5.539,5.539,0,0,0,2.757-10.355A5.526,5.526,0,0,0,9.884,2.533v-1.3a1.236,1.236,0,1,0-2.471,0V2.471H4.942V1.236a1.236,1.236,0,1,0-2.471,0V2.471H1.236A1.239,1.239,0,0,0,0,3.707V21A1.239,1.239,0,0,0,1.236,22.24ZM10.5,19.769H2.471V13.591H10.5a3.089,3.089,0,0,1,0,6.178ZM2.471,4.942h6.8a3.089,3.089,0,0,1,0,6.178h-6.8Z" transform="translate(14.428 9.393)"/></g><circle class="a" cx="21.665" cy="21.665" r="21.665" transform="translate(895.89 3807.442)"/><g transform="translate(818.776 3861.44)"><path class="b" d="M12.638,301.436c-.062-.108-.116-.224-.185-.325Q6.311,292.583.162,284.047c-.039-.054-.07-.108-.162-.247a2.931,2.931,0,0,1,.324.147q5.875,3.5,11.757,7.014a.615.615,0,0,0,.718.008q6.095-3.523,12.2-7.022a1.019,1.019,0,0,1,.4-.147c-.093.139-.193.27-.286.409q-6.141,8.528-12.283,17.064a1.832,1.832,0,0,0-.1.162Z" transform="translate(0 -261.876)"/><path class="b" d="M31.2,20.008l-.3.2Q25,23.6,19.1,27a.475.475,0,0,1-.556,0Q12.829,23.58,7.116,20.178c-.054-.031-.108-.07-.216-.139C10.94,13.38,14.98,6.721,19.059,0,23.122,6.69,27.155,13.341,31.2,20.008Z" transform="translate(-6.367)"/></g><g transform="translate(624.73 3930.91)"><circle class="a" cx="21.528" cy="21.528" r="21.528" transform="translate(0)"/><g transform="translate(13.207 8.038)"><path class="b" d="M8.4,295.525c-.041-.072-.077-.149-.123-.216Q4.2,289.64.108,283.964c-.026-.036-.046-.072-.108-.164a1.968,1.968,0,0,1,.216.1q3.906,2.327,7.817,4.664a.409.409,0,0,0,.478.005q4.052-2.342,8.11-4.669a.677.677,0,0,1,.267-.1c-.062.092-.128.18-.19.272q-4.083,5.67-8.166,11.345a1.233,1.233,0,0,0-.067.108Z" transform="translate(0 -269.224)"/><path class="b" d="M23.058,13.3l-.2.134q-3.921,2.257-7.848,4.515a.316.316,0,0,1-.37,0q-3.8-2.273-7.6-4.535c-.036-.021-.072-.046-.144-.092L14.984,0C17.686,4.448,20.367,8.87,23.058,13.3Z" transform="translate(-6.546)"/></g></g><g transform="translate(387.225 3878.368)"><circle class="a" cx="12.975" cy="12.975" r="12.975" transform="translate(0 0)"/><path class="b" d="M3.46,6.391H6.413V7.779H3.752a2.082,2.082,0,0,1,.179.825,4.41,4.41,0,0,1-.388,1.723,6.418,6.418,0,0,1-1.278,1.854,5.145,5.145,0,0,1,1.348-.205,7.546,7.546,0,0,1,1.754.236,11.524,11.524,0,0,0,2.186.384,4.48,4.48,0,0,0,1.8-.524l.545,1.549a9.7,9.7,0,0,1-1.335.48,4.092,4.092,0,0,1-.942.113,4.57,4.57,0,0,1-.8-.074c-.17-.031-.572-.144-1.213-.34s-1.056-.314-1.243-.353a5.461,5.461,0,0,0-.881-.074,4.906,4.906,0,0,0-1.44.236,5.711,5.711,0,0,0-1.392.637L0,12.617A4.452,4.452,0,0,0,1.527,11.2a3.91,3.91,0,0,0,.628-2.256,4.326,4.326,0,0,0-.161-1.16H.161V6.4H1.605C1.4,5.7,1.27,5.183,1.213,4.864a5.435,5.435,0,0,1-.083-.942A3.6,3.6,0,0,1,2.574.877,4.5,4.5,0,0,1,5.379,0a4.165,4.165,0,0,1,2.8.934A4.071,4.071,0,0,1,9.528,3.551L7.853,3.8a2.8,2.8,0,0,0-.838-1.771,2.376,2.376,0,0,0-1.671-.646,2.365,2.365,0,0,0-1.728.672,2.163,2.163,0,0,0-.694,1.614A9.4,9.4,0,0,0,3.46,6.391Zm0,0" transform="translate(7.96 5.603)"/></g><g transform="translate(757.506 3915.828)"><circle class="a" cx="22.43" cy="22.43" r="22.43"/><path class="b" d="M5.981,11.049h5.106v2.4h-4.6A3.6,3.6,0,0,1,6.8,14.873a7.625,7.625,0,0,1-.671,2.979,11.1,11.1,0,0,1-2.21,3.205A8.894,8.894,0,0,1,6.245,20.7a13.046,13.046,0,0,1,3.032.407,19.922,19.922,0,0,0,3.779.664,7.745,7.745,0,0,0,3.107-.905l.943,2.677a16.775,16.775,0,0,1-2.308.83,7.074,7.074,0,0,1-1.629.2,7.9,7.9,0,0,1-1.38-.128c-.294-.053-.988-.249-2.1-.588s-1.825-.543-2.15-.611a9.44,9.44,0,0,0-1.524-.128,8.481,8.481,0,0,0-2.489.407,9.873,9.873,0,0,0-2.406,1.1L0,21.812a7.7,7.7,0,0,0,2.64-2.451,6.76,6.76,0,0,0,1.086-3.9,7.479,7.479,0,0,0-.279-2.006H.279v-2.4h2.5C2.421,9.85,2.195,8.96,2.1,8.41A9.4,9.4,0,0,1,1.953,6.78a6.224,6.224,0,0,1,2.5-5.264A7.781,7.781,0,0,1,9.3,0a7.2,7.2,0,0,1,4.835,1.614,7.038,7.038,0,0,1,2.338,4.525l-2.9.437a4.835,4.835,0,0,0-1.448-3.062A4.108,4.108,0,0,0,9.239,2.4,4.089,4.089,0,0,0,6.252,3.56a3.739,3.739,0,0,0-1.2,2.791,16.25,16.25,0,0,0,.928,4.7Zm0,0" transform="translate(13.761 9.685)"/></g><g transform="translate(383.684 3815.281)"><circle class="a" cx="20.663" cy="20.663" r="20.663"/><g transform="translate(10.986 11.047)"><path class="b" d="M19.6,0H.532a.532.532,0,0,0,0,1.064H1.679V20.236a.538.538,0,0,0,.277.471A.519.519,0,0,0,2.5,20.68l2.311-1.541L7.128,20.68a.518.518,0,0,0,.588,0l2.311-1.541,2.317,1.541a.518.518,0,0,0,.588,0l2.311-1.541,2.317,1.541a.553.553,0,0,0,.294.089.614.614,0,0,0,.255-.061.538.538,0,0,0,.277-.471L18.374,1.064h1.208a.532.532,0,0,0,.532-.532A.518.518,0,0,0,19.6,0ZM17.338,19.244l-1.785-1.186a.518.518,0,0,0-.588,0L12.654,19.6l-2.317-1.541a.518.518,0,0,0-.588,0L7.438,19.6,5.121,18.058a.518.518,0,0,0-.588,0L2.755,19.244V1.064H17.343Zm0,0"/><path class="b" d="M84.632,135.164h5.576a.532.532,0,1,0,0-1.064H84.632a.532.532,0,1,0,0,1.064Zm0,0" transform="translate(-79.439 -126.667)"/><path class="b" d="M84.632,168.464h4.174a.532.532,0,1,0,0-1.064H84.632a.532.532,0,1,0,0,1.064Zm0,0" transform="translate(-79.439 -158.122)"/><path class="b" d="M235.432,135.164h1.391a.532.532,0,0,0,0-1.064h-1.391a.532.532,0,1,0,0,1.064Zm0,0" transform="translate(-221.88 -126.667)"/><path class="b" d="M235.432,168.464h1.391a.532.532,0,0,0,0-1.064h-1.391a.532.532,0,1,0,0,1.064Zm0,0" transform="translate(-221.88 -158.122)"/><path class="b" d="M84.632,58.064h5.576a.532.532,0,1,0,0-1.064H84.632a.532.532,0,1,0,0,1.064Zm0,0" transform="translate(-79.439 -53.841)"/><path class="b" d="M84.632,91.364h4.174a.532.532,0,1,0,0-1.064H84.632a.532.532,0,1,0,0,1.064Zm0,0" transform="translate(-79.439 -85.295)"/><path class="b" d="M235.432,58.064h1.391a.532.532,0,0,0,0-1.064h-1.391a.532.532,0,1,0,0,1.064Zm0,0" transform="translate(-221.88 -53.841)"/><path class="b" d="M235.432,91.364h1.391a.532.532,0,0,0,0-1.064h-1.391a.532.532,0,1,0,0,1.064Zm0,0" transform="translate(-221.88 -85.295)"/><path class="b" d="M84.632,213.164h5.576a.532.532,0,1,0,0-1.064H84.632a.532.532,0,1,0,0,1.064Zm0,0" transform="translate(-79.439 -200.344)"/><path class="b" d="M84.632,246.464h4.174a.532.532,0,1,0,0-1.064H84.632a.532.532,0,1,0,0,1.064Zm0,0" transform="translate(-79.439 -231.798)"/><path class="b" d="M235.432,213.164h1.391a.532.532,0,0,0,0-1.064h-1.391a.532.532,0,1,0,0,1.064Zm0,0" transform="translate(-221.88 -200.344)"/><path class="b" d="M235.432,246.464h1.391a.532.532,0,0,0,0-1.064h-1.391a.532.532,0,1,0,0,1.064Zm0,0" transform="translate(-221.88 -231.798)"/></g></g><g transform="translate(852.825 3938.32)"><circle class="a" cx="20.663" cy="20.663" r="20.663" transform="translate(0 0)"/><g transform="translate(10.986 11.047)"><path class="b" d="M19.6,0H.532a.532.532,0,0,0,0,1.064H1.679V20.236a.538.538,0,0,0,.277.471A.519.519,0,0,0,2.5,20.68l2.311-1.541L7.128,20.68a.518.518,0,0,0,.588,0l2.311-1.541,2.317,1.541a.518.518,0,0,0,.588,0l2.311-1.541,2.317,1.541a.553.553,0,0,0,.294.089.614.614,0,0,0,.255-.061.538.538,0,0,0,.277-.471L18.374,1.064h1.208a.532.532,0,0,0,.532-.532A.518.518,0,0,0,19.6,0ZM17.338,19.244l-1.785-1.186a.518.518,0,0,0-.588,0L12.654,19.6l-2.317-1.541a.518.518,0,0,0-.588,0L7.438,19.6,5.121,18.058a.518.518,0,0,0-.588,0L2.755,19.244V1.064H17.343Zm0,0"/><path class="b" d="M84.632,135.164h5.576a.532.532,0,1,0,0-1.064H84.632a.532.532,0,1,0,0,1.064Zm0,0" transform="translate(-79.439 -126.667)"/><path class="b" d="M84.632,168.464h4.174a.532.532,0,1,0,0-1.064H84.632a.532.532,0,1,0,0,1.064Zm0,0" transform="translate(-79.439 -158.122)"/><path class="b" d="M235.432,135.164h1.391a.532.532,0,0,0,0-1.064h-1.391a.532.532,0,1,0,0,1.064Zm0,0" transform="translate(-221.88 -126.667)"/><path class="b" d="M235.432,168.464h1.391a.532.532,0,0,0,0-1.064h-1.391a.532.532,0,1,0,0,1.064Zm0,0" transform="translate(-221.88 -158.122)"/><path class="b" d="M84.632,58.064h5.576a.532.532,0,1,0,0-1.064H84.632a.532.532,0,1,0,0,1.064Zm0,0" transform="translate(-79.439 -53.841)"/><path class="b" d="M84.632,91.364h4.174a.532.532,0,1,0,0-1.064H84.632a.532.532,0,1,0,0,1.064Zm0,0" transform="translate(-79.439 -85.295)"/><path class="b" d="M235.432,58.064h1.391a.532.532,0,0,0,0-1.064h-1.391a.532.532,0,1,0,0,1.064Zm0,0" transform="translate(-221.88 -53.841)"/><path class="b" d="M235.432,91.364h1.391a.532.532,0,0,0,0-1.064h-1.391a.532.532,0,1,0,0,1.064Zm0,0" transform="translate(-221.88 -85.295)"/><path class="b" d="M84.632,213.164h5.576a.532.532,0,1,0,0-1.064H84.632a.532.532,0,1,0,0,1.064Zm0,0" transform="translate(-79.439 -200.344)"/><path class="b" d="M84.632,246.464h4.174a.532.532,0,1,0,0-1.064H84.632a.532.532,0,1,0,0,1.064Zm0,0" transform="translate(-79.439 -231.798)"/><path class="b" d="M235.432,213.164h1.391a.532.532,0,0,0,0-1.064h-1.391a.532.532,0,1,0,0,1.064Zm0,0" transform="translate(-221.88 -200.344)"/><path class="b" d="M235.432,246.464h1.391a.532.532,0,0,0,0-1.064h-1.391a.532.532,0,1,0,0,1.064Zm0,0" transform="translate(-221.88 -231.798)"/></g></g><g transform="translate(544.785 3940.09)"><circle class="a" cx="20.663" cy="20.663" r="20.663"/><g transform="translate(10.986 11.047)"><path class="b" d="M19.6,0H.532a.532.532,0,0,0,0,1.064H1.679V20.236a.538.538,0,0,0,.277.471A.519.519,0,0,0,2.5,20.68l2.311-1.541L7.128,20.68a.518.518,0,0,0,.588,0l2.311-1.541,2.317,1.541a.518.518,0,0,0,.588,0l2.311-1.541,2.317,1.541a.553.553,0,0,0,.294.089.614.614,0,0,0,.255-.061.538.538,0,0,0,.277-.471L18.374,1.064h1.208a.532.532,0,0,0,.532-.532A.518.518,0,0,0,19.6,0ZM17.338,19.244l-1.785-1.186a.518.518,0,0,0-.588,0L12.654,19.6l-2.317-1.541a.518.518,0,0,0-.588,0L7.438,19.6,5.121,18.058a.518.518,0,0,0-.588,0L2.755,19.244V1.064H17.343Zm0,0"/><path class="b" d="M84.632,135.164h5.576a.532.532,0,1,0,0-1.064H84.632a.532.532,0,1,0,0,1.064Zm0,0" transform="translate(-79.439 -126.667)"/><path class="b" d="M84.632,168.464h4.174a.532.532,0,1,0,0-1.064H84.632a.532.532,0,1,0,0,1.064Zm0,0" transform="translate(-79.439 -158.122)"/><path class="b" d="M235.432,135.164h1.391a.532.532,0,0,0,0-1.064h-1.391a.532.532,0,1,0,0,1.064Zm0,0" transform="translate(-221.88 -126.667)"/><path class="b" d="M235.432,168.464h1.391a.532.532,0,0,0,0-1.064h-1.391a.532.532,0,1,0,0,1.064Zm0,0" transform="translate(-221.88 -158.122)"/><path class="b" d="M84.632,58.064h5.576a.532.532,0,1,0,0-1.064H84.632a.532.532,0,1,0,0,1.064Zm0,0" transform="translate(-79.439 -53.841)"/><path class="b" d="M84.632,91.364h4.174a.532.532,0,1,0,0-1.064H84.632a.532.532,0,1,0,0,1.064Zm0,0" transform="translate(-79.439 -85.295)"/><path class="b" d="M235.432,58.064h1.391a.532.532,0,0,0,0-1.064h-1.391a.532.532,0,1,0,0,1.064Zm0,0" transform="translate(-221.88 -53.841)"/><path class="b" d="M235.432,91.364h1.391a.532.532,0,0,0,0-1.064h-1.391a.532.532,0,1,0,0,1.064Zm0,0" transform="translate(-221.88 -85.295)"/><path class="b" d="M84.632,213.164h5.576a.532.532,0,1,0,0-1.064H84.632a.532.532,0,1,0,0,1.064Zm0,0" transform="translate(-79.439 -200.344)"/><path class="b" d="M84.632,246.464h4.174a.532.532,0,1,0,0-1.064H84.632a.532.532,0,1,0,0,1.064Zm0,0" transform="translate(-79.439 -231.798)"/><path class="b" d="M235.432,213.164h1.391a.532.532,0,0,0,0-1.064h-1.391a.532.532,0,1,0,0,1.064Zm0,0" transform="translate(-221.88 -200.344)"/><path class="b" d="M235.432,246.464h1.391a.532.532,0,0,0,0-1.064h-1.391a.532.532,0,1,0,0,1.064Zm0,0" transform="translate(-221.88 -231.798)"/></g></g><g transform="translate(903.279 3880.784)"><circle class="a" cx="20.663" cy="20.663" r="20.663" transform="translate(0)"/><g transform="translate(10.986 11.047)"><path class="b" d="M19.6,0H.532a.532.532,0,0,0,0,1.064H1.679V20.236a.538.538,0,0,0,.277.471A.519.519,0,0,0,2.5,20.68l2.311-1.541L7.128,20.68a.518.518,0,0,0,.588,0l2.311-1.541,2.317,1.541a.518.518,0,0,0,.588,0l2.311-1.541,2.317,1.541a.553.553,0,0,0,.294.089.614.614,0,0,0,.255-.061.538.538,0,0,0,.277-.471L18.374,1.064h1.208a.532.532,0,0,0,.532-.532A.518.518,0,0,0,19.6,0ZM17.338,19.244l-1.785-1.186a.518.518,0,0,0-.588,0L12.654,19.6l-2.317-1.541a.518.518,0,0,0-.588,0L7.438,19.6,5.121,18.058a.518.518,0,0,0-.588,0L2.755,19.244V1.064H17.343Zm0,0"/><path class="b" d="M84.632,135.164h5.576a.532.532,0,1,0,0-1.064H84.632a.532.532,0,1,0,0,1.064Zm0,0" transform="translate(-79.439 -126.667)"/><path class="b" d="M84.632,168.464h4.174a.532.532,0,1,0,0-1.064H84.632a.532.532,0,1,0,0,1.064Zm0,0" transform="translate(-79.439 -158.122)"/><path class="b" d="M235.432,135.164h1.391a.532.532,0,0,0,0-1.064h-1.391a.532.532,0,1,0,0,1.064Zm0,0" transform="translate(-221.88 -126.667)"/><path class="b" d="M235.432,168.464h1.391a.532.532,0,0,0,0-1.064h-1.391a.532.532,0,1,0,0,1.064Zm0,0" transform="translate(-221.88 -158.122)"/><path class="b" d="M84.632,58.064h5.576a.532.532,0,1,0,0-1.064H84.632a.532.532,0,1,0,0,1.064Zm0,0" transform="translate(-79.439 -53.841)"/><path class="b" d="M84.632,91.364h4.174a.532.532,0,1,0,0-1.064H84.632a.532.532,0,1,0,0,1.064Zm0,0" transform="translate(-79.439 -85.295)"/><path class="b" d="M235.432,58.064h1.391a.532.532,0,0,0,0-1.064h-1.391a.532.532,0,1,0,0,1.064Zm0,0" transform="translate(-221.88 -53.841)"/><path class="b" d="M235.432,91.364h1.391a.532.532,0,0,0,0-1.064h-1.391a.532.532,0,1,0,0,1.064Zm0,0" transform="translate(-221.88 -85.295)"/><path class="b" d="M84.632,213.164h5.576a.532.532,0,1,0,0-1.064H84.632a.532.532,0,1,0,0,1.064Zm0,0" transform="translate(-79.439 -200.344)"/><path class="b" d="M84.632,246.464h4.174a.532.532,0,1,0,0-1.064H84.632a.532.532,0,1,0,0,1.064Zm0,0" transform="translate(-79.439 -231.798)"/><path class="b" d="M235.432,213.164h1.391a.532.532,0,0,0,0-1.064h-1.391a.532.532,0,1,0,0,1.064Zm0,0" transform="translate(-221.88 -200.344)"/><path class="b" d="M235.432,246.464h1.391a.532.532,0,0,0,0-1.064h-1.391a.532.532,0,1,0,0,1.064Zm0,0" transform="translate(-221.88 -231.798)"/></g></g><g transform="translate(667.874 3836.278)"><circle class="a" cx="44.661" cy="44.661" r="44.661" transform="translate(0 0)"/><g transform="translate(23.746 23.877)"><path class="b" d="M42.362,0H1.15a1.15,1.15,0,0,0,0,2.3H3.63V43.74a1.164,1.164,0,0,0,.6,1.018A1.121,1.121,0,0,0,5.4,44.7l5-3.33,5.008,3.33a1.119,1.119,0,0,0,1.27,0l5-3.33L26.68,44.7a1.119,1.119,0,0,0,1.27,0l5-3.33,5.008,3.33a1.2,1.2,0,0,0,.635.192,1.327,1.327,0,0,0,.551-.132,1.164,1.164,0,0,0,.6-1.018L39.714,2.3h2.612a1.15,1.15,0,0,0,1.15-1.15A1.119,1.119,0,0,0,42.362,0ZM37.474,41.6l-3.858-2.564a1.119,1.119,0,0,0-1.27,0l-5,3.33-5.008-3.33a1.119,1.119,0,0,0-1.27,0l-5,3.33-5.008-3.33a1.119,1.119,0,0,0-1.27,0L5.954,41.6V2.3H37.486Zm0,0"/><path class="b" d="M85.25,136.4H97.3a1.15,1.15,0,1,0,0-2.3H85.25a1.15,1.15,0,1,0,0,2.3Zm0,0" transform="translate(-74.025 -118.035)"/><path class="b" d="M85.25,169.7h9.021a1.15,1.15,0,1,0,0-2.3H85.25a1.15,1.15,0,1,0,0,2.3Zm0,0" transform="translate(-74.025 -147.345)"/><path class="b" d="M236.05,136.4h3.007a1.15,1.15,0,0,0,0-2.3H236.05a1.15,1.15,0,0,0,0,2.3Zm0,0" transform="translate(-206.759 -118.035)"/><path class="b" d="M236.05,169.7h3.007a1.15,1.15,0,1,0,0-2.3H236.05a1.15,1.15,0,0,0,0,2.3Zm0,0" transform="translate(-206.759 -147.345)"/><path class="b" d="M85.25,59.3H97.3a1.15,1.15,0,1,0,0-2.3H85.25a1.15,1.15,0,1,0,0,2.3Zm0,0" transform="translate(-74.025 -50.171)"/><path class="b" d="M85.25,92.6h9.021a1.15,1.15,0,1,0,0-2.3H85.25a1.15,1.15,0,1,0,0,2.3Zm0,0" transform="translate(-74.025 -79.482)"/><path class="b" d="M236.05,59.3h3.007a1.15,1.15,0,0,0,0-2.3H236.05a1.15,1.15,0,0,0,0,2.3Zm0,0" transform="translate(-206.759 -50.171)"/><path class="b" d="M236.05,92.6h3.007a1.15,1.15,0,1,0,0-2.3H236.05a1.15,1.15,0,0,0,0,2.3Zm0,0" transform="translate(-206.759 -79.482)"/><path class="b" d="M85.25,214.4H97.3a1.15,1.15,0,1,0,0-2.3H85.25a1.15,1.15,0,1,0,0,2.3Zm0,0" transform="translate(-74.025 -186.69)"/><path class="b" d="M85.25,247.7h9.021a1.15,1.15,0,1,0,0-2.3H85.25a1.15,1.15,0,1,0,0,2.3Zm0,0" transform="translate(-74.025 -216.001)"/><path class="b" d="M236.05,214.4h3.007a1.15,1.15,0,0,0,0-2.3H236.05a1.15,1.15,0,0,0,0,2.3Zm0,0" transform="translate(-206.759 -186.69)"/><path class="b" d="M236.05,247.7h3.007a1.15,1.15,0,0,0,0-2.3H236.05a1.15,1.15,0,0,0,0,2.3Zm0,0" transform="translate(-206.759 -216.001)"/></g></g><circle class="a" cx="48.245" cy="48.245" r="48.245" transform="translate(637.91 3291.135)"/><circle class="a" cx="34.684" cy="34.684" r="34.684" transform="translate(529.414 3313.995)"/><circle class="a" cx="21.643" cy="21.643" r="21.643" transform="translate(781.126 3314.312)"/><path class="b" d="M1.764,31.756H3.528V33.52a1.764,1.764,0,0,0,3.528,0V31.756h3.528V33.52a1.764,1.764,0,0,0,3.528,0V31.756H15A7.909,7.909,0,0,0,18.932,16.97,7.891,7.891,0,0,0,14.114,3.617V1.764a1.764,1.764,0,1,0-3.528,0V3.528H7.057V1.764a1.764,1.764,0,1,0-3.528,0V3.528H1.764A1.769,1.769,0,0,0,0,5.293v24.7A1.769,1.769,0,0,0,1.764,31.756ZM15,28.227H3.528V19.406H15a4.411,4.411,0,0,1,0,8.821ZM3.528,7.057h9.7a4.411,4.411,0,0,1,0,8.821h-9.7Z" transform="translate(552.554 3331.132)"/><circle class="a" cx="21.528" cy="21.528" r="21.528" transform="translate(727.448 3255.891)"/><g transform="translate(667.655 3306.929)"><path class="b" d="M18.659,309.838c-.091-.16-.171-.331-.274-.479Q9.318,296.768.24,284.165c-.057-.08-.1-.16-.24-.365a4.358,4.358,0,0,1,.479.217q8.674,5.167,17.359,10.356a.908.908,0,0,0,1.061.011q9-5.2,18.009-10.367a1.5,1.5,0,0,1,.593-.217c-.137.205-.285.4-.422.6Q28.011,297,18.944,309.6a2.738,2.738,0,0,0-.148.24Z" transform="translate(0 -251.432)"/><path class="b" d="M42.78,29.539l-.445.3q-8.708,5.013-17.427,10.025a.7.7,0,0,1-.821,0Q15.653,34.814,7.219,29.79c-.08-.046-.16-.1-.319-.205C12.865,19.754,18.83,9.922,24.852,0,30.851,9.877,36.8,19.7,42.78,29.539Z" transform="translate(-6.113)"/></g><g transform="translate(982.06 3325.54)"><circle class="a" cx="12.975" cy="12.975" r="12.975" transform="translate(0 0)"/><path class="b" d="M3.46,6.391H6.413V7.779H3.752a2.082,2.082,0,0,1,.179.825,4.41,4.41,0,0,1-.388,1.723,6.418,6.418,0,0,1-1.278,1.854,5.145,5.145,0,0,1,1.348-.205,7.546,7.546,0,0,1,1.754.236,11.524,11.524,0,0,0,2.186.384,4.48,4.48,0,0,0,1.8-.524l.545,1.549a9.7,9.7,0,0,1-1.335.48,4.092,4.092,0,0,1-.942.113,4.57,4.57,0,0,1-.8-.074c-.17-.031-.572-.144-1.213-.34s-1.056-.314-1.243-.353a5.461,5.461,0,0,0-.881-.074,4.906,4.906,0,0,0-1.44.236,5.711,5.711,0,0,0-1.392.637L0,12.617A4.452,4.452,0,0,0,1.527,11.2a3.91,3.91,0,0,0,.628-2.256,4.326,4.326,0,0,0-.161-1.16H.161V6.4H1.605C1.4,5.7,1.27,5.183,1.213,4.864a5.435,5.435,0,0,1-.083-.942A3.6,3.6,0,0,1,2.574.877,4.5,4.5,0,0,1,5.379,0a4.165,4.165,0,0,1,2.8.934A4.071,4.071,0,0,1,9.528,3.551L7.853,3.8a2.8,2.8,0,0,0-.838-1.771,2.376,2.376,0,0,0-1.671-.646,2.365,2.365,0,0,0-1.728.672,2.163,2.163,0,0,0-.694,1.614A9.4,9.4,0,0,0,3.46,6.391Zm0,0" transform="translate(7.96 5.603)"/></g><g transform="translate(592.867 3269.168)"><circle class="a" cx="22.43" cy="22.43" r="22.43"/><path class="b" d="M5.981,11.049h5.106v2.4h-4.6A3.6,3.6,0,0,1,6.8,14.873a7.625,7.625,0,0,1-.671,2.979,11.1,11.1,0,0,1-2.21,3.205A8.894,8.894,0,0,1,6.245,20.7a13.046,13.046,0,0,1,3.032.407,19.922,19.922,0,0,0,3.779.664,7.745,7.745,0,0,0,3.107-.905l.943,2.677a16.775,16.775,0,0,1-2.308.83,7.074,7.074,0,0,1-1.629.2,7.9,7.9,0,0,1-1.38-.128c-.294-.053-.988-.249-2.1-.588s-1.825-.543-2.15-.611a9.44,9.44,0,0,0-1.524-.128,8.481,8.481,0,0,0-2.489.407,9.873,9.873,0,0,0-2.406,1.1L0,21.812a7.7,7.7,0,0,0,2.64-2.451,6.76,6.76,0,0,0,1.086-3.9,7.479,7.479,0,0,0-.279-2.006H.279v-2.4h2.5C2.421,9.85,2.195,8.96,2.1,8.41A9.4,9.4,0,0,1,1.953,6.78a6.224,6.224,0,0,1,2.5-5.264A7.781,7.781,0,0,1,9.3,0a7.2,7.2,0,0,1,4.835,1.614,7.038,7.038,0,0,1,2.338,4.525l-2.9.437a4.835,4.835,0,0,0-1.448-3.062A4.108,4.108,0,0,0,9.239,2.4,4.089,4.089,0,0,0,6.252,3.56a3.739,3.739,0,0,0-1.2,2.791,16.25,16.25,0,0,0,.928,4.7Zm0,0" transform="translate(13.761 9.685)"/></g><g transform="translate(1011.55 3414.576) rotate(180)"><circle class="a" cx="20.663" cy="20.663" r="20.663"/><g transform="translate(10.986 11.047)"><path class="b" d="M19.6,0H.532a.532.532,0,0,0,0,1.064H1.679V20.236a.538.538,0,0,0,.277.471A.519.519,0,0,0,2.5,20.68l2.311-1.541L7.128,20.68a.518.518,0,0,0,.588,0l2.311-1.541,2.317,1.541a.518.518,0,0,0,.588,0l2.311-1.541,2.317,1.541a.553.553,0,0,0,.294.089.614.614,0,0,0,.255-.061.538.538,0,0,0,.277-.471L18.374,1.064h1.208a.532.532,0,0,0,.532-.532A.518.518,0,0,0,19.6,0ZM17.338,19.244l-1.785-1.186a.518.518,0,0,0-.588,0L12.654,19.6l-2.317-1.541a.518.518,0,0,0-.588,0L7.438,19.6,5.121,18.058a.518.518,0,0,0-.588,0L2.755,19.244V1.064H17.343Zm0,0"/><path class="b" d="M84.632,135.164h5.576a.532.532,0,1,0,0-1.064H84.632a.532.532,0,1,0,0,1.064Zm0,0" transform="translate(-79.439 -126.667)"/><path class="b" d="M84.632,168.464h4.174a.532.532,0,1,0,0-1.064H84.632a.532.532,0,1,0,0,1.064Zm0,0" transform="translate(-79.439 -158.122)"/><path class="b" d="M235.432,135.164h1.391a.532.532,0,0,0,0-1.064h-1.391a.532.532,0,1,0,0,1.064Zm0,0" transform="translate(-221.88 -126.667)"/><path class="b" d="M235.432,168.464h1.391a.532.532,0,0,0,0-1.064h-1.391a.532.532,0,1,0,0,1.064Zm0,0" transform="translate(-221.88 -158.122)"/><path class="b" d="M84.632,58.064h5.576a.532.532,0,1,0,0-1.064H84.632a.532.532,0,1,0,0,1.064Zm0,0" transform="translate(-79.439 -53.841)"/><path class="b" d="M84.632,91.364h4.174a.532.532,0,1,0,0-1.064H84.632a.532.532,0,1,0,0,1.064Zm0,0" transform="translate(-79.439 -85.295)"/><path class="b" d="M235.432,58.064h1.391a.532.532,0,0,0,0-1.064h-1.391a.532.532,0,1,0,0,1.064Zm0,0" transform="translate(-221.88 -53.841)"/><path class="b" d="M235.432,91.364h1.391a.532.532,0,0,0,0-1.064h-1.391a.532.532,0,1,0,0,1.064Zm0,0" transform="translate(-221.88 -85.295)"/><path class="b" d="M84.632,213.164h5.576a.532.532,0,1,0,0-1.064H84.632a.532.532,0,1,0,0,1.064Zm0,0" transform="translate(-79.439 -200.344)"/><path class="b" d="M84.632,246.464h4.174a.532.532,0,1,0,0-1.064H84.632a.532.532,0,1,0,0,1.064Zm0,0" transform="translate(-79.439 -231.798)"/><path class="b" d="M235.432,213.164h1.391a.532.532,0,0,0,0-1.064h-1.391a.532.532,0,1,0,0,1.064Zm0,0" transform="translate(-221.88 -200.344)"/><path class="b" d="M235.432,246.464h1.391a.532.532,0,0,0,0-1.064h-1.391a.532.532,0,1,0,0,1.064Zm0,0" transform="translate(-221.88 -231.798)"/></g></g><g transform="translate(542.409 3291.538) rotate(180)"><circle class="a" cx="20.663" cy="20.663" r="20.663" transform="translate(0 0)"/><g transform="translate(10.986 11.047)"><path class="b" d="M19.6,0H.532a.532.532,0,0,0,0,1.064H1.679V20.236a.538.538,0,0,0,.277.471A.519.519,0,0,0,2.5,20.68l2.311-1.541L7.128,20.68a.518.518,0,0,0,.588,0l2.311-1.541,2.317,1.541a.518.518,0,0,0,.588,0l2.311-1.541,2.317,1.541a.553.553,0,0,0,.294.089.614.614,0,0,0,.255-.061.538.538,0,0,0,.277-.471L18.374,1.064h1.208a.532.532,0,0,0,.532-.532A.518.518,0,0,0,19.6,0ZM17.338,19.244l-1.785-1.186a.518.518,0,0,0-.588,0L12.654,19.6l-2.317-1.541a.518.518,0,0,0-.588,0L7.438,19.6,5.121,18.058a.518.518,0,0,0-.588,0L2.755,19.244V1.064H17.343Zm0,0"/><path class="b" d="M84.632,135.164h5.576a.532.532,0,1,0,0-1.064H84.632a.532.532,0,1,0,0,1.064Zm0,0" transform="translate(-79.439 -126.667)"/><path class="b" d="M84.632,168.464h4.174a.532.532,0,1,0,0-1.064H84.632a.532.532,0,1,0,0,1.064Zm0,0" transform="translate(-79.439 -158.122)"/><path class="b" d="M235.432,135.164h1.391a.532.532,0,0,0,0-1.064h-1.391a.532.532,0,1,0,0,1.064Zm0,0" transform="translate(-221.88 -126.667)"/><path class="b" d="M235.432,168.464h1.391a.532.532,0,0,0,0-1.064h-1.391a.532.532,0,1,0,0,1.064Zm0,0" transform="translate(-221.88 -158.122)"/><path class="b" d="M84.632,58.064h5.576a.532.532,0,1,0,0-1.064H84.632a.532.532,0,1,0,0,1.064Zm0,0" transform="translate(-79.439 -53.841)"/><path class="b" d="M84.632,91.364h4.174a.532.532,0,1,0,0-1.064H84.632a.532.532,0,1,0,0,1.064Zm0,0" transform="translate(-79.439 -85.295)"/><path class="b" d="M235.432,58.064h1.391a.532.532,0,0,0,0-1.064h-1.391a.532.532,0,1,0,0,1.064Zm0,0" transform="translate(-221.88 -53.841)"/><path class="b" d="M235.432,91.364h1.391a.532.532,0,0,0,0-1.064h-1.391a.532.532,0,1,0,0,1.064Zm0,0" transform="translate(-221.88 -85.295)"/><path class="b" d="M84.632,213.164h5.576a.532.532,0,1,0,0-1.064H84.632a.532.532,0,1,0,0,1.064Zm0,0" transform="translate(-79.439 -200.344)"/><path class="b" d="M84.632,246.464h4.174a.532.532,0,1,0,0-1.064H84.632a.532.532,0,1,0,0,1.064Zm0,0" transform="translate(-79.439 -231.798)"/><path class="b" d="M235.432,213.164h1.391a.532.532,0,0,0,0-1.064h-1.391a.532.532,0,1,0,0,1.064Zm0,0" transform="translate(-221.88 -200.344)"/><path class="b" d="M235.432,246.464h1.391a.532.532,0,0,0,0-1.064h-1.391a.532.532,0,1,0,0,1.064Zm0,0" transform="translate(-221.88 -231.798)"/></g></g><g transform="translate(850.449 3289.767) rotate(180)"><circle class="a" cx="20.663" cy="20.663" r="20.663"/><g transform="translate(10.986 11.047)"><path class="b" d="M19.6,0H.532a.532.532,0,0,0,0,1.064H1.679V20.236a.538.538,0,0,0,.277.471A.519.519,0,0,0,2.5,20.68l2.311-1.541L7.128,20.68a.518.518,0,0,0,.588,0l2.311-1.541,2.317,1.541a.518.518,0,0,0,.588,0l2.311-1.541,2.317,1.541a.553.553,0,0,0,.294.089.614.614,0,0,0,.255-.061.538.538,0,0,0,.277-.471L18.374,1.064h1.208a.532.532,0,0,0,.532-.532A.518.518,0,0,0,19.6,0ZM17.338,19.244l-1.785-1.186a.518.518,0,0,0-.588,0L12.654,19.6l-2.317-1.541a.518.518,0,0,0-.588,0L7.438,19.6,5.121,18.058a.518.518,0,0,0-.588,0L2.755,19.244V1.064H17.343Zm0,0"/><path class="b" d="M84.632,135.164h5.576a.532.532,0,1,0,0-1.064H84.632a.532.532,0,1,0,0,1.064Zm0,0" transform="translate(-79.439 -126.667)"/><path class="b" d="M84.632,168.464h4.174a.532.532,0,1,0,0-1.064H84.632a.532.532,0,1,0,0,1.064Zm0,0" transform="translate(-79.439 -158.122)"/><path class="b" d="M235.432,135.164h1.391a.532.532,0,0,0,0-1.064h-1.391a.532.532,0,1,0,0,1.064Zm0,0" transform="translate(-221.88 -126.667)"/><path class="b" d="M235.432,168.464h1.391a.532.532,0,0,0,0-1.064h-1.391a.532.532,0,1,0,0,1.064Zm0,0" transform="translate(-221.88 -158.122)"/><path class="b" d="M84.632,58.064h5.576a.532.532,0,1,0,0-1.064H84.632a.532.532,0,1,0,0,1.064Zm0,0" transform="translate(-79.439 -53.841)"/><path class="b" d="M84.632,91.364h4.174a.532.532,0,1,0,0-1.064H84.632a.532.532,0,1,0,0,1.064Zm0,0" transform="translate(-79.439 -85.295)"/><path class="b" d="M235.432,58.064h1.391a.532.532,0,0,0,0-1.064h-1.391a.532.532,0,1,0,0,1.064Zm0,0" transform="translate(-221.88 -53.841)"/><path class="b" d="M235.432,91.364h1.391a.532.532,0,0,0,0-1.064h-1.391a.532.532,0,1,0,0,1.064Zm0,0" transform="translate(-221.88 -85.295)"/><path class="b" d="M84.632,213.164h5.576a.532.532,0,1,0,0-1.064H84.632a.532.532,0,1,0,0,1.064Zm0,0" transform="translate(-79.439 -200.344)"/><path class="b" d="M84.632,246.464h4.174a.532.532,0,1,0,0-1.064H84.632a.532.532,0,1,0,0,1.064Zm0,0" transform="translate(-79.439 -231.798)"/><path class="b" d="M235.432,213.164h1.391a.532.532,0,0,0,0-1.064h-1.391a.532.532,0,1,0,0,1.064Zm0,0" transform="translate(-221.88 -200.344)"/><path class="b" d="M235.432,246.464h1.391a.532.532,0,0,0,0-1.064h-1.391a.532.532,0,1,0,0,1.064Zm0,0" transform="translate(-221.88 -231.798)"/></g></g><g transform="translate(521.955 3402.074) rotate(180)"><circle class="a" cx="20.663" cy="20.663" r="20.663" transform="translate(0)"/><g transform="translate(10.986 11.047)"><path class="b" d="M19.6,0H.532a.532.532,0,0,0,0,1.064H1.679V20.236a.538.538,0,0,0,.277.471A.519.519,0,0,0,2.5,20.68l2.311-1.541L7.128,20.68a.518.518,0,0,0,.588,0l2.311-1.541,2.317,1.541a.518.518,0,0,0,.588,0l2.311-1.541,2.317,1.541a.553.553,0,0,0,.294.089.614.614,0,0,0,.255-.061.538.538,0,0,0,.277-.471L18.374,1.064h1.208a.532.532,0,0,0,.532-.532A.518.518,0,0,0,19.6,0ZM17.338,19.244l-1.785-1.186a.518.518,0,0,0-.588,0L12.654,19.6l-2.317-1.541a.518.518,0,0,0-.588,0L7.438,19.6,5.121,18.058a.518.518,0,0,0-.588,0L2.755,19.244V1.064H17.343Zm0,0"/><path class="b" d="M84.632,135.164h5.576a.532.532,0,1,0,0-1.064H84.632a.532.532,0,1,0,0,1.064Zm0,0" transform="translate(-79.439 -126.667)"/><path class="b" d="M84.632,168.464h4.174a.532.532,0,1,0,0-1.064H84.632a.532.532,0,1,0,0,1.064Zm0,0" transform="translate(-79.439 -158.122)"/><path class="b" d="M235.432,135.164h1.391a.532.532,0,0,0,0-1.064h-1.391a.532.532,0,1,0,0,1.064Zm0,0" transform="translate(-221.88 -126.667)"/><path class="b" d="M235.432,168.464h1.391a.532.532,0,0,0,0-1.064h-1.391a.532.532,0,1,0,0,1.064Zm0,0" transform="translate(-221.88 -158.122)"/><path class="b" d="M84.632,58.064h5.576a.532.532,0,1,0,0-1.064H84.632a.532.532,0,1,0,0,1.064Zm0,0" transform="translate(-79.439 -53.841)"/><path class="b" d="M84.632,91.364h4.174a.532.532,0,1,0,0-1.064H84.632a.532.532,0,1,0,0,1.064Zm0,0" transform="translate(-79.439 -85.295)"/><path class="b" d="M235.432,58.064h1.391a.532.532,0,0,0,0-1.064h-1.391a.532.532,0,1,0,0,1.064Zm0,0" transform="translate(-221.88 -53.841)"/><path class="b" d="M235.432,91.364h1.391a.532.532,0,0,0,0-1.064h-1.391a.532.532,0,1,0,0,1.064Zm0,0" transform="translate(-221.88 -85.295)"/><path class="b" d="M84.632,213.164h5.576a.532.532,0,1,0,0-1.064H84.632a.532.532,0,1,0,0,1.064Zm0,0" transform="translate(-79.439 -200.344)"/><path class="b" d="M84.632,246.464h4.174a.532.532,0,1,0,0-1.064H84.632a.532.532,0,1,0,0,1.064Zm0,0" transform="translate(-79.439 -231.798)"/><path class="b" d="M235.432,213.164h1.391a.532.532,0,0,0,0-1.064h-1.391a.532.532,0,1,0,0,1.064Zm0,0" transform="translate(-221.88 -200.344)"/><path class="b" d="M235.432,246.464h1.391a.532.532,0,0,0,0-1.064h-1.391a.532.532,0,1,0,0,1.064Zm0,0" transform="translate(-221.88 -231.798)"/></g></g><g transform="translate(959.36 3366.58) rotate(180)"><circle class="a" cx="44.661" cy="44.661" r="44.661" transform="translate(0 0)"/><g transform="translate(23.746 23.877)"><path class="b" d="M42.362,0H1.15a1.15,1.15,0,0,0,0,2.3H3.63V43.74a1.164,1.164,0,0,0,.6,1.018A1.121,1.121,0,0,0,5.4,44.7l5-3.33,5.008,3.33a1.119,1.119,0,0,0,1.27,0l5-3.33L26.68,44.7a1.119,1.119,0,0,0,1.27,0l5-3.33,5.008,3.33a1.2,1.2,0,0,0,.635.192,1.327,1.327,0,0,0,.551-.132,1.164,1.164,0,0,0,.6-1.018L39.714,2.3h2.612a1.15,1.15,0,0,0,1.15-1.15A1.119,1.119,0,0,0,42.362,0ZM37.474,41.6l-3.858-2.564a1.119,1.119,0,0,0-1.27,0l-5,3.33-5.008-3.33a1.119,1.119,0,0,0-1.27,0l-5,3.33-5.008-3.33a1.119,1.119,0,0,0-1.27,0L5.954,41.6V2.3H37.486Zm0,0"/><path class="b" d="M85.25,136.4H97.3a1.15,1.15,0,1,0,0-2.3H85.25a1.15,1.15,0,1,0,0,2.3Zm0,0" transform="translate(-74.025 -118.035)"/><path class="b" d="M85.25,169.7h9.021a1.15,1.15,0,1,0,0-2.3H85.25a1.15,1.15,0,1,0,0,2.3Zm0,0" transform="translate(-74.025 -147.345)"/><path class="b" d="M236.05,136.4h3.007a1.15,1.15,0,0,0,0-2.3H236.05a1.15,1.15,0,0,0,0,2.3Zm0,0" transform="translate(-206.759 -118.035)"/><path class="b" d="M236.05,169.7h3.007a1.15,1.15,0,1,0,0-2.3H236.05a1.15,1.15,0,0,0,0,2.3Zm0,0" transform="translate(-206.759 -147.345)"/><path class="b" d="M85.25,59.3H97.3a1.15,1.15,0,1,0,0-2.3H85.25a1.15,1.15,0,1,0,0,2.3Zm0,0" transform="translate(-74.025 -50.171)"/><path class="b" d="M85.25,92.6h9.021a1.15,1.15,0,1,0,0-2.3H85.25a1.15,1.15,0,1,0,0,2.3Zm0,0" transform="translate(-74.025 -79.482)"/><path class="b" d="M236.05,59.3h3.007a1.15,1.15,0,0,0,0-2.3H236.05a1.15,1.15,0,0,0,0,2.3Zm0,0" transform="translate(-206.759 -50.171)"/><path class="b" d="M236.05,92.6h3.007a1.15,1.15,0,1,0,0-2.3H236.05a1.15,1.15,0,0,0,0,2.3Zm0,0" transform="translate(-206.759 -79.482)"/><path class="b" d="M85.25,214.4H97.3a1.15,1.15,0,1,0,0-2.3H85.25a1.15,1.15,0,1,0,0,2.3Zm0,0" transform="translate(-74.025 -186.69)"/><path class="b" d="M85.25,247.7h9.021a1.15,1.15,0,1,0,0-2.3H85.25a1.15,1.15,0,1,0,0,2.3Zm0,0" transform="translate(-74.025 -216.001)"/><path class="b" d="M236.05,214.4h3.007a1.15,1.15,0,0,0,0-2.3H236.05a1.15,1.15,0,0,0,0,2.3Zm0,0" transform="translate(-206.759 -186.69)"/><path class="b" d="M236.05,247.7h3.007a1.15,1.15,0,0,0,0-2.3H236.05a1.15,1.15,0,0,0,0,2.3Zm0,0" transform="translate(-206.759 -216.001)"/></g></g><g transform="translate(446.73 3474.949) rotate(180)"><circle class="a" cx="32.346" cy="32.346" r="32.346" transform="translate(0 0)"/><g transform="translate(17.198 17.293)"><path class="b" d="M30.681,0H.833a.833.833,0,0,0,0,1.666h1.8V31.679a.843.843,0,0,0,.434.738.812.812,0,0,0,.85-.043l3.618-2.412,3.627,2.412a.81.81,0,0,0,.92,0L15.7,29.961l3.627,2.412a.81.81,0,0,0,.92,0l3.618-2.412,3.627,2.412a.866.866,0,0,0,.46.139.961.961,0,0,0,.4-.1.843.843,0,0,0,.434-.738L28.763,1.666h1.892a.833.833,0,0,0,.833-.833A.811.811,0,0,0,30.681,0Zm-3.54,30.126-2.794-1.857a.81.81,0,0,0-.92,0l-3.618,2.412-3.627-2.412a.81.81,0,0,0-.92,0l-3.618,2.412L8.017,28.269a.81.81,0,0,0-.92,0L4.312,30.126V1.666H27.149Zm0,0"/><path class="b" d="M84.933,135.766h8.729a.833.833,0,1,0,0-1.666H84.933a.833.833,0,1,0,0,1.666Zm0,0" transform="translate(-76.803 -122.465)"/><path class="b" d="M84.933,169.066h6.534a.833.833,0,1,0,0-1.666H84.933a.833.833,0,1,0,0,1.666Zm0,0" transform="translate(-76.803 -152.875)"/><path class="b" d="M235.733,135.766h2.178a.833.833,0,0,0,0-1.666h-2.178a.833.833,0,0,0,0,1.666Zm0,0" transform="translate(-214.518 -122.465)"/><path class="b" d="M235.733,169.066h2.178a.833.833,0,1,0,0-1.666h-2.178a.833.833,0,0,0,0,1.666Zm0,0" transform="translate(-214.518 -152.875)"/><path class="b" d="M84.933,58.666h8.729a.833.833,0,1,0,0-1.666H84.933a.833.833,0,1,0,0,1.666Zm0,0" transform="translate(-76.803 -52.054)"/><path class="b" d="M84.933,91.966h6.534a.833.833,0,1,0,0-1.666H84.933a.833.833,0,1,0,0,1.666Zm0,0" transform="translate(-76.803 -82.465)"/><path class="b" d="M235.733,58.666h2.178a.833.833,0,0,0,0-1.666h-2.178a.833.833,0,0,0,0,1.666Zm0,0" transform="translate(-214.518 -52.054)"/><path class="b" d="M235.733,91.966h2.178a.833.833,0,1,0,0-1.666h-2.178a.833.833,0,0,0,0,1.666Zm0,0" transform="translate(-214.518 -82.465)"/><path class="b" d="M84.933,213.766h8.729a.833.833,0,1,0,0-1.666H84.933a.833.833,0,1,0,0,1.666Zm0,0" transform="translate(-76.803 -193.697)"/><path class="b" d="M84.933,247.066h6.534a.833.833,0,1,0,0-1.666H84.933a.833.833,0,1,0,0,1.666Zm0,0" transform="translate(-76.803 -224.107)"/><path class="b" d="M235.733,213.766h2.178a.833.833,0,0,0,0-1.666h-2.178a.833.833,0,0,0,0,1.666Zm0,0" transform="translate(-214.518 -193.697)"/><path class="b" d="M235.733,247.066h2.178a.833.833,0,1,0,0-1.666h-2.178a.833.833,0,0,0,0,1.666Zm0,0" transform="translate(-214.518 -224.107)"/></g></g><g transform="translate(474.728 3418.646)"><circle class="a" cx="33.043" cy="33.043" r="33.043" transform="translate(0 0)"/><path class="b" d="M18.027,20.689a53.949,53.949,0,0,0-5.582-2.52,12.042,12.042,0,0,1-3.062-1.719,2.66,2.66,0,0,1,.66-4.734,5.43,5.43,0,0,1,1.873-.389,14.236,14.236,0,0,1,7.043,1.39c1.107.542,1.484.365,1.861-.789.4-1.225.73-2.473,1.1-3.7a1.288,1.288,0,0,0-.836-1.719,17.8,17.8,0,0,0-4.452-1.331c-2.014-.306-2.014-.318-2.026-2.344,0-2.874,0-2.874-2.862-2.874-.412,0-.824-.012-1.248,0-1.331.047-1.566.283-1.6,1.625-.024.6,0,1.2-.012,1.814-.012,1.79-.024,1.767-1.731,2.379C3,7.286.432,10.113.161,14.635c-.247,4,1.849,6.713,5.135,8.68A57.089,57.089,0,0,0,11.714,26.2a9.294,9.294,0,0,1,2.332,1.378,3.206,3.206,0,0,1-.766,5.618,7.7,7.7,0,0,1-4.122.542,18.417,18.417,0,0,1-6.277-1.873c-1.154-.6-1.5-.448-1.9.813C.644,33.761.349,34.857.043,35.952c-.4,1.472-.259,1.814,1.154,2.509A20.077,20.077,0,0,0,6.85,40.086c1.531.247,1.578.306,1.59,1.9.012.718.012,1.437.024,2.155a1.279,1.279,0,0,0,1.378,1.449c1.06.024,2.12.024,3.18-.012a1.208,1.208,0,0,0,1.307-1.366c0-.978.047-1.967.012-2.944A1.551,1.551,0,0,1,15.683,39.5,10.639,10.639,0,0,0,21.23,35.94a10.027,10.027,0,0,0-3.2-15.252Zm0,0" transform="translate(21.774 10.46)"/></g><g transform="translate(422.5 3551.634)"><circle class="a" cx="21.643" cy="21.643" r="21.643" transform="translate(0 0)"/><path class="b" d="M1.236,22.24H2.471v1.236a1.236,1.236,0,0,0,2.471,0V22.24H7.413v1.236a1.236,1.236,0,0,0,2.471,0V22.24H10.5a5.539,5.539,0,0,0,2.757-10.355A5.526,5.526,0,0,0,9.884,2.533v-1.3a1.236,1.236,0,1,0-2.471,0V2.471H4.942V1.236a1.236,1.236,0,1,0-2.471,0V2.471H1.236A1.239,1.239,0,0,0,0,3.707V21A1.239,1.239,0,0,0,1.236,22.24ZM10.5,19.769H2.471V13.591H10.5a3.089,3.089,0,0,1,0,6.178ZM2.471,4.942h6.8a3.089,3.089,0,0,1,0,6.178h-6.8Z" transform="translate(14.428 9.393)"/></g><g transform="translate(439.079 3622.426)"><circle class="a" cx="13.086" cy="13.086" r="13.086" transform="translate(0)"/><g transform="translate(8.028 4.886)"><path class="b" d="M5.108,290.927c-.025-.044-.047-.091-.075-.131Q2.551,287.35.066,283.9c-.016-.022-.028-.044-.066-.1a1.194,1.194,0,0,1,.131.059q2.374,1.414,4.752,2.835a.248.248,0,0,0,.29,0q2.463-1.424,4.93-2.838a.412.412,0,0,1,.162-.059c-.037.056-.078.109-.116.165q-2.482,3.447-4.964,6.9a.747.747,0,0,0-.041.066Z" transform="translate(0 -274.94)"/><path class="b" d="M16.722,8.086l-.122.081q-2.384,1.372-4.77,2.744a.192.192,0,0,1-.225,0Q9.3,9.53,6.987,8.155c-.022-.012-.044-.028-.087-.056L11.814,0C13.456,2.7,15.086,5.392,16.722,8.086Z" transform="translate(-6.685)"/></g></g><g transform="translate(433.728 3368.037)"><circle class="a" cx="12.975" cy="12.975" r="12.975" transform="translate(0 0)"/><path class="b" d="M3.46,6.391H6.413V7.779H3.752a2.082,2.082,0,0,1,.179.825,4.41,4.41,0,0,1-.388,1.723,6.418,6.418,0,0,1-1.278,1.854,5.145,5.145,0,0,1,1.348-.205,7.546,7.546,0,0,1,1.754.236,11.524,11.524,0,0,0,2.186.384,4.48,4.48,0,0,0,1.8-.524l.545,1.549a9.7,9.7,0,0,1-1.335.48,4.092,4.092,0,0,1-.942.113,4.57,4.57,0,0,1-.8-.074c-.17-.031-.572-.144-1.213-.34s-1.056-.314-1.243-.353a5.461,5.461,0,0,0-.881-.074,4.906,4.906,0,0,0-1.44.236,5.711,5.711,0,0,0-1.392.637L0,12.617A4.452,4.452,0,0,0,1.527,11.2a3.91,3.91,0,0,0,.628-2.256,4.326,4.326,0,0,0-.161-1.16H.161V6.4H1.605C1.4,5.7,1.27,5.183,1.213,4.864a5.435,5.435,0,0,1-.083-.942A3.6,3.6,0,0,1,2.574.877,4.5,4.5,0,0,1,5.379,0a4.165,4.165,0,0,1,2.8.934A4.071,4.071,0,0,1,9.528,3.551L7.853,3.8a2.8,2.8,0,0,0-.838-1.771,2.376,2.376,0,0,0-1.671-.646,2.365,2.365,0,0,0-1.728.672,2.163,2.163,0,0,0-.694,1.614A9.4,9.4,0,0,0,3.46,6.391Zm0,0" transform="translate(7.96 5.603)"/></g><g transform="translate(448.728 3510.037)"><circle class="a" cx="12.975" cy="12.975" r="12.975" transform="translate(0 0)"/><path class="b" d="M3.46,6.391H6.413V7.779H3.752a2.082,2.082,0,0,1,.179.825,4.41,4.41,0,0,1-.388,1.723,6.418,6.418,0,0,1-1.278,1.854,5.145,5.145,0,0,1,1.348-.205,7.546,7.546,0,0,1,1.754.236,11.524,11.524,0,0,0,2.186.384,4.48,4.48,0,0,0,1.8-.524l.545,1.549a9.7,9.7,0,0,1-1.335.48,4.092,4.092,0,0,1-.942.113,4.57,4.57,0,0,1-.8-.074c-.17-.031-.572-.144-1.213-.34s-1.056-.314-1.243-.353a5.461,5.461,0,0,0-.881-.074,4.906,4.906,0,0,0-1.44.236,5.711,5.711,0,0,0-1.392.637L0,12.617A4.452,4.452,0,0,0,1.527,11.2a3.91,3.91,0,0,0,.628-2.256,4.326,4.326,0,0,0-.161-1.16H.161V6.4H1.605C1.4,5.7,1.27,5.183,1.213,4.864a5.435,5.435,0,0,1-.083-.942A3.6,3.6,0,0,1,2.574.877,4.5,4.5,0,0,1,5.379,0a4.165,4.165,0,0,1,2.8.934A4.071,4.071,0,0,1,9.528,3.551L7.853,3.8a2.8,2.8,0,0,0-.838-1.771,2.376,2.376,0,0,0-1.671-.646,2.365,2.365,0,0,0-1.728.672,2.163,2.163,0,0,0-.694,1.614A9.4,9.4,0,0,0,3.46,6.391Zm0,0" transform="translate(7.96 5.603)"/></g><g transform="translate(452.357 3694.317)"><circle class="a" cx="22.43" cy="22.43" r="22.43"/><path class="b" d="M5.981,11.049h5.106v2.4h-4.6A3.6,3.6,0,0,1,6.8,14.873a7.625,7.625,0,0,1-.671,2.979,11.1,11.1,0,0,1-2.21,3.205A8.894,8.894,0,0,1,6.245,20.7a13.046,13.046,0,0,1,3.032.407,19.922,19.922,0,0,0,3.779.664,7.745,7.745,0,0,0,3.107-.905l.943,2.677a16.775,16.775,0,0,1-2.308.83,7.074,7.074,0,0,1-1.629.2,7.9,7.9,0,0,1-1.38-.128c-.294-.053-.988-.249-2.1-.588s-1.825-.543-2.15-.611a9.44,9.44,0,0,0-1.524-.128,8.481,8.481,0,0,0-2.489.407,9.873,9.873,0,0,0-2.406,1.1L0,21.812a7.7,7.7,0,0,0,2.64-2.451,6.76,6.76,0,0,0,1.086-3.9,7.479,7.479,0,0,0-.279-2.006H.279v-2.4h2.5C2.421,9.85,2.195,8.96,2.1,8.41A9.4,9.4,0,0,1,1.953,6.78a6.224,6.224,0,0,1,2.5-5.264A7.781,7.781,0,0,1,9.3,0a7.2,7.2,0,0,1,4.835,1.614,7.038,7.038,0,0,1,2.338,4.525l-2.9.437a4.835,4.835,0,0,0-1.448-3.062A4.108,4.108,0,0,0,9.239,2.4,4.089,4.089,0,0,0,6.252,3.56a3.739,3.739,0,0,0-1.2,2.791,16.25,16.25,0,0,0,.928,4.7Zm0,0" transform="translate(13.761 9.685)"/></g><g transform="translate(373.63 3591.597)"><circle class="a" cx="20.663" cy="20.663" r="20.663"/><g transform="translate(10.986 11.047)"><path class="b" d="M19.6,0H.532a.532.532,0,0,0,0,1.064H1.679V20.236a.538.538,0,0,0,.277.471A.519.519,0,0,0,2.5,20.68l2.311-1.541L7.128,20.68a.518.518,0,0,0,.588,0l2.311-1.541,2.317,1.541a.518.518,0,0,0,.588,0l2.311-1.541,2.317,1.541a.553.553,0,0,0,.294.089.614.614,0,0,0,.255-.061.538.538,0,0,0,.277-.471L18.374,1.064h1.208a.532.532,0,0,0,.532-.532A.518.518,0,0,0,19.6,0ZM17.338,19.244l-1.785-1.186a.518.518,0,0,0-.588,0L12.654,19.6l-2.317-1.541a.518.518,0,0,0-.588,0L7.438,19.6,5.121,18.058a.518.518,0,0,0-.588,0L2.755,19.244V1.064H17.343Zm0,0"/><path class="b" d="M84.632,135.164h5.576a.532.532,0,1,0,0-1.064H84.632a.532.532,0,1,0,0,1.064Zm0,0" transform="translate(-79.439 -126.667)"/><path class="b" d="M84.632,168.464h4.174a.532.532,0,1,0,0-1.064H84.632a.532.532,0,1,0,0,1.064Zm0,0" transform="translate(-79.439 -158.122)"/><path class="b" d="M235.432,135.164h1.391a.532.532,0,0,0,0-1.064h-1.391a.532.532,0,1,0,0,1.064Zm0,0" transform="translate(-221.88 -126.667)"/><path class="b" d="M235.432,168.464h1.391a.532.532,0,0,0,0-1.064h-1.391a.532.532,0,1,0,0,1.064Zm0,0" transform="translate(-221.88 -158.122)"/><path class="b" d="M84.632,58.064h5.576a.532.532,0,1,0,0-1.064H84.632a.532.532,0,1,0,0,1.064Zm0,0" transform="translate(-79.439 -53.841)"/><path class="b" d="M84.632,91.364h4.174a.532.532,0,1,0,0-1.064H84.632a.532.532,0,1,0,0,1.064Zm0,0" transform="translate(-79.439 -85.295)"/><path class="b" d="M235.432,58.064h1.391a.532.532,0,0,0,0-1.064h-1.391a.532.532,0,1,0,0,1.064Zm0,0" transform="translate(-221.88 -53.841)"/><path class="b" d="M235.432,91.364h1.391a.532.532,0,0,0,0-1.064h-1.391a.532.532,0,1,0,0,1.064Zm0,0" transform="translate(-221.88 -85.295)"/><path class="b" d="M84.632,213.164h5.576a.532.532,0,1,0,0-1.064H84.632a.532.532,0,1,0,0,1.064Zm0,0" transform="translate(-79.439 -200.344)"/><path class="b" d="M84.632,246.464h4.174a.532.532,0,1,0,0-1.064H84.632a.532.532,0,1,0,0,1.064Zm0,0" transform="translate(-79.439 -231.798)"/><path class="b" d="M235.432,213.164h1.391a.532.532,0,0,0,0-1.064h-1.391a.532.532,0,1,0,0,1.064Zm0,0" transform="translate(-221.88 -200.344)"/><path class="b" d="M235.432,246.464h1.391a.532.532,0,0,0,0-1.064h-1.391a.532.532,0,1,0,0,1.064Zm0,0" transform="translate(-221.88 -231.798)"/></g></g><g transform="translate(964.717 3632.674)"><circle class="a" cx="28.177" cy="28.177" r="28.177" transform="translate(0 0)"/><path class="b" d="M15.35,17.636a46.005,46.005,0,0,0-4.76-2.149A10.269,10.269,0,0,1,7.979,14.02a2.269,2.269,0,0,1,.562-4.037,4.631,4.631,0,0,1,1.6-.331,12.14,12.14,0,0,1,6.006,1.185c.944.462,1.265.311,1.587-.673.341-1.044.623-2.109.934-3.154a1.1,1.1,0,0,0-.713-1.466,15.177,15.177,0,0,0-3.8-1.135c-1.717-.261-1.717-.271-1.727-2,0-2.451,0-2.451-2.44-2.451-.352,0-.7-.01-1.065,0C7.788,0,7.587.2,7.557,1.346c-.02.512,0,1.024-.01,1.547C7.537,4.419,7.527,4.4,6.07,4.921,2.535,6.207.346,8.617.115,12.474c-.211,3.415,1.577,5.725,4.379,7.4a48.683,48.683,0,0,0,5.473,2.461,7.925,7.925,0,0,1,1.989,1.175A2.734,2.734,0,0,1,11.3,28.3a6.564,6.564,0,0,1-3.515.462,15.705,15.705,0,0,1-5.353-1.6c-.984-.512-1.275-.382-1.617.693-.291.924-.542,1.858-.8,2.792C-.327,31.907-.206,32.2,1,32.791a17.121,17.121,0,0,0,4.821,1.386c1.306.211,1.346.261,1.356,1.617.01.613.01,1.225.02,1.838A1.091,1.091,0,0,0,8.37,38.867c.9.02,1.808.02,2.712-.01A1.03,1.03,0,0,0,12.2,37.692c0-.834.04-1.677.01-2.511a1.322,1.322,0,0,1,1.145-1.506,9.072,9.072,0,0,0,4.73-3.033A8.551,8.551,0,0,0,15.35,17.636Zm0,0" transform="translate(18.59 8.927)"/></g><g transform="translate(964.609 3545.754)"><circle class="a" cx="21.643" cy="21.643" r="21.643" transform="translate(0 0)"/><path class="b" d="M1.236,22.24H2.471v1.236a1.236,1.236,0,0,0,2.471,0V22.24H7.413v1.236a1.236,1.236,0,0,0,2.471,0V22.24H10.5a5.539,5.539,0,0,0,2.757-10.355A5.526,5.526,0,0,0,9.884,2.533v-1.3a1.236,1.236,0,1,0-2.471,0V2.471H4.942V1.236a1.236,1.236,0,1,0-2.471,0V2.471H1.236A1.239,1.239,0,0,0,0,3.707V21A1.239,1.239,0,0,0,1.236,22.24ZM10.5,19.769H2.471V13.591H10.5a3.089,3.089,0,0,1,0,6.178ZM2.471,4.942h6.8a3.089,3.089,0,0,1,0,6.178h-6.8Z" transform="translate(14.428 9.393)"/></g><g transform="translate(936.26 3476.076)"><circle class="a" cx="21.528" cy="21.528" r="21.528" transform="translate(0)"/><g transform="translate(13.207 8.038)"><path class="b" d="M8.4,295.525c-.041-.072-.077-.149-.123-.216Q4.2,289.64.108,283.964c-.026-.036-.046-.072-.108-.164a1.968,1.968,0,0,1,.216.1q3.906,2.327,7.817,4.664a.409.409,0,0,0,.478.005q4.052-2.342,8.11-4.669a.677.677,0,0,1,.267-.1c-.062.092-.128.18-.19.272q-4.083,5.67-8.166,11.345a1.233,1.233,0,0,0-.067.108Z" transform="translate(0 -269.224)"/><path class="b" d="M23.058,13.3l-.2.134q-3.921,2.257-7.848,4.515a.316.316,0,0,1-.37,0q-3.8-2.273-7.6-4.535c-.036-.021-.072-.046-.144-.092L14.984,0C17.686,4.448,20.367,8.87,23.058,13.3Z" transform="translate(-6.546)"/></g></g><g transform="translate(970.717 3746.688)"><circle class="a" cx="12.975" cy="12.975" r="12.975" transform="translate(0 0)"/><path class="b" d="M3.46,6.391H6.413V7.779H3.752a2.082,2.082,0,0,1,.179.825,4.41,4.41,0,0,1-.388,1.723,6.418,6.418,0,0,1-1.278,1.854,5.145,5.145,0,0,1,1.348-.205,7.546,7.546,0,0,1,1.754.236,11.524,11.524,0,0,0,2.186.384,4.48,4.48,0,0,0,1.8-.524l.545,1.549a9.7,9.7,0,0,1-1.335.48,4.092,4.092,0,0,1-.942.113,4.57,4.57,0,0,1-.8-.074c-.17-.031-.572-.144-1.213-.34s-1.056-.314-1.243-.353a5.461,5.461,0,0,0-.881-.074,4.906,4.906,0,0,0-1.44.236,5.711,5.711,0,0,0-1.392.637L0,12.617A4.452,4.452,0,0,0,1.527,11.2a3.91,3.91,0,0,0,.628-2.256,4.326,4.326,0,0,0-.161-1.16H.161V6.4H1.605C1.4,5.7,1.27,5.183,1.213,4.864a5.435,5.435,0,0,1-.083-.942A3.6,3.6,0,0,1,2.574.877,4.5,4.5,0,0,1,5.379,0a4.165,4.165,0,0,1,2.8.934A4.071,4.071,0,0,1,9.528,3.551L7.853,3.8a2.8,2.8,0,0,0-.838-1.771,2.376,2.376,0,0,0-1.671-.646,2.365,2.365,0,0,0-1.728.672,2.163,2.163,0,0,0-.694,1.614A9.4,9.4,0,0,0,3.46,6.391Zm0,0" transform="translate(7.96 5.603)"/></g><g transform="translate(914.177 3411.274)"><circle class="a" cx="16.041" cy="16.041" r="16.041"/><path class="b" d="M4.277,7.9H7.929V9.617H4.639a2.574,2.574,0,0,1,.221,1.019,5.453,5.453,0,0,1-.48,2.131A7.935,7.935,0,0,1,2.8,15.06a6.361,6.361,0,0,1,1.667-.254,9.33,9.33,0,0,1,2.168.291,14.247,14.247,0,0,0,2.7.475,5.539,5.539,0,0,0,2.222-.647l.674,1.915a12,12,0,0,1-1.651.593,5.059,5.059,0,0,1-1.165.14,5.65,5.65,0,0,1-.987-.092c-.21-.038-.707-.178-1.5-.421s-1.305-.388-1.537-.437a6.751,6.751,0,0,0-1.09-.092,6.065,6.065,0,0,0-1.78.291A7.061,7.061,0,0,0,.8,17.611L0,15.6a5.5,5.5,0,0,0,1.888-1.753,4.834,4.834,0,0,0,.777-2.789,5.349,5.349,0,0,0-.2-1.435H.2V7.907H1.985c-.254-.863-.415-1.5-.485-1.893a6.72,6.72,0,0,1-.1-1.165A4.451,4.451,0,0,1,3.182,1.084,5.565,5.565,0,0,1,6.651,0a5.149,5.149,0,0,1,3.457,1.154A5.033,5.033,0,0,1,11.78,4.391L9.709,4.7a3.458,3.458,0,0,0-1.036-2.19,2.938,2.938,0,0,0-2.066-.8,2.924,2.924,0,0,0-2.136.831,2.674,2.674,0,0,0-.858,2A11.621,11.621,0,0,0,4.277,7.9Zm0,0" transform="translate(9.841 6.927)"/></g><g transform="translate(907.63 3734.853)"><circle class="a" cx="20.663" cy="20.663" r="20.663"/><g transform="translate(10.986 11.047)"><path class="b" d="M19.6,0H.532a.532.532,0,0,0,0,1.064H1.679V20.236a.538.538,0,0,0,.277.471A.519.519,0,0,0,2.5,20.68l2.311-1.541L7.128,20.68a.518.518,0,0,0,.588,0l2.311-1.541,2.317,1.541a.518.518,0,0,0,.588,0l2.311-1.541,2.317,1.541a.553.553,0,0,0,.294.089.614.614,0,0,0,.255-.061.538.538,0,0,0,.277-.471L18.374,1.064h1.208a.532.532,0,0,0,.532-.532A.518.518,0,0,0,19.6,0ZM17.338,19.244l-1.785-1.186a.518.518,0,0,0-.588,0L12.654,19.6l-2.317-1.541a.518.518,0,0,0-.588,0L7.438,19.6,5.121,18.058a.518.518,0,0,0-.588,0L2.755,19.244V1.064H17.343Zm0,0"/><path class="b" d="M84.632,135.164h5.576a.532.532,0,1,0,0-1.064H84.632a.532.532,0,1,0,0,1.064Zm0,0" transform="translate(-79.439 -126.667)"/><path class="b" d="M84.632,168.464h4.174a.532.532,0,1,0,0-1.064H84.632a.532.532,0,1,0,0,1.064Zm0,0" transform="translate(-79.439 -158.122)"/><path class="b" d="M235.432,135.164h1.391a.532.532,0,0,0,0-1.064h-1.391a.532.532,0,1,0,0,1.064Zm0,0" transform="translate(-221.88 -126.667)"/><path class="b" d="M235.432,168.464h1.391a.532.532,0,0,0,0-1.064h-1.391a.532.532,0,1,0,0,1.064Zm0,0" transform="translate(-221.88 -158.122)"/><path class="b" d="M84.632,58.064h5.576a.532.532,0,1,0,0-1.064H84.632a.532.532,0,1,0,0,1.064Zm0,0" transform="translate(-79.439 -53.841)"/><path class="b" d="M84.632,91.364h4.174a.532.532,0,1,0,0-1.064H84.632a.532.532,0,1,0,0,1.064Zm0,0" transform="translate(-79.439 -85.295)"/><path class="b" d="M235.432,58.064h1.391a.532.532,0,0,0,0-1.064h-1.391a.532.532,0,1,0,0,1.064Zm0,0" transform="translate(-221.88 -53.841)"/><path class="b" d="M235.432,91.364h1.391a.532.532,0,0,0,0-1.064h-1.391a.532.532,0,1,0,0,1.064Zm0,0" transform="translate(-221.88 -85.295)"/><path class="b" d="M84.632,213.164h5.576a.532.532,0,1,0,0-1.064H84.632a.532.532,0,1,0,0,1.064Zm0,0" transform="translate(-79.439 -200.344)"/><path class="b" d="M84.632,246.464h4.174a.532.532,0,1,0,0-1.064H84.632a.532.532,0,1,0,0,1.064Zm0,0" transform="translate(-79.439 -231.798)"/><path class="b" d="M235.432,213.164h1.391a.532.532,0,0,0,0-1.064h-1.391a.532.532,0,1,0,0,1.064Zm0,0" transform="translate(-221.88 -200.344)"/><path class="b" d="M235.432,246.464h1.391a.532.532,0,0,0,0-1.064h-1.391a.532.532,0,1,0,0,1.064Zm0,0" transform="translate(-221.88 -231.798)"/></g></g><g transform="translate(1030.439 3598.37)"><circle class="a" cx="17.354" cy="17.354" r="17.354"/><g transform="translate(9.227 9.278)"><path class="b" d="M16.46,0H.447a.447.447,0,0,0,0,.894H1.41V17a.452.452,0,0,0,.233.4.436.436,0,0,0,.456-.023l1.941-1.294,1.946,1.294a.435.435,0,0,0,.493,0l1.941-1.294,1.946,1.294a.435.435,0,0,0,.493,0L12.8,16.074l1.946,1.294a.465.465,0,0,0,.247.074.516.516,0,0,0,.214-.051.452.452,0,0,0,.233-.4L15.432.894h1.015a.447.447,0,0,0,.447-.447A.435.435,0,0,0,16.46,0Zm-1.9,16.162-1.5-1a.435.435,0,0,0-.493,0L10.628,16.46,8.682,15.166a.435.435,0,0,0-.493,0L6.247,16.46,4.3,15.166a.435.435,0,0,0-.493,0l-1.494,1V.894H14.566Zm0,0"/><path class="b" d="M84.547,134.994H89.23a.447.447,0,1,0,0-.894H84.547a.447.447,0,1,0,0,.894Zm0,0" transform="translate(-80.185 -127.858)"/><path class="b" d="M84.547,168.294h3.505a.447.447,0,1,0,0-.894H84.547a.447.447,0,1,0,0,.894Zm0,0" transform="translate(-80.185 -159.607)"/><path class="b" d="M235.347,134.994h1.168a.447.447,0,0,0,0-.894h-1.168a.447.447,0,0,0,0,.894Zm0,0" transform="translate(-223.965 -127.858)"/><path class="b" d="M235.347,168.294h1.168a.447.447,0,0,0,0-.894h-1.168a.447.447,0,0,0,0,.894Zm0,0" transform="translate(-223.965 -159.607)"/><path class="b" d="M84.547,57.894H89.23a.447.447,0,0,0,0-.894H84.547a.447.447,0,1,0,0,.894Zm0,0" transform="translate(-80.185 -54.347)"/><path class="b" d="M84.547,91.194h3.505a.447.447,0,1,0,0-.894H84.547a.447.447,0,1,0,0,.894Zm0,0" transform="translate(-80.185 -86.096)"/><path class="b" d="M235.347,57.894h1.168a.447.447,0,0,0,0-.894h-1.168a.447.447,0,0,0,0,.894Zm0,0" transform="translate(-223.965 -54.347)"/><path class="b" d="M235.347,91.194h1.168a.447.447,0,0,0,0-.894h-1.168a.447.447,0,0,0,0,.894Zm0,0" transform="translate(-223.965 -86.096)"/><path class="b" d="M84.547,212.994H89.23a.447.447,0,1,0,0-.894H84.547a.447.447,0,1,0,0,.894Zm0,0" transform="translate(-80.185 -202.227)"/><path class="b" d="M84.547,246.294h3.505a.447.447,0,1,0,0-.894H84.547a.447.447,0,1,0,0,.894Zm0,0" transform="translate(-80.185 -233.976)"/><path class="b" d="M235.347,212.994h1.168a.447.447,0,0,0,0-.894h-1.168a.447.447,0,1,0,0,.894Zm0,0" transform="translate(-223.965 -202.227)"/><path class="b" d="M235.347,246.294h1.168a.447.447,0,0,0,0-.894h-1.168a.447.447,0,0,0,0,.894Zm0,0" transform="translate(-223.965 -233.976)"/></g></g><path class="b" d="M8.4,9.706A25.371,25.371,0,0,0,5.772,8.521a5.663,5.663,0,0,1-1.44-.809,1.251,1.251,0,0,1,.31-2.227A2.554,2.554,0,0,1,5.523,5.3a6.7,6.7,0,0,1,3.312.654c.521.255.7.172.875-.371.188-.576.343-1.163.515-1.739a.606.606,0,0,0-.393-.809,8.37,8.37,0,0,0-2.094-.626c-.947-.144-.947-.15-.953-1.1,0-1.351,0-1.351-1.346-1.351-.194,0-.388-.006-.587,0C4.227-.02,4.116.091,4.1.722c-.011.282,0,.565-.006.853-.006.842-.011.831-.814,1.119A4.5,4.5,0,0,0,0,6.859,4.269,4.269,0,0,0,2.41,10.941,26.848,26.848,0,0,0,5.429,12.3a4.371,4.371,0,0,1,1.1.648,1.508,1.508,0,0,1-.36,2.642,3.62,3.62,0,0,1-1.939.255,8.661,8.661,0,0,1-2.952-.881c-.543-.282-.7-.21-.892.382-.161.51-.3,1.025-.443,1.54-.188.692-.122.853.543,1.18a9.442,9.442,0,0,0,2.659.764c.72.116.742.144.748.892.006.338.006.676.011,1.014a.6.6,0,0,0,.648.681c.5.011,1,.011,1.5-.006a.568.568,0,0,0,.615-.642c0-.46.022-.925.006-1.385a.729.729,0,0,1,.631-.831A5,5,0,0,0,9.9,16.879,4.716,4.716,0,0,0,8.4,9.706Zm0,0" transform="translate(589.556 3883.667)"/><path class="b" d="M16.839,22.207l-.588-2.657A.528.528,0,0,0,16,19.192a.519.519,0,0,0-.434-.026l-.077.026-.2.051c-.077.026-.2.051-.307.077-.128.026-.256.051-.409.077s-.332.051-.485.077a3.828,3.828,0,0,1-.562.051,4.724,4.724,0,0,1-.588.026,6.7,6.7,0,0,1-6.286-4.242h6.439a.538.538,0,0,0,.332-.128.474.474,0,0,0,.179-.307L14,13.008a.592.592,0,0,0-.1-.46.533.533,0,0,0-.409-.2H5.826c-.026-.767-.026-1.329,0-1.738h8.126a.49.49,0,0,0,.537-.434L14.9,8.281a.471.471,0,0,0-.128-.434.5.5,0,0,0-.409-.2H6.567A6.548,6.548,0,0,1,9.071,4.7a6.79,6.79,0,0,1,3.756-1.073,1.079,1.079,0,0,1,.485.026c.281.026.434.051.485.051a2.075,2.075,0,0,1,.434.051c.256.026.383.051.383.051l.281.051c.077.026.153.026.2.051l.077.026a.46.46,0,0,0,.409-.051.45.45,0,0,0,.23-.332l.69-2.606a.56.56,0,0,0-.051-.409.78.78,0,0,0-.332-.256A13.229,13.229,0,0,0,12.9-.1,11.425,11.425,0,0,0,6.209,2.046,10.849,10.849,0,0,0,2.146,7.668H.537a.52.52,0,0,0-.383.153A.627.627,0,0,0,0,8.23v1.891a.524.524,0,0,0,.537.537H1.661c-.026.537-.051,1.124-.026,1.738H.537a.52.52,0,0,0-.383.153A.563.563,0,0,0,0,12.932v1.891a.524.524,0,0,0,.537.537H2.121A10.728,10.728,0,0,0,6.081,21.21,11.045,11.045,0,0,0,12.9,23.382a5.341,5.341,0,0,0,.639-.026,4.578,4.578,0,0,0,.613-.051c.179-.026.383-.051.562-.077s.358-.051.511-.077.281-.051.434-.077a1.465,1.465,0,0,0,.358-.1,1.588,1.588,0,0,0,.256-.077,1.629,1.629,0,0,0,.179-.051l.077-.026a.625.625,0,0,0,.281-.23.657.657,0,0,0,.026-.383Zm0,0" transform="translate(907.313 3817.316)"/><path class="b" d="M9.414,10.865A28.386,28.386,0,0,0,6.476,9.539a6.336,6.336,0,0,1-1.611-.9,1.4,1.4,0,0,1,.347-2.491,2.857,2.857,0,0,1,.985-.2A7.491,7.491,0,0,1,9.9,6.67c.583.285.781.192.979-.415.211-.644.384-1.3.576-1.946a.678.678,0,0,0-.44-.9,9.364,9.364,0,0,0-2.342-.7c-1.06-.161-1.06-.167-1.066-1.233,0-1.512,0-1.512-1.506-1.512-.217,0-.434-.006-.657,0-.7.025-.824.149-.843.855-.012.316,0,.632-.006.954-.006.942-.012.93-.911,1.252A5.029,5.029,0,0,0,.013,7.68a4.776,4.776,0,0,0,2.7,4.567,30.039,30.039,0,0,0,3.377,1.518,4.89,4.89,0,0,1,1.227.725,1.687,1.687,0,0,1-.4,2.956,4.05,4.05,0,0,1-2.169.285,9.691,9.691,0,0,1-3.3-.985c-.607-.316-.787-.235-1,.428-.18.57-.335,1.146-.5,1.723-.211.775-.136.954.607,1.32a10.564,10.564,0,0,0,2.975.855c.806.13.83.161.837,1,.006.378.006.756.012,1.134a.673.673,0,0,0,.725.762c.558.012,1.115.012,1.673-.006a.636.636,0,0,0,.688-.719c0-.514.025-1.035.006-1.549a.816.816,0,0,1,.706-.93A5.6,5.6,0,0,0,11.1,18.89a5.276,5.276,0,0,0-1.686-8.025Zm0,0" transform="translate(742.632 3266.017)"/><path class="b" d="M14.526,19.143l-.507-2.292a.456.456,0,0,0-.22-.309.447.447,0,0,0-.375-.022l-.066.022-.176.044c-.066.022-.176.044-.265.066-.11.022-.22.044-.353.066s-.287.044-.419.066a3.3,3.3,0,0,1-.485.044,4.075,4.075,0,0,1-.507.022,5.778,5.778,0,0,1-5.422-3.659h5.555a.464.464,0,0,0,.287-.11.409.409,0,0,0,.154-.265l.353-1.609a.511.511,0,0,0-.088-.4.46.46,0,0,0-.353-.176H5.026C5,9.973,5,9.488,5.026,9.136h7.009a.423.423,0,0,0,.463-.375L12.85,7.13a.407.407,0,0,0-.11-.375.428.428,0,0,0-.353-.176H5.665a5.649,5.649,0,0,1,2.16-2.535,5.858,5.858,0,0,1,3.24-.926.931.931,0,0,1,.419.022c.242.022.375.044.419.044a1.79,1.79,0,0,1,.375.044c.22.022.331.044.331.044l.242.044c.066.022.132.022.176.044l.066.022a.4.4,0,0,0,.353-.044.388.388,0,0,0,.2-.287L14.239.8a.483.483,0,0,0-.044-.353.672.672,0,0,0-.287-.22A11.412,11.412,0,0,0,11.131-.1,9.855,9.855,0,0,0,5.356,1.752,9.358,9.358,0,0,0,1.852,6.6H.463a.449.449,0,0,0-.331.132A.54.54,0,0,0,0,7.086V8.717a.452.452,0,0,0,.463.463h.97c-.022.463-.044.97-.022,1.5H.463a.449.449,0,0,0-.331.132A.486.486,0,0,0,0,11.141v1.631a.452.452,0,0,0,.463.463H1.829a9.254,9.254,0,0,0,3.416,5.048,9.528,9.528,0,0,0,5.885,1.874,4.607,4.607,0,0,0,.551-.022,3.949,3.949,0,0,0,.529-.044c.154-.022.331-.044.485-.066s.309-.044.441-.066.242-.044.375-.066a1.263,1.263,0,0,0,.309-.088,1.369,1.369,0,0,0,.22-.066,1.405,1.405,0,0,0,.154-.044l.066-.022a.539.539,0,0,0,.242-.2.567.567,0,0,0,.022-.331Zm0,0" transform="translate(793.273 3326.042)"/></svg>