<svg xmlns="http://www.w3.org/2000/svg" viewBox="308.676 59.693 13.088 13.088"><defs><style>.a{fill:#fff;}</style></defs><path class="a" d="M621.5,0l-6.6,6.492,6.492,6.6,6.6-6.492Zm5.453,6.336L622.82,5.3l-1.065-4.233ZM622.924,8l-2.441-.623-.571-2.207,2.467.623Zm-.727-2.83L619.7,4.544l-.026-.078,1.584-2.934Zm-1.636-3.48-1.454,2.7-2.6,1.3Zm-1.4,3.3.1.026.571,2.181-3.35-.857Zm-3.22,1.792,4.051,1.039L621.08,12Zm4.7,1.195,2.441.623.026.078-1.532,2.856Zm1.636,3.48L623.7,8.777l2.675-1.35Zm1.35-3.272-.1-.026-.545-2.233,3.4.857Z" transform="translate(-306.224 59.693)"/></svg>