<svg xmlns="http://www.w3.org/2000/svg" xmlns:xlink="http://www.w3.org/1999/xlink" viewBox="788.103 8696.684 52.242 60.964"><defs><style>.a{fill:url(#a);}</style><linearGradient id="a" x1="-46.565" y1="5.88" x2="-46.524" y2="5.901" gradientUnits="objectBoundingBox"><stop offset="0" stop-color="#5253fb"/><stop offset="1" stop-color="#7745ff"/></linearGradient></defs><path class="a" d="M-776.25-8635.806a11.944,11.944,0,0,1-11.854-11.854,35.155,35.155,0,0,1,3.049-14.394,44.874,44.874,0,0,1,6.6-10.5,48.843,48.843,0,0,1,8.3-7.874l-6.943-10.5a1.535,1.535,0,0,1,.17-1.946,10.176,10.176,0,0,1,7.619-3.558,22.808,22.808,0,0,1,7.536,1.778,2.59,2.59,0,0,0,.679.171,7.532,7.532,0,0,0,3.047-.933,12.42,12.42,0,0,1,4.911-1.27,7.577,7.577,0,0,1,5.5,2.455,1.409,1.409,0,0,1,.253,1.778l-6.519,11.939a50.407,50.407,0,0,1,8.383,8.043,44.4,44.4,0,0,1,6.6,10.585,37.728,37.728,0,0,1,3.047,14.31,11.945,11.945,0,0,1-11.854,11.854Zm.085-34.716c-5.843,7.028-8.807,14.734-8.807,22.862a8.709,8.709,0,0,0,8.722,8.722h28.705a8.708,8.708,0,0,0,8.719-8.722c0-8.128-2.962-15.834-8.719-22.862a45.866,45.866,0,0,0-8.636-8.043h-11.432A42.951,42.951,0,0,0-776.165-8670.521Zm2.287-21.081,6.6,10.074H-756.6l6.011-11.345a3.609,3.609,0,0,0-2.455-.847,8.631,8.631,0,0,0-3.811,1.1,10.8,10.8,0,0,1-4.232,1.1,6.381,6.381,0,0,1-1.779-.254,19.935,19.935,0,0,0-6.519-1.61c-.093,0-.186-.007-.278-.007A5.965,5.965,0,0,0-773.877-8691.6ZM-762.484-8644c-.041-.072-.079-.151-.124-.217q-4.1-5.689-8.2-11.389c-.026-.034-.046-.069-.109-.163.109.048.166.067.218.1q3.919,2.335,7.844,4.68a.413.413,0,0,0,.48.007q4.066-2.351,8.139-4.687a.675.675,0,0,1,.268-.1c-.061.094-.129.181-.19.272q-4.1,5.689-8.2,11.389a.963.963,0,0,0-.068.107Zm-.31-8.382q-3.814-2.281-7.624-4.553c-.037-.02-.074-.046-.146-.092,2.7-4.443,5.393-8.887,8.115-13.372q4.066,6.694,8.1,13.351l-.2.136q-3.935,2.265-7.877,4.53a.375.375,0,0,1-.188.06A.361.361,0,0,1-762.794-8652.378Z" transform="translate(1576.207 17393.367)"/></svg>