<svg xmlns="http://www.w3.org/2000/svg" xmlns:xlink="http://www.w3.org/1999/xlink" viewBox="448.001 8133.891 49.619 57.711"><defs><style>.a{fill:url(#a);}</style><linearGradient id="a" x1="-0.558" y1="1.213" x2="1.485" gradientUnits="objectBoundingBox"><stop offset="0" stop-color="#5253fb"/><stop offset="1" stop-color="#7745ff"/></linearGradient></defs><path class="a" d="M-346.808-7704.18A11.207,11.207,0,0,1-358-7715.371a33.432,33.432,0,0,1,2.9-13.621,43.985,43.985,0,0,1,6.271-9.978,51.114,51.114,0,0,1,7.887-7.482l-6.608-9.978a1.422,1.422,0,0,1,.134-1.821,9.685,9.685,0,0,1,7.213-3.37,22.028,22.028,0,0,1,7.147,1.685,2.037,2.037,0,0,0,.674.134,8.184,8.184,0,0,0,2.9-.876,12.8,12.8,0,0,1,4.652-1.214,7.3,7.3,0,0,1,5.191,2.293,1.429,1.429,0,0,1,.271,1.685l-6.136,11.326a47.036,47.036,0,0,1,7.956,7.618,42.925,42.925,0,0,1,6.271,10.046,35.223,35.223,0,0,1,2.9,13.552,11.208,11.208,0,0,1-11.191,11.191Zm.066-32.833c-5.528,6.674-8.359,13.955-8.359,21.642a8.285,8.285,0,0,0,8.293,8.291h27.168a8.285,8.285,0,0,0,8.293-8.291c0-7.687-2.83-14.968-8.293-21.642a42.526,42.526,0,0,0-8.156-7.619h-10.788A42.514,42.514,0,0,0-346.742-7737.013Zm2.158-20.023,6.271,9.506H-328.2l5.731-10.72a3.469,3.469,0,0,0-2.293-.809,9.257,9.257,0,0,0-3.573,1.011,10.617,10.617,0,0,1-4.046,1.079,4.649,4.649,0,0,1-1.685-.271,19.228,19.228,0,0,0-6.2-1.55A6.238,6.238,0,0,0-344.584-7757.036Zm10.246,43.485v-2.022h-2.83a1.425,1.425,0,0,1-1.416-1.417,1.425,1.425,0,0,1,1.416-1.416h5.934a2.13,2.13,0,0,0,2.156-2.156,2.13,2.13,0,0,0-2.156-2.159h-3.3a5.094,5.094,0,0,1-5.057-5.057,5.093,5.093,0,0,1,5.057-5.055h.2v-2.024a1.424,1.424,0,0,1,1.416-1.414,1.423,1.423,0,0,1,1.416,1.414v2.024h2.7a1.423,1.423,0,0,1,1.416,1.415,1.424,1.424,0,0,1-1.416,1.416h-5.8a2.13,2.13,0,0,0-2.156,2.158,2.128,2.128,0,0,0,2.156,2.156h3.3a5.051,5.051,0,0,1,5.057,5.057,5.082,5.082,0,0,1-4.989,5.057h-.271v2.022a1.423,1.423,0,0,1-1.416,1.416A1.426,1.426,0,0,1-334.337-7713.551Z" transform="translate(806 15895.781)"/></svg>