<svg xmlns="http://www.w3.org/2000/svg" xmlns:xlink="http://www.w3.org/1999/xlink" viewBox="773 8129.715 55.388 66.385"><defs><style>.a{fill:url(#a);}</style><linearGradient id="a" x1="-0.361" y1="1.261" x2="1.277" gradientUnits="objectBoundingBox"><stop offset="0" stop-color="#5253fb"/><stop offset="1" stop-color="#7745ff"/></linearGradient></defs><path class="a" d="M37.515,66.385h-.148A18.034,18.034,0,0,1,20.595,54.919C19.736,55,18.879,55,18.021,55a42.711,42.711,0,0,1-12.17-1.561C1.014,51.953,0,49.925,0,48.443V6.551c0-1.4,1.014-3.433,5.851-4.991A42.5,42.5,0,0,1,17.943,0a42.686,42.686,0,0,1,12.17,1.56c4.837,1.481,5.851,3.51,5.851,4.991V30.578a8.424,8.424,0,0,1,1.4-.078,17.943,17.943,0,1,1,.149,35.885ZM22.389,45.4c0,.233-.077.391-.077.625v.468a.986.986,0,0,0-.078.469v2.73a.982.982,0,0,1,.078.467v.157c0,.156.077.311.077.467v.156c0,.156.078.234.078.39v.156c0,.158.078.313.078.469a.288.288,0,0,1,.077.234c0,.077.078.156.078.233,0,.157.077.236.077.392,0,.077.078.156.078.233a15.219,15.219,0,0,0,14.51,10.687A15.049,15.049,0,0,0,52.5,48.6,15.231,15.231,0,0,0,37.29,33.387a14.374,14.374,0,0,0-2.574.234,1.324,1.324,0,0,0-.547.078h-.156c-.156,0-.311.077-.467.077s-.236.078-.391.078h-.077A15.2,15.2,0,0,0,22.389,45.4ZM2.81,48.443c0,.311.7,1.326,3.9,2.34a39.358,39.358,0,0,0,11.311,1.481h1.8c0-.077-.08-.077-.236-.233v-.156a.587.587,0,0,1-.078-.311v-.236a.287.287,0,0,1-.077-.234v-3.12h-1.4a42.714,42.714,0,0,1-12.17-1.56A14.333,14.333,0,0,1,2.81,45.167Zm.077-7.021c0,.312.7,1.326,3.9,2.341A39.4,39.4,0,0,0,18.1,45.245h1.637a19.258,19.258,0,0,1,1.092-3.588c0-.078.078-.078.078-.156a.077.077,0,0,0,.08-.078c.077-.077.077-.236.156-.311v-.08c-1.014.08-2.029.08-3.043.08a52.207,52.207,0,0,1-6.162-.391,1.412,1.412,0,1,1,.311-2.807,45.42,45.42,0,0,0,5.773.311A44.862,44.862,0,0,0,22.7,37.99a8.44,8.44,0,0,1,1.014-1.326A19.744,19.744,0,0,1,28.085,33a49.327,49.327,0,0,1-10.064,1.014,42.714,42.714,0,0,1-12.17-1.56,14.766,14.766,0,0,1-2.964-1.2Zm0-13.729c0,.311.7,1.326,3.9,2.34A39.369,39.369,0,0,0,18.1,31.514,39.756,39.756,0,0,0,29.41,30.033c3.2-1.014,3.9-2.029,3.9-2.34V17.474a20.027,20.027,0,0,1-3.041,1.248,42.718,42.718,0,0,1-12.17,1.56,52.214,52.214,0,0,1-6.162-.39,1.414,1.414,0,0,1,.311-2.81,44.916,44.916,0,0,0,5.773.313,39.758,39.758,0,0,0,11.312-1.483c3.2-1.013,3.9-2.027,3.9-2.34V10.3a20.4,20.4,0,0,1-3.041,1.247A42.725,42.725,0,0,1,18.021,13.1a42.714,42.714,0,0,1-12.17-1.56A14.431,14.431,0,0,1,2.81,10.3V20.515c0,.313.7,1.327,3.9,2.343a39.453,39.453,0,0,0,11.311,1.481,43.613,43.613,0,0,0,7.332-.547,1.441,1.441,0,0,1,1.562,1.17,1.549,1.549,0,0,1-1.093,1.717,60.1,60.1,0,0,1-7.723.544A42.727,42.727,0,0,1,5.928,25.664a14.286,14.286,0,0,1-3.041-1.248ZM6.631,4.211C3.51,5.225,2.81,6.318,2.732,6.551c0,.311.7,1.326,3.9,2.341a39.4,39.4,0,0,0,11.312,1.483A39.783,39.783,0,0,0,29.255,8.892c3.2-1.015,3.9-2.03,3.9-2.341s-.7-1.326-3.9-2.34A39.367,39.367,0,0,0,17.943,2.73,39.758,39.758,0,0,0,6.631,4.211Zm31.838,54V57.129H36.313v1.078a1.078,1.078,0,1,1-2.156,0V57.129H33.079A1.081,1.081,0,0,1,32,56.051V40.957a1.081,1.081,0,0,1,1.078-1.078h1.078V38.8a1.078,1.078,0,1,1,2.156,0v1.078H38.47V38.8a1.078,1.078,0,1,1,2.156,0v1.132a4.823,4.823,0,0,1,2.945,8.16,4.834,4.834,0,0,1-2.406,9.036h-.539v1.078a1.078,1.078,0,1,1-2.156,0Zm-4.313-3.235h7.008a2.7,2.7,0,1,0,0-5.391H34.157Zm0-7.546h5.93a2.7,2.7,0,0,0,0-5.391h-5.93ZM7.568,40.017c-.156-.077-.39-.077-.625-.156a1.686,1.686,0,0,1-1.092-1.715,1.464,1.464,0,0,1,1.717-1.013c.233.077.389.077.623.156a1.366,1.366,0,0,1,1.014,1.637A1.326,1.326,0,0,1,7.88,40.017ZM28.085,24.65a1.413,1.413,0,0,1,.936-1.715c.234-.077.468-.157.7-.233a1.406,1.406,0,1,1,.937,2.651c-.234.077-.545.156-.781.233a.7.7,0,0,1-.389.078A1.5,1.5,0,0,1,28.085,24.65ZM7.568,19.033c-.156-.078-.39-.078-.625-.156A1.409,1.409,0,0,1,5.928,17.24a1.464,1.464,0,0,1,1.717-1.014c.234.078.39.078.623.156a1.173,1.173,0,0,1,.937,1.56A1.406,1.406,0,0,1,7.88,19.033Z" transform="translate(773 8129.715)"/></svg>