<svg xmlns="http://www.w3.org/2000/svg" xmlns:xlink="http://www.w3.org/1999/xlink" viewBox="280 5679.241 72.116 72.259"><defs><style>.a{fill:url(#a);}</style><linearGradient id="a" x1="0.501" y1="0.999" x2="0.501" gradientUnits="objectBoundingBox"><stop offset="0" stop-color="#5253fb"/><stop offset="0.724" stop-color="#6c49fe"/><stop offset="1" stop-color="#7745ff"/></linearGradient></defs><path class="a" d="M36.058,4.436,67.823,36.2,36.058,67.823,4.436,36.058,36.058,4.436m0-4.436L0,36.058,36.058,72.116,72.116,36.058,36.058,0Zm-1,8.442L45.215,47.934l-8.3,15.883L26.328,24.754,35.056,8.442m1-8.442L23.037,24.325,36.058,72.259l12.449-23.9L36.058,0ZM23.466,27.616,63.387,37.2,48.22,45.072,8.728,35.056l14.738-7.441m-.286-3.291L0,36.058,48.506,48.22,72.116,36.058,23.18,24.325Z" transform="translate(280 5679.241)"/></svg>