<svg xmlns="http://www.w3.org/2000/svg" xmlns:xlink="http://www.w3.org/1999/xlink" viewBox="-1923 5497.201 76.799 76.799"><defs><style>.a{fill:url(#a);}</style><linearGradient id="a" x1="0.239" y1="1.017" x2="0.815" y2="0.02" gradientUnits="objectBoundingBox"><stop offset="0" stop-color="#5253fb"/><stop offset="1" stop-color="#7745ff"/></linearGradient></defs><path class="a" d="M71.845,17.466v-5.59L59.968,0H24.774V17.342H6.193A6.192,6.192,0,0,0,0,23.535V63.174a6.192,6.192,0,0,0,6.193,6.193H21.058v4.955H16.1V76.8H60.7V74.322H55.741V69.367H70.606A6.192,6.192,0,0,0,76.8,63.174V23.535A6.21,6.21,0,0,0,71.845,17.466ZM59.458,2.988l9.4,9.4h-9.4ZM27.251,2.477H56.98V14.864H69.367V54.5H27.251ZM53.264,74.322H23.535V69.367H53.264ZM74.322,63.174a3.727,3.727,0,0,1-3.716,3.716H6.193a3.727,3.727,0,0,1-3.716-3.716V61.935H74.322Zm0-3.716H2.477V23.535a3.727,3.727,0,0,1,3.716-3.716h18.58V56.98H71.845V20.051a3.7,3.7,0,0,1,2.477,3.484ZM22.3,30.967a8.671,8.671,0,1,0-8.671,8.671A8.676,8.676,0,0,0,22.3,30.967ZM14.864,28.49a1.239,1.239,0,1,1-1.239-1.239A1.242,1.242,0,0,1,14.864,28.49Zm-1.239,8.671a6.311,6.311,0,0,1-2.431-.5,2.482,2.482,0,0,1,4.862,0A6.311,6.311,0,0,1,13.626,37.161Zm0-4.955A4.935,4.935,0,0,0,9.1,35.164a6.086,6.086,0,0,1-1.672-4.2,6.176,6.176,0,0,1,5.45-6.116,3.716,3.716,0,1,0,1.486,0,6.176,6.176,0,0,1,5.45,6.116,6.086,6.086,0,0,1-1.672,4.2A4.935,4.935,0,0,0,13.626,32.206Zm-8.671,16.1a8.671,8.671,0,1,0,8.671-8.671A8.676,8.676,0,0,0,4.955,48.309ZM13.626,54.5a6.311,6.311,0,0,1-2.431-.5,2.482,2.482,0,0,1,4.862,0A6.311,6.311,0,0,1,13.626,54.5Zm1.239-8.671a1.239,1.239,0,1,1-1.239-1.239A1.242,1.242,0,0,1,14.864,45.832Zm-1.982-3.639a3.716,3.716,0,1,0,1.486,0,6.176,6.176,0,0,1,5.45,6.116,6.086,6.086,0,0,1-1.672,4.2,4.935,4.935,0,0,0-9.042,0,6.086,6.086,0,0,1-1.672-4.2A6.176,6.176,0,0,1,12.882,42.193ZM44.593,9.8V7.432H32.206V19.819H44.593V12.851l4.428-3.174-1.44-2.013Zm-2.477,1.765-2.338,1.672L38.044,11.5l-1.75,1.75,3.221,3.221,2.617-1.858v2.725H34.7V9.91h7.432v1.657Zm2.477,13.1V22.3H32.206V34.684H44.593V27.716l4.428-3.174-1.44-2.013Zm-2.477,1.765L39.778,28.1l-1.734-1.734-1.75,1.75,3.221,3.221,2.617-1.858v2.725H34.7V24.774h7.432v1.657Zm2.477,13.1V37.161H32.206V49.548H44.593V42.58l4.428-3.174-1.44-2.013ZM42.116,41.3l-2.338,1.672-1.734-1.734-1.75,1.75L39.514,46.2l2.617-1.858v2.725H34.7V39.638h7.432V41.3Zm7.432-23.953H64.412v2.477H49.548Zm0,14.864H64.412v2.477H49.548Zm0,14.864H64.412v2.477H49.548Zm0-4.955H64.412v2.477H49.548Zm0-14.864H64.412v2.477H49.548Zm0-14.864H54.5v2.477H49.548Z" transform="translate(-1923 5497.201)"/></svg>