<svg xmlns="http://www.w3.org/2000/svg" xmlns:xlink="http://www.w3.org/1999/xlink" viewBox="-1662 5487.925 95.952 92.556"><defs><style>.a{fill:url(#a);}</style><linearGradient id="a" x1="0.235" y1="0.935" x2="0.791" y2="-0.062" gradientUnits="objectBoundingBox"><stop offset="0" stop-color="#5253fb"/><stop offset="1" stop-color="#7745ff"/></linearGradient></defs><path class="a" d="M18.29,80.1c-.024-.024-.073-.049-.1-.073-.978-.807-1.956-1.687-2.861-2.592a1.461,1.461,0,0,0-2.054,0,1.491,1.491,0,0,0,0,2.079,36.647,36.647,0,0,0,3.057,2.763,1.492,1.492,0,0,0,2.079-.1A1.471,1.471,0,0,0,18.29,80.1ZM2.932,36.6a1.465,1.465,0,0,0-1.859.9A.863.863,0,0,0,1,37.846c-.293,1.345-.514,2.69-.685,4.059a1.458,1.458,0,0,0,1.247,1.638h.2a1.5,1.5,0,0,0,1.467-1.3c.147-1.272.367-2.543.636-3.79A1.479,1.479,0,0,0,2.932,36.6ZM11,72.327c-.758-1.027-1.467-2.1-2.128-3.2A1.473,1.473,0,0,0,6.87,68.61h0a1.473,1.473,0,0,0-.514,2.005h0c.709,1.174,1.467,2.323,2.274,3.424a1.448,1.448,0,0,0,2.054.245A1.429,1.429,0,0,0,11,72.327ZM5.891,63.058c-.465-1.174-.9-2.4-1.272-3.644a1.467,1.467,0,0,0-1.81-1c-.024,0-.024,0-.049.024a1.484,1.484,0,0,0-.978,1.81c.391,1.321.831,2.617,1.345,3.913a1.487,1.487,0,1,0,2.763-1.1Zm.88-36.535a1.47,1.47,0,0,0-1.981.66C4.18,28.406,3.617,29.678,3.1,30.95a1.471,1.471,0,1,0,2.739,1.076h0A37.64,37.64,0,0,1,7.408,28.5,1.482,1.482,0,0,0,6.772,26.523ZM3.25,52.861h0c-.147-1.272-.269-2.568-.318-3.839a1.468,1.468,0,0,0-2.935.1A29.1,29.1,0,0,0,.34,53.228,1.49,1.49,0,0,0,1.759,54.5h.22A1.463,1.463,0,0,0,3.25,52.861ZM42.182,3.9a1.48,1.48,0,0,0-1.614-1.321c-1.369.147-2.739.342-4.084.587A1.475,1.475,0,0,0,36.778,6.1V6.055h.293c1.272-.245,2.543-.44,3.815-.562A1.441,1.441,0,0,0,42.182,3.9ZM13.13,17.646a1.471,1.471,0,0,0-2.079.122Q9.694,19.309,8.484,21A1.5,1.5,0,0,0,8.8,23.051a1.482,1.482,0,0,0,.856.269v.024a1.5,1.5,0,0,0,1.2-.611c.758-1.027,1.565-2.054,2.4-3.008A1.452,1.452,0,0,0,13.13,17.646ZM51.842,2.827c-1.345-.2-2.739-.342-4.108-.44a1.471,1.471,0,1,0-.2,2.935c1.3.1,2.568.245,3.839.44h.22a1.459,1.459,0,0,0,1.565-1.369A1.418,1.418,0,0,0,51.842,2.827Zm-30.373,7.85a1.49,1.49,0,0,0-1.981-.367c-1.125.783-2.225,1.614-3.277,2.494a1.476,1.476,0,0,0,1.883,2.274,31.743,31.743,0,0,1,3.081-2.323A1.511,1.511,0,0,0,21.469,10.677Zm4.915-1.2Zm5.184-3.424a1.471,1.471,0,0,0-1.81-1.027,1.685,1.685,0,0,0-.2.073,36.543,36.543,0,0,0-3.79,1.59A1.477,1.477,0,0,0,26.384,9.5,1.326,1.326,0,0,0,27,9.356c1.149-.538,2.348-1.052,3.546-1.492A1.482,1.482,0,0,0,31.569,6.055ZM49.3,90.912a1.475,1.475,0,0,0-1.565-1.369c-1.272.1-2.568.122-3.864.1a1.468,1.468,0,1,0-.1,2.935h1.247a27.966,27.966,0,0,0,2.886-.1A1.478,1.478,0,0,0,49.3,90.912ZM87.717,56.92a1.468,1.468,0,0,0-1.785,1.052,37.411,37.411,0,0,1-1.125,3.668,1.5,1.5,0,0,0,.88,1.859,1.479,1.479,0,0,0,1.883-.88h0c.465-1.3.856-2.617,1.2-3.913A1.468,1.468,0,0,0,87.717,56.92Zm1.859-16.8c-.22-1.345-.514-2.714-.856-4.035a1.466,1.466,0,0,0-2.837.734c.318,1.223.587,2.494.807,3.766a1.463,1.463,0,0,0,1.418,1.2h.245A1.418,1.418,0,0,0,89.575,40.12ZM95.811,23.3a2.423,2.423,0,0,0-.269-.416L92.95,20.19a1.378,1.378,0,0,0-1.418-.342l-4.671,1.418-5.478-5.82L93.683,8.6a1.434,1.434,0,0,0,.709-1.883,2.423,2.423,0,0,0-.269-.416L90.676,2.851a1.443,1.443,0,0,0-1.418-.342L73.68,7.229,68.4,1.653a4.756,4.756,0,0,0-5.4-1.272h-.1a5.776,5.776,0,0,0-3.13,3.13,6.153,6.153,0,0,0-.318,1.149l-.587-.2a1.477,1.477,0,0,0-.9,2.812c.758.245,1.516.514,2.25.807a5.092,5.092,0,0,0,.783.978L66.514,14.3l-1.59,5.233a34.326,34.326,0,1,0,7.312,6.994l2.494-4.5,5.82,5.478-1.394,4.622a1.42,1.42,0,0,0,.342,1.443S82.361,36.4,82.434,36.5a1.4,1.4,0,0,0,1.932-.514.024.024,0,0,1,.024-.024l3.815-7.018,6.9-3.766A1.393,1.393,0,0,0,95.811,23.3ZM22.79,25.227a31.325,31.325,0,0,1,22.229-9.195c.66,0,1.3.024,1.956.049,5.551,5.111,3.913,9.782.2,13.988a70.9,70.9,0,0,1-7.043,6.5c-3.619,3.081-6.97,5.942-8.241,8.8-1.516,3.4-.391,6.48,5.673,9.17,3.032,1.345,4.7,2.4,5.331,3.179l.024.024c-.024,0-.049.024-.073.024a11.87,11.87,0,0,1-4.622.783c-7.385.318-12.619-4.4-16.7-8.046-2.935-2.617-5.38-4.793-7.9-4.793A31.488,31.488,0,0,1,22.79,25.227ZM76.565,47.505h0A31.512,31.512,0,0,1,54.85,77.462a10.15,10.15,0,0,1,1.2-6.652,24.226,24.226,0,0,1,5.869-6.456c9.024-7.532,9.537-11.738,9.929-14.966.245-2.054.44-3.57,4.475-5.8A29.753,29.753,0,0,1,76.565,47.505Zm-1.81-10.589a28.756,28.756,0,0,1,1.076,3.766c-6.163,3.13-6.432,5.356-6.8,8.412-.342,2.739-.758,6.309-8.926,13.132a26.54,26.54,0,0,0-6.554,7.263,12.935,12.935,0,0,0-1.467,8.73,31.518,31.518,0,0,1-37.758-23.7,31.892,31.892,0,0,1-.783-5.918c1.565,0,3.57,1.859,6.04,4.059,4.475,4.011,10.222,9.1,18.757,8.8a14.667,14.667,0,0,0,5.869-1.125,2.932,2.932,0,0,0,1.614-1.834,2.715,2.715,0,0,0-.709-2.543c-.929-1.125-2.935-2.445-6.407-4.011-4.133-1.834-5.038-3.619-4.231-5.429.978-2.3,4.133-4.891,7.483-7.825A69.465,69.465,0,0,0,49.3,31.854c4.084-4.646,6.187-9.733,2.03-15.284a31.337,31.337,0,0,1,12.716,5.771l-2.25,7.434a1.42,1.42,0,0,0,.342,1.443s3.644,3.619,3.766,3.693a1.4,1.4,0,0,0,1.932-.514.024.024,0,0,1,.024-.024L70.7,29.238A29.639,29.639,0,0,1,74.756,36.916ZM87.863,25.985l-1.272.636a1.286,1.286,0,0,0-.636.66l-.636,1.272-2.445,4.4-.709-.783,1.418-4.7a1.44,1.44,0,0,0-.465-1.516L75.391,18.7a1.424,1.424,0,0,0-2.005.024l-.049.049c-.1.1-7.043,12.619-7.043,12.619l-1.516-1.516,4.744-15.6a1.385,1.385,0,0,0-.465-1.516L62.92,6.984a2.038,2.038,0,0,1-.562-2.348,3.148,3.148,0,0,1,1.59-1.59H64a2.05,2.05,0,0,1,2.3.587l5.869,6.211a1.44,1.44,0,0,0,1.443.391l15.651-4.72,1.516,1.516L78.35,13.856a1.435,1.435,0,0,0-.562,1.932.024.024,0,0,0,.024.024c.049.1,7.532,8.07,7.532,8.07a1.44,1.44,0,0,0,1.443.391l4.7-1.418.734.734ZM84.1,67.24a.09.09,0,0,0-.073-.024,1.45,1.45,0,0,0-1.956.587c-.611,1.125-1.3,2.225-2.005,3.277a1.476,1.476,0,0,0,2.421,1.687c.758-1.125,1.492-2.323,2.152-3.521A1.5,1.5,0,0,0,84.1,67.24Zm4.622-21.422a1.488,1.488,0,0,0-1.492,1.443v.22c0,1.272-.049,2.568-.171,3.864a1.457,1.457,0,0,0,1.321,1.59h.147a1.453,1.453,0,0,0,1.467-1.369c.122-1.369.2-2.739.2-4.108v-.2A1.467,1.467,0,0,0,88.719,45.818Zm-51.5,43.089a32.33,32.33,0,0,1-3.766-.856,1.477,1.477,0,0,0-.978,2.788c.049.024.122.024.171.049,1.321.367,2.666.685,4.011.978h.269a1.487,1.487,0,0,0,.293-2.959Zm22.694-.465a1.48,1.48,0,0,0-1.785-.9v.049a33.274,33.274,0,0,1-3.717.978,1.468,1.468,0,1,0,.66,2.861c1.321-.293,2.666-.685,3.962-1.1A1.45,1.45,0,0,0,59.912,88.442ZM27.142,85.7c-1.174-.587-2.3-1.2-3.424-1.834a1.464,1.464,0,0,0-1.492,2.519c1.174.685,2.4,1.345,3.644,1.956a1.475,1.475,0,0,0,1.956-.709A1.438,1.438,0,0,0,27.142,85.7Zm50.719-9.439a1.463,1.463,0,0,0-2.054.073h0a35.746,35.746,0,0,1-2.763,2.69A1.472,1.472,0,1,0,75,81.228c.978-.9,2.005-1.883,2.935-2.886A1.468,1.468,0,0,0,77.861,76.264Zm-8.094,7.312a1.473,1.473,0,0,0-2.005-.514c-.024.024-.049.024-.073.049v-.049c-1.076.685-2.2,1.321-3.326,1.956a1.471,1.471,0,1,0,1.345,2.617c1.223-.636,2.421-1.321,3.57-2.054A1.483,1.483,0,0,0,69.767,83.576Z" transform="translate(-1661.997 5487.906)"/></svg>