<svg xmlns="http://www.w3.org/2000/svg" xmlns:xlink="http://www.w3.org/1999/xlink" viewBox="-1385 5490.791 85.209 85.209"><defs><style>.a{fill:url(#a);}</style><linearGradient id="a" x1="0.193" y1="1.032" x2="0.713" y2="0.131" gradientUnits="objectBoundingBox"><stop offset="0" stop-color="#5253fb"/><stop offset="1" stop-color="#7745ff"/></linearGradient></defs><path class="a" d="M45.353,23.364H42.6V16.492h2.749V7.439L31.971,0H28.518l-13.4,7.439v9.054h2.749v6.872H15.118V31.61H45.353ZM29.222,2.749h2.044l9.9,5.5H19.344ZM17.867,10.995H42.6v2.749H17.867Zm21.99,5.5v6.872H37.107V16.492Zm-5.5,0v6.872H31.61V16.492Zm-5.5,0v6.872H26.113V16.492Zm-5.5,0v6.872H20.615V16.492ZM42.6,28.861H17.867V26.113H42.6Zm15.118,9.62h2.749V10.995H48.1v2.749h9.62Zm0,43.979H13.743V71.466H2.749V13.743h9.62V10.995H0V73.407l11.8,11.8H60.471V74.215H57.723ZM10.995,80.52l-6.3-6.3h6.3ZM49.476,38.482A17.867,17.867,0,1,0,67.343,56.348,17.9,17.9,0,0,0,49.476,38.482Zm0,32.984A15.118,15.118,0,1,1,64.594,56.348,15.14,15.14,0,0,1,49.476,71.466Zm-2.749-21.99h5.5a2.757,2.757,0,0,1,2.749,2.749h2.749a5.514,5.514,0,0,0-5.5-5.5H50.851V43.979H48.1v2.749H46.728a5.5,5.5,0,0,0,0,10.995h5.5a2.749,2.749,0,1,1,0,5.5h-5.5a2.757,2.757,0,0,1-2.749-2.749H41.23a5.514,5.514,0,0,0,5.5,5.5H48.1v2.749h2.749V65.969h1.374a5.5,5.5,0,1,0,0-10.995h-5.5a2.749,2.749,0,0,1,0-5.5Zm34.049-4.123-2.955,4.123H68.717v2.749h7.147l-1.392,1.958,2.233,1.6,7.439-10.411L76.706,34.96l-2.233,1.6,1.392,1.958H63.22v2.749h14.6ZM85.209,63.22V60.471H73.94l1.392-1.958-2.233-1.6L65.659,67.343,73.1,77.754l2.233-1.6L73.94,74.2h11.27V71.449H71.981l-2.938-4.123L71.981,63.2H85.209Zm-54.974,0V60.471H23.089l1.392-1.958-2.233-1.6L14.809,67.343l7.439,10.411,2.233-1.6L23.089,74.2H37.107V71.449H21.131l-2.938-4.123L21.131,63.2h9.105Zm-6.614-9.036,2.233,1.6,7.439-10.411L25.855,34.96l-2.233,1.6,1.392,1.958H13.743v2.749H26.972l2.938,4.123-2.938,4.089H13.743v2.749h11.27Z" transform="translate(-1385 5490.791)"/></svg>