<svg xmlns="http://www.w3.org/2000/svg" xmlns:xlink="http://www.w3.org/1999/xlink" viewBox="823 5670.58 60.551 84.32"><defs><style>.a{fill:url(#a);}</style><linearGradient id="a" x1="0.97" y1="0.077" x2="0.03" y2="0.985" gradientUnits="objectBoundingBox"><stop offset="0" stop-color="#7745ff"/><stop offset="1" stop-color="#5253fb"/></linearGradient></defs><path class="a" d="M55.379,5.371H43.206a3.866,3.866,0,0,0-3.673-2.636H35.5a6.458,6.458,0,0,0-10.41,0H21.051a3.866,3.866,0,0,0-3.673,2.636H5.189A5.2,5.2,0,0,0,0,10.56V79.215A5.213,5.213,0,0,0,5.189,84.42H55.362a5.2,5.2,0,0,0,5.189-5.189V10.56A5.164,5.164,0,0,0,55.379,5.371ZM21.035,5.19h4.695A1.244,1.244,0,0,0,26.8,4.58a3.994,3.994,0,0,1,6.951,0,1.224,1.224,0,0,0,1.071.609h4.711a1.4,1.4,0,0,1,1.4,1.4v4.052h-21.3V6.606h0A1.413,1.413,0,0,1,21.035,5.19ZM58.1,79.232a2.721,2.721,0,0,1-2.718,2.718H5.189a2.721,2.721,0,0,1-2.718-2.718V10.56A2.721,2.721,0,0,1,5.189,7.842H17.164v4.052A1.244,1.244,0,0,0,18.4,13.129H42.168A1.244,1.244,0,0,0,43.4,11.894V7.842H55.379A2.721,2.721,0,0,1,58.1,10.56ZM29.057,6.606a1.234,1.234,0,0,1,1.235-1.235h.016a1.236,1.236,0,1,1-1.252,1.235ZM55.28,11.877V75.262A1.244,1.244,0,0,1,54.045,76.5H6.523a1.244,1.244,0,0,1-1.235-1.235V11.877a1.244,1.244,0,0,1,1.235-1.235h6.605a1.235,1.235,0,1,1,0,2.471H7.758V74.026H52.826V13.113h-5.37a1.235,1.235,0,0,1,0-2.471h6.605A1.23,1.23,0,0,1,55.28,11.877Zm-38.2,25.186a3.871,3.871,0,1,0,3.871,3.871A3.877,3.877,0,0,0,17.081,37.063Zm0,5.271a1.4,1.4,0,1,1,1.4-1.4A1.4,1.4,0,0,1,17.081,42.334Zm0,6.605a3.871,3.871,0,1,0,3.871,3.871A3.877,3.877,0,0,0,17.081,48.94Zm0,5.288a1.4,1.4,0,1,1,1.4-1.4A1.4,1.4,0,0,1,17.081,54.227Zm0,6.589a3.871,3.871,0,1,0,3.871,3.871A3.877,3.877,0,0,0,17.081,60.816Zm0,5.288a1.4,1.4,0,1,1,1.4-1.4A1.4,1.4,0,0,1,17.081,66.1Zm6.688-27.8A1.244,1.244,0,0,1,25,37.063H36.881a1.235,1.235,0,0,1,0,2.471H25A1.234,1.234,0,0,1,23.769,38.3ZM47.357,43.57a1.244,1.244,0,0,1-1.235,1.235H25a1.235,1.235,0,1,1,0-2.471H46.122A1.234,1.234,0,0,1,47.357,43.57ZM23.769,50.175A1.244,1.244,0,0,1,25,48.94H36.881a1.235,1.235,0,1,1,0,2.471H25A1.234,1.234,0,0,1,23.769,50.175Zm23.588,5.288A1.244,1.244,0,0,1,46.122,56.7H25a1.235,1.235,0,1,1,0-2.471H46.122A1.223,1.223,0,0,1,47.357,55.462ZM23.769,62.051A1.244,1.244,0,0,1,25,60.816H36.881a1.235,1.235,0,0,1,0,2.471H25A1.223,1.223,0,0,1,23.769,62.051Zm0,5.288A1.244,1.244,0,0,1,25,66.1H46.122a1.235,1.235,0,1,1,0,2.471H25A1.234,1.234,0,0,1,23.769,67.339Zm0-48.856A1.244,1.244,0,0,1,25,17.247H46.122a1.235,1.235,0,0,1,0,2.471H25A1.223,1.223,0,0,1,23.769,18.483ZM47.357,30.376a1.244,1.244,0,0,1-1.235,1.235H14.446a1.235,1.235,0,0,1,0-2.471H46.122A1.223,1.223,0,0,1,47.357,30.376ZM23.769,23.77A1.244,1.244,0,0,1,25,22.535h3.953a1.235,1.235,0,0,1,0,2.471H25A1.234,1.234,0,0,1,23.769,23.77Zm10.476,1.235a1.235,1.235,0,1,1,0-2.471H38.2a1.235,1.235,0,1,1,0,2.471ZM13.211,18.483V23.77a1.244,1.244,0,0,0,1.235,1.235h5.288a1.244,1.244,0,0,0,1.235-1.235V18.483a1.244,1.244,0,0,0-1.235-1.235H14.446A1.234,1.234,0,0,0,13.211,18.483Zm2.471,1.235H18.5v2.817H15.681Z" transform="translate(823 5670.479)"/></svg>