<svg xmlns="http://www.w3.org/2000/svg" xmlns:xlink="http://www.w3.org/1999/xlink" viewBox="-2995 5499 74.97 75"><defs><style>.a{fill:url(#a);}</style><linearGradient id="a" x1="0.143" y1="1.076" x2="0.791" y2="-0.047" gradientUnits="objectBoundingBox"><stop offset="0" stop-color="#5253fb"/><stop offset="1" stop-color="#7745ff"/></linearGradient></defs><path class="a" d="M8.75,65A8.756,8.756,0,0,0,0,73.75,1.254,1.254,0,0,0,1.25,75h15a1.254,1.254,0,0,0,1.25-1.25A8.756,8.756,0,0,0,8.75,65ZM2.625,72.5A6.278,6.278,0,0,1,7.5,67.641V70H10V67.641A6.278,6.278,0,0,1,14.875,72.5ZM73.75,53.75H71.563c-.062-.172-.141-.344-.219-.516l1.547-1.547a1.254,1.254,0,0,0,0-1.766l-5.3-5.3a1.21,1.21,0,0,0-.937-.359A6.217,6.217,0,0,0,70,38.766V6.25A6.248,6.248,0,0,0,63.75,0H6.25A6.248,6.248,0,0,0,0,6.25v32.5A6.248,6.248,0,0,0,6.25,45H22.563l-4.719,8.75H15.625a4.375,4.375,0,0,0,0,8.75H42.5a1.254,1.254,0,0,0,1.25,1.25h2.188c.063.172.141.344.219.516l-1.547,1.547a1.254,1.254,0,0,0,0,1.766l5.3,5.3a1.254,1.254,0,0,0,1.766,0l1.547-1.547c.172.078.344.156.516.219v2.188a1.254,1.254,0,0,0,1.25,1.25h7.5a1.254,1.254,0,0,0,1.25-1.25V71.547c.172-.062.344-.141.516-.219L65.8,72.875a1.254,1.254,0,0,0,1.766,0l5.3-5.3a1.254,1.254,0,0,0,0-1.766l-1.547-1.547c.078-.172.156-.344.219-.516h2.188a1.254,1.254,0,0,0,1.25-1.25V55A1.208,1.208,0,0,0,73.75,53.75ZM63.75,45a6.1,6.1,0,0,0,2.063-.375l-1.531,1.531c-.172-.078-.344-.156-.516-.219V45ZM6.25,2.5h57.5A3.761,3.761,0,0,1,67.5,6.25V32.5H2.5V6.25A3.761,3.761,0,0,1,6.25,2.5ZM2.5,38.75V35h65v3.75a3.761,3.761,0,0,1-3.75,3.75H6.25A3.761,3.761,0,0,1,2.5,38.75Zm45.938,7.328L47.7,45h1.813ZM53.75,45v.938c-.172.063-.344.141-.516.219L52.078,45ZM15.625,60a1.875,1.875,0,0,1,0-3.75H42.5V60Zm5.063-6.25L25.406,45H44.688l1.953,2.875-2.031,2.031a1.254,1.254,0,0,0,0,1.766l1.547,1.547c-.078.172-.156.344-.219.516H43.75l-23.062.016ZM72.5,61.25H70.672a1.243,1.243,0,0,0-1.187.875,11.376,11.376,0,0,1-.766,1.828,1.282,1.282,0,0,0,.219,1.469l1.3,1.3L66.7,70.25l-1.3-1.3a1.257,1.257,0,0,0-1.469-.219,11.374,11.374,0,0,1-1.828.766,1.257,1.257,0,0,0-.875,1.188V72.5h-5V70.672a1.243,1.243,0,0,0-.875-1.187,11.376,11.376,0,0,1-1.828-.766,1.282,1.282,0,0,0-1.469.219l-1.3,1.3L47.234,66.7l1.3-1.3a1.233,1.233,0,0,0,.219-1.469,11.374,11.374,0,0,1-.766-1.828,1.257,1.257,0,0,0-1.187-.875H45v-5h1.828a1.243,1.243,0,0,0,1.188-.875,11.375,11.375,0,0,1,.766-1.828,1.282,1.282,0,0,0-.219-1.469l-1.3-1.3L50.8,47.234l1.3,1.3a1.233,1.233,0,0,0,1.469.219,11.374,11.374,0,0,1,1.828-.766,1.257,1.257,0,0,0,.875-1.187V45h5v1.828a1.243,1.243,0,0,0,.875,1.188,11.375,11.375,0,0,1,1.828.766,1.282,1.282,0,0,0,1.469-.219l1.3-1.3L70.266,50.8l-1.3,1.3a1.233,1.233,0,0,0-.219,1.469,11.374,11.374,0,0,1,.766,1.828,1.257,1.257,0,0,0,1.188.875h1.8Zm-13.75-10a7.5,7.5,0,1,0,7.5,7.5A7.5,7.5,0,0,0,58.75,51.25Zm0,12.5a5,5,0,1,1,5-5A5.015,5.015,0,0,1,58.75,63.75ZM14.109,18.391a1.254,1.254,0,0,1,0-1.766l8.75-8.75,1.766,1.766L16.766,17.5l7.859,7.859-1.766,1.766Zm27.5,6.969L49.469,17.5,41.609,9.641l1.766-1.766,8.75,8.75a1.254,1.254,0,0,1,0,1.766l-8.75,8.75ZM26.375,26.938l11.25-22.5,2.234,1.125-11.25,22.5ZM48.75,25h2.5v2.5h-2.5Zm5,0h2.5v2.5h-2.5Zm5,0h2.5v2.5h-2.5Z" transform="translate(-2995 5499)"/></svg>