<svg xmlns="http://www.w3.org/2000/svg" xmlns:xlink="http://www.w3.org/1999/xlink" viewBox="698.192 2013.033 44.957 32.968">
  <defs>
    <style>
      .cls-1 {
        fill: url(#linear-gradient);
      }
    </style>
    <linearGradient id="linear-gradient" x1="-0.099" y1="1.116" x2="1.068" y2="-0.091" gradientUnits="objectBoundingBox">
      <stop offset="0" stop-color="#5253fb"/>
      <stop offset="1" stop-color="#7745ff"/>
    </linearGradient>
  </defs>
  <path id="Union_2" data-name="Union 2" class="cls-1" d="M.749,32.968A.731.731,0,0,1,0,32.219V.749A.731.731,0,0,1,.749,0H44.208a.732.732,0,0,1,.749.749V32.219a.732.732,0,0,1-.749.749Zm42.709-1.5v-5.2a5.982,5.982,0,0,0-5.2,5.2Zm-6.707,0a7.434,7.434,0,0,1,6.707-6.707V17.2a7.435,7.435,0,0,1-6.707-6.707H8.206A7.435,7.435,0,0,1,1.5,17.2v7.565A7.434,7.434,0,0,1,8.206,31.47ZM1.5,31.47H6.7a5.984,5.984,0,0,0-5.2-5.2ZM43.458,15.688v-5.2h-5.2A5.981,5.981,0,0,0,43.458,15.688Zm-41.959,0a5.983,5.983,0,0,0,5.2-5.2H1.5Zm41.959-6.7v-1.5H1.5v1.5Zm0-3V4.5H1.5v1.5Zm0-3V1.5H1.5V3ZM14.237,20.98a8.242,8.242,0,1,1,8.242,8.242A8.315,8.315,0,0,1,14.237,20.98Zm1.5,0a6.744,6.744,0,1,0,6.744-6.744A6.715,6.715,0,0,0,15.735,20.98Zm18.733.749v-1.5h5.245v1.5Zm-29.223,0v-1.5H10.49v1.5Z" transform="translate(698.192 2013.033)"/>
</svg>
