<svg id="Group_450" data-name="Group 450" xmlns="http://www.w3.org/2000/svg" viewBox="418.573 1833.126 725.855 124.748">
  <defs>
    <style>
      .cls-1 {
        fill: none;
        stroke: #f7f9ff;
        stroke-width: 2px;
      }
    </style>
  </defs>
  <line id="Line_69" data-name="Line 69" class="cls-1" x1="50" y2="124" transform="translate(419.5 1833.5)"/>
  <line id="Line_84" data-name="Line 84" class="cls-1" x1="50" y2="124" transform="translate(619.5 1833.5)"/>
  <line id="Line_73" data-name="Line 73" class="cls-1" x1="50" y2="124" transform="translate(519.5 1833.5)"/>
  <line id="Line_80" data-name="Line 80" class="cls-1" x1="50" y2="124" transform="translate(719.5 1833.5)"/>
  <line id="Line_71" data-name="Line 71" class="cls-1" x1="50" y2="124" transform="translate(469.5 1833.5)"/>
  <line id="Line_82" data-name="Line 82" class="cls-1" x1="50" y2="124" transform="translate(669.5 1833.5)"/>
  <line id="Line_75" data-name="Line 75" class="cls-1" x1="50" y2="124" transform="translate(569.5 1833.5)"/>
  <line id="Line_70" data-name="Line 70" class="cls-1" x1="50" y2="124" transform="translate(444.5 1833.5)"/>
  <line id="Line_83" data-name="Line 83" class="cls-1" x1="50" y2="124" transform="translate(644.5 1833.5)"/>
  <line id="Line_74" data-name="Line 74" class="cls-1" x1="50" y2="124" transform="translate(544.5 1833.5)"/>
  <line id="Line_79" data-name="Line 79" class="cls-1" x1="50" y2="124" transform="translate(744.5 1833.5)"/>
  <line id="Line_72" data-name="Line 72" class="cls-1" x1="50" y2="124" transform="translate(494.5 1833.5)"/>
  <line id="Line_81" data-name="Line 81" class="cls-1" x1="50" y2="124" transform="translate(694.5 1833.5)"/>
  <line id="Line_76" data-name="Line 76" class="cls-1" x1="50" y2="124" transform="translate(594.5 1833.5)"/>
  <line id="Line_69-2" data-name="Line 69" class="cls-1" x1="50" y2="124" transform="translate(768.5 1833.5)"/>
  <line id="Line_84-2" data-name="Line 84" class="cls-1" x1="50" y2="124" transform="translate(968.5 1833.5)"/>
  <line id="Line_73-2" data-name="Line 73" class="cls-1" x1="50" y2="124" transform="translate(868.5 1833.5)"/>
  <line id="Line_80-2" data-name="Line 80" class="cls-1" x1="50" y2="124" transform="translate(1068.5 1833.5)"/>
  <line id="Line_71-2" data-name="Line 71" class="cls-1" x1="50" y2="124" transform="translate(818.5 1833.5)"/>
  <line id="Line_82-2" data-name="Line 82" class="cls-1" x1="50" y2="124" transform="translate(1018.5 1833.5)"/>
  <line id="Line_75-2" data-name="Line 75" class="cls-1" x1="50" y2="124" transform="translate(918.5 1833.5)"/>
  <line id="Line_70-2" data-name="Line 70" class="cls-1" x1="50" y2="124" transform="translate(793.5 1833.5)"/>
  <line id="Line_83-2" data-name="Line 83" class="cls-1" x1="50" y2="124" transform="translate(993.5 1833.5)"/>
  <line id="Line_74-2" data-name="Line 74" class="cls-1" x1="50" y2="124" transform="translate(893.5 1833.5)"/>
  <line id="Line_79-2" data-name="Line 79" class="cls-1" x1="50" y2="124" transform="translate(1093.5 1833.5)"/>
  <line id="Line_72-2" data-name="Line 72" class="cls-1" x1="50" y2="124" transform="translate(843.5 1833.5)"/>
  <line id="Line_81-2" data-name="Line 81" class="cls-1" x1="50" y2="124" transform="translate(1043.5 1833.5)"/>
  <line id="Line_76-2" data-name="Line 76" class="cls-1" x1="50" y2="124" transform="translate(943.5 1833.5)"/>
</svg>
