<svg xmlns="http://www.w3.org/2000/svg" xmlns:xlink="http://www.w3.org/1999/xlink" viewBox="396.554 8694.912 64.013 63.165"><defs><style>.a{fill:url(#a);}</style><linearGradient id="a" x1="0.053" y1="0.756" x2="0.871" y2="0.176" gradientUnits="objectBoundingBox"><stop offset="0" stop-color="#5253fb"/><stop offset="1" stop-color="#7745ff"/></linearGradient></defs><path class="a" d="M224.008-8108.291H209.275a5.764,5.764,0,0,1-5.758-5.758,5.537,5.537,0,0,1,2.2-4.487,5.662,5.662,0,0,1-2.2-4.488,5.655,5.655,0,0,1,2.2-4.487,5.662,5.662,0,0,1-2.2-4.487,5.54,5.54,0,0,1,2.2-4.49,5.655,5.655,0,0,1-2.2-4.487,5.764,5.764,0,0,1,5.758-5.758h3.3a5.378,5.378,0,0,1-1.016-3.217,5.381,5.381,0,0,1,1.016-3.217h-9.991a5.764,5.764,0,0,1-5.758-5.758,5.819,5.819,0,0,1,5.758-5.758h30.65a5.763,5.763,0,0,1,5.758,5.758,5.393,5.393,0,0,1-1.014,3.217h9.991a5.762,5.762,0,0,1,5.756,5.758,5.818,5.818,0,0,1-5.756,5.758h-3.219a6.382,6.382,0,0,1,.594,1.017,21.057,21.057,0,0,1,15.5,20.407,21.266,21.266,0,0,1-21.253,21.25A21.415,21.415,0,0,1,224.008-8108.291Zm-3.217-14.479a18.755,18.755,0,0,0,18.8,18.8,18.808,18.808,0,0,0,18.8-18.8,18.809,18.809,0,0,0-18.8-18.8A18.756,18.756,0,0,0,220.791-8122.769Zm-14.733,8.721a3.215,3.215,0,0,0,3.217,3.217h12.644a19.809,19.809,0,0,1-2.907-6.436h-9.737A3.216,3.216,0,0,0,206.058-8114.048Zm-.084-8.975a3.345,3.345,0,0,0,3.3,3.217H218.5a17.645,17.645,0,0,1-.254-2.963,23.276,23.276,0,0,1,.254-3.473h-9.313A3.216,3.216,0,0,0,205.974-8123.023Zm.084-9.061a3.289,3.289,0,0,0,3.217,3.3h9.907a20.433,20.433,0,0,1,3.217-6.52H209.275A3.215,3.215,0,0,0,206.058-8132.084Zm0-9.059a3.289,3.289,0,0,0,3.217,3.3h15.241a21.116,21.116,0,0,1,15.073-6.266,12.232,12.232,0,0,1,1.777.086,3.956,3.956,0,0,0-1.438-.34H209.275A3.216,3.216,0,0,0,206.058-8141.143Zm8.045-8.891a3.162,3.162,0,0,0,3.217,3.217h30.736a3.215,3.215,0,0,0,3.217-3.217,3.215,3.215,0,0,0-3.217-3.217H217.32A3.215,3.215,0,0,0,214.1-8150.034Zm-14.819-9.061a3.218,3.218,0,0,0,3.217,3.219h30.652a3.216,3.216,0,0,0,3.217-3.219,3.216,3.216,0,0,0-3.217-3.217H202.5A3.217,3.217,0,0,0,199.284-8159.1Zm40.615,49.87a2.368,2.368,0,0,0-.123-.213q-4.051-5.625-8.106-11.255c-.025-.035-.045-.072-.107-.162a1.858,1.858,0,0,1,.215.1q3.873,2.309,7.754,4.627a.406.406,0,0,0,.473,0q4.02-2.323,8.045-4.631a.65.65,0,0,1,.266-.1c-.061.09-.129.176-.191.269q-4.048,5.624-8.1,11.255c-.025.035-.045.072-.066.106Zm-.305-8.284q-3.768-2.253-7.536-4.5c-.035-.021-.072-.047-.141-.092,2.664-4.391,5.328-8.785,8.018-13.217,2.68,4.412,5.34,8.8,8.01,13.2-.076.051-.137.092-.2.131q-3.891,2.241-7.784,4.479a.372.372,0,0,1-.184.06A.347.347,0,0,1,239.593-8117.509Z" transform="translate(199.725 16859.595)"/></svg>