<svg xmlns="http://www.w3.org/2000/svg" xmlns:xlink="http://www.w3.org/1999/xlink" viewBox="639 1053.335 161.665 161.665"><defs><style>.a{fill:url(#a);}.b{fill:#fff;}.c{filter:url(#b);}</style><linearGradient id="a" x1="0.349" y1="1.131" x2="1.099" y2="-0.266" gradientUnits="objectBoundingBox"><stop offset="0" stop-color="#5253fb"/><stop offset="1" stop-color="#7745ff"/></linearGradient><filter id="b" x="639" y="1053.335" width="161.665" height="161.665" filterUnits="userSpaceOnUse"><feOffset dy="10" input="SourceAlpha"/><feGaussianBlur stdDeviation="10" result="c"/><feFlood flood-color="#5253fb" flood-opacity="0.839"/><feComposite operator="in" in2="c"/><feComposite in="SourceGraphic"/></filter></defs><g transform="translate(13 27.025)"><g class="c" transform="matrix(1, 0, 0, 1, -13, -27.02)"><circle class="a" cx="50.832" cy="50.832" r="50.832" transform="translate(669 1073.34)"/></g><path class="b" d="M960,1487.006l30.088,18.58L960,1524.166Z" transform="translate(-262.245 -408.232)"/></g><g transform="translate(-14 5)"><g transform="translate(665 1134.564)"><path class="b" d="M.882,9.875.705,8.64,6.877,6V5.819L.176,4.761,0,3.35,7.935,0l.176,1.411L1.763,3.879v.176l6.877.882.176,1.234L2.469,8.993v.176l6.877.705.176,1.411Z"/><path class="b" d="M3.069,8.368c1.411-.529,2.645.176,3.35,2.116L7.3,12.776l.705-.176a1.683,1.683,0,0,0,.882-2.469C8.535,9.073,8.006,8.544,7.3,8.72L6.948,7.31c1.234-.176,2.469.705,3.174,2.469.705,1.94,0,3.35-1.587,3.879L3.069,15.6l-.353-1.234,1.234-.353v-.176a2.648,2.648,0,0,1-2.116-1.94C1.129,10.307,1.658,8.9,3.069,8.368ZM5.538,13.3l.705-.176-.882-2.116C5.009,9.778,4.3,9.426,3.6,9.6a1.489,1.489,0,0,0-.705,2.116A2.16,2.16,0,0,0,5.538,13.3Z" transform="translate(1.163 5.563)"/><path class="b" d="M13.025,12.511l-1.763.882.882,1.763-1.058.529L10.2,13.921,5.971,16.214c-.882.529-1.058,1.058-.705,1.763.176.176.176.353.353.529l-1.058.529a.916.916,0,0,1-.353-.705c-.882-1.587-.529-2.469.882-3.174L9.5,12.863l-.705-1.234L9.851,11.1l.705,1.234,1.763-.882Z" transform="translate(2.845 8.473)"/><path class="b" d="M12.536,19.818a2.106,2.106,0,0,0,0-2.645c-.882-1.234-2.469-1.234-3.879-.176C7.07,18.055,6.717,19.642,7.6,20.876a2.1,2.1,0,0,0,2.469.882l.705,1.058c-1.411.705-3,.353-4.232-1.234-1.411-1.94-.882-4.056,1.234-5.643s4.408-1.234,5.643.529a3.229,3.229,0,0,1-.176,4.408Z" transform="translate(4.392 11.393)"/><path class="b" d="M16.635,16.9l.882.882-3,3.35H14.7a2.912,2.912,0,0,1,3,.705c1.411,1.234,1.411,2.821,0,4.232l-3.7,3.879-1.234-.705,3.527-3.7c1.058-1.058,1.058-2.116,0-3a2.291,2.291,0,0,0-3.35,0l-3.35,3.527L8.7,25.188Z" transform="translate(6.641 12.9)"/><path class="b" d="M19.369,23.529l-1.234,7.23h.176l5.29-4.937,1.234.705-6.7,6L16.9,31.817,18.134,23Z" transform="translate(12.9 17.556)"/><path class="b" d="M23.421,26.7l1.234.529L21.834,34.99,20.6,34.461Zm.705-2.645a.95.95,0,1,1,.529,1.234A1.076,1.076,0,0,1,24.127,24.058Z" transform="translate(15.724 17.909)"/><path class="b" d="M23.465,30.9c.529-2.469,2.292-3.879,4.408-3.35a3.209,3.209,0,0,1,2.292,1.94h.176L31.4,24.9l1.234.353L29.989,36.714l-1.234-.353.353-1.234h-.176a3.446,3.446,0,0,1-3,.882C23.818,35.48,22.936,33.364,23.465,30.9Zm1.411.353c-.353,1.94.176,3.174,1.763,3.527,1.411.353,2.645-.529,3.174-2.469.353-1.94-.176-3.174-1.763-3.527S25.228,29.308,24.876,31.248Z" transform="translate(17.797 19.006)"/><path class="b" d="M36.436,33.624a3.294,3.294,0,0,1-3.7,2.116c-2.292-.176-3.7-1.763-3.527-4.408S30.793,27.1,33.086,27.1c2.292.176,3.527,1.763,3.527,4.408v.529l-6-.353h0c0,1.587.882,2.821,2.292,2.821a2.132,2.132,0,0,0,2.116-1.058Zm-5.819-3L35.2,30.8a2.242,2.242,0,0,0-2.116-2.469A2.37,2.37,0,0,0,30.617,30.627Z" transform="translate(22.282 20.686)"/><path class="b" d="M34.626,31.684c-.353-2.645.882-4.408,3.174-4.761s4.056,1.058,4.408,3.7-.882,4.408-3.174,4.761S35.155,34.329,34.626,31.684Zm6.348-.882c-.353-1.94-1.411-3-2.821-2.821-1.587.176-2.292,1.411-1.94,3.527.353,1.94,1.411,3,2.821,2.821C40.445,33.976,41.15,32.742,40.974,30.8Z" transform="translate(26.385 20.51)"/></g></g></svg>