<svg xmlns="http://www.w3.org/2000/svg" xmlns:xlink="http://www.w3.org/1999/xlink" viewBox="403 2703.325 77.781 59.075"><defs><style>.a{fill:url(#a);}</style><linearGradient id="a" y1="1.031" x2="1.025" y2="0.032" gradientUnits="objectBoundingBox"><stop offset="0" stop-color="#5253fb"/><stop offset="1" stop-color="#7745ff"/></linearGradient></defs><path class="a" d="M7.745,23.418l-.219-.073v-.219l.146-1.315.073-.511.438.219c.073,0,.146.073.219.073s.146.073.219.073c.146.073.292.073.438.146a1.039,1.039,0,0,0,.438.146,3.165,3.165,0,0,0,.365.073h.95a3.165,3.165,0,0,0,.365-.073h0c.073-.073.219-.073.292-.146h0a1.009,1.009,0,0,0,.292-.219h0l.219-.219h0a.554.554,0,0,0,.146-.292v-.365h0a3.165,3.165,0,0,0-.073-.365h0c-.073-.146-.073-.219-.146-.292l-.219-.219c-.073,0-.146-.073-.219-.146s-.219-.073-.292-.146a.554.554,0,0,0-.292-.146h0a5.034,5.034,0,0,0-.585-.219h0a4.339,4.339,0,0,0-.585-.292,1.831,1.831,0,0,1-.511-.292A1.311,1.311,0,0,1,8.7,18.23h0c-.146-.146-.219-.292-.365-.438h0c-.073-.146-.219-.365-.292-.511h0a1.91,1.91,0,0,1-.219-.585,1.609,1.609,0,0,1-.073-.585h0a2.486,2.486,0,0,1,.073-.731l.219-.658a1.469,1.469,0,0,1,.292-.585,3.178,3.178,0,0,1,.438-.511h0a1.311,1.311,0,0,1,.511-.365h0a2.6,2.6,0,0,1,.658-.292h.073V11.508h1.754V12.9h.073c.146,0,.219.073.365.073a3.165,3.165,0,0,1,.365.073c.146,0,.219.073.292.073h0c.073,0,.219.073.292.073l.292.073v.292L13.3,14.723l-.073.438-.365-.146c-.073,0-.146-.073-.292-.073h0c-.073,0-.219-.073-.292-.073h0a3.164,3.164,0,0,0-.365-.073.659.659,0,0,0-.365-.073h-.438a.659.659,0,0,0-.365.073h0a.558.558,0,0,0-.365.146l-.219.219c-.073.073-.073.219-.146.292h0c0,.073-.073.219-.073.292v.365a.439.439,0,0,0,.073.292.38.38,0,0,0,.146.292h0l.219.219h0c.073.073.219.073.292.146h0c.073.073.219.073.292.146a.554.554,0,0,0,.292.146h0a5.034,5.034,0,0,0,.585.219c.219.073.365.219.585.292a1.831,1.831,0,0,1,.511.292,1.311,1.311,0,0,1,.511.365c.146.146.219.292.365.438h0a1.831,1.831,0,0,1,.292.511,1.91,1.91,0,0,1,.219.585h0a1.609,1.609,0,0,1,.073.585h0a2.253,2.253,0,0,1-.073.731h0l-.219.658a4.079,4.079,0,0,1-.365.585,3.178,3.178,0,0,1-.438.511h0a2.563,2.563,0,0,1-.585.365,2.6,2.6,0,0,1-.658.292h-.073v1.534H10.229V23.857h-.146a1.609,1.609,0,0,1-.585-.073c-.219-.073-.438-.073-.585-.146h0a1.355,1.355,0,0,1-.511-.146A.977.977,0,0,0,7.745,23.418ZM77.452,57.906a1.154,1.154,0,0,1-1.169,1.169H1.169a1.169,1.169,0,0,1,0-2.338h5.48V39.712a1.154,1.154,0,0,1,1.169-1.169H18.632A1.154,1.154,0,0,1,19.8,39.712V56.737h3.946V32.844a1.154,1.154,0,0,1,1.169-1.169H35.657a1.154,1.154,0,0,1,1.169,1.169V56.737h3.946V34.6a1.154,1.154,0,0,1,1.169-1.169H52.755A1.154,1.154,0,0,1,53.924,34.6v22.14H57.87V22.907a1.154,1.154,0,0,1,1.169-1.169H69.78a1.154,1.154,0,0,1,1.169,1.169v33.83h5.407A1.055,1.055,0,0,1,77.452,57.906ZM60.208,56.737h8.4V24.076h-8.4Zm-17.1,0h8.4V35.767h-8.4Zm-17.025,0h8.4V34.013h-8.4Zm-17.1,0h8.4V40.881h-8.4V56.737ZM74.109,0,72.447,1.443l2.229.146L45.649,26.98,29.592,18.23,9.882,33.5a1,1,0,0,0,.621,1.79.992.992,0,0,0,.621-.219L29.793,20.605,45.96,29.392,76.027,3.105l-.146,2.229,1.662-1.443L77.781.237Z" transform="translate(403 2703.325)"/></svg>