<svg xmlns="http://www.w3.org/2000/svg" viewBox="682 2514.061 76.54 75.164"><defs><style>.a{fill:#fff;}</style></defs><path class="a" d="M75.912,21.511,38.9.148a1.228,1.228,0,0,0-1.255,0L.628,21.511A1.256,1.256,0,0,0,0,22.6V52.5a1.256,1.256,0,0,0,.628,1.088L37.642,74.971a1.261,1.261,0,0,0,1.255,0L75.912,53.608a1.231,1.231,0,0,0,.628-1.088V22.6a1.3,1.3,0,0,0-.628-1.088ZM38.27,42.518,22.263,33.291l34.5-19.92L72.752,22.6Zm0-39.839,15.986,9.227-34.5,19.94L3.766,22.6ZM2.511,24.775l34.5,19.92V71.707l-34.5-19.92ZM74.029,51.788l-34.5,19.92V44.695l34.5-19.92Zm0,0M28.31,54.152,20.924,37.036a1.314,1.314,0,0,0-.962-.753,1.222,1.222,0,0,0-1.13.418L11.424,45.28a1.247,1.247,0,0,0-.293,1.025,1.271,1.271,0,0,0,.607.879l3.076,1.779v7.826a1.256,1.256,0,0,0,.628,1.088l7.407,4.268a1.261,1.261,0,0,0,1.255,0,1.256,1.256,0,0,0,.628-1.088V54.675l1.82,1.046a1.263,1.263,0,0,0,1.465-.146,1.206,1.206,0,0,0,.293-1.423Zm-4.227-2.72a1.228,1.228,0,0,0-1.255,0A1.256,1.256,0,0,0,22.2,52.52V58.9l-4.9-2.825V48.252a1.256,1.256,0,0,0-.628-1.088l-2.385-1.381,5.105-5.9,5.105,11.8Zm0,0M48.543,55.6a1.263,1.263,0,0,0,1.465.146l1.82-1.046v6.382a1.256,1.256,0,0,0,.628,1.088,1.261,1.261,0,0,0,1.255,0L61.119,57.9a1.256,1.256,0,0,0,.628-1.088V48.984l3.076-1.779a1.271,1.271,0,0,0,.607-.879,1.209,1.209,0,0,0-.293-1.025l-7.407-8.579a1.261,1.261,0,0,0-2.113.335L48.209,54.173a1.233,1.233,0,0,0,.335,1.423Zm8.6-15.714,5.105,5.9-2.385,1.381a1.256,1.256,0,0,0-.628,1.088v7.826l-4.9,2.825V52.52a1.256,1.256,0,0,0-.628-1.088,1.261,1.261,0,0,0-1.255,0l-.418.251Zm0,0" transform="translate(682 2514.086)"/></svg>