<svg xmlns="http://www.w3.org/2000/svg" viewBox="484.57 2580.136 550.857 290.413"><defs><style>.a{fill:none;stroke:#f7f9ff;stroke-width:2px;}</style></defs><g transform="translate(66 842)"><path class="a" d="M53.091-9.866,0,124" transform="translate(419.5 1833.5)"/><line class="a" x1="103" y2="254" transform="translate(594.5 1762.5)"/><path class="a" d="M85,0-12.064,248.541" transform="translate(519.5 1738.5)"/><path class="a" d="M67,0-25.042,232.036" transform="translate(719.5 1790.5)"/><path class="a" d="M66.777-51.078-6.2,139.711" transform="translate(469.5 1833.5)"/><path class="a" d="M79,0-24.245,248.492" transform="translate(669.5 1768.5)"/><path class="a" d="M78,0-15.065,231.151" transform="translate(569.5 1762.5)"/><path class="a" d="M60.308-30.36,0,124" transform="translate(444.5 1833.5)"/><line class="a" x1="103" y2="245" transform="translate(622.5 1762.5)"/><path class="a" d="M77.529-72.676-19.592,172.387" transform="translate(544.5 1833.5)"/><path class="a" d="M61,0-22.018,211.96" transform="translate(744.5 1802.5)"/><path class="a" d="M71,0-16.57,228.9" transform="translate(494.5 1768.5)"/><path class="a" d="M73.573-53.491-28.165,194.669" transform="translate(694.5 1833.5)"/><line class="a" x1="96" y2="239" transform="translate(573.5 1768.5)"/><line class="a" x1="71" y2="189" transform="translate(753.5 1814.5)"/><line class="a" x1="50" y2="124" transform="translate(868.5 1833.5)"/><path class="a" d="M46,0-4.176,136.676" transform="translate(818.5 1839.5)"/><line class="a" x1="50" y2="124" transform="translate(918.5 1833.5)"/><path class="a" d="M52.668-5.682-10.2,158.075" transform="translate(793.5 1833.5)"/><line class="a" x1="50" y2="124" transform="translate(843.5 1833.5)"/></g></svg>