<svg xmlns="http://www.w3.org/2000/svg" xmlns:xlink="http://www.w3.org/1999/xlink" viewBox="956 2692.483 75.688 75.717"><defs><style>.a{fill:url(#a);}</style><linearGradient id="a" y1="1" x2="1" y2="0.099" gradientUnits="objectBoundingBox"><stop offset="0" stop-color="#5253fb"/><stop offset="1" stop-color="#7745ff"/></linearGradient></defs><g transform="translate(956 2692.483)"><path class="a" d="M67.247,63.625,66,63.122a37.853,37.853,0,0,0,3.134-46.566.878.878,0,0,0-.192-.266,37.459,37.459,0,0,0-6.593-7.273A1.2,1.2,0,0,0,60.8,10.836a36.13,36.13,0,0,1,5.41,5.75,51.668,51.668,0,0,1-8.958,2.484,41.832,41.832,0,0,0-3.444-7.731A27.264,27.264,0,0,0,47.6,3.755,35.213,35.213,0,0,1,57.653,8.441a1.193,1.193,0,1,0,1.33-1.981,37.825,37.825,0,0,0-47.9,4.627A37.832,37.832,0,0,0,9.7,63.137l-1.227.488a6.789,6.789,0,0,0-4.3,6.593v4.287a1.192,1.192,0,0,0,1.2,1.2H22.958a.554.554,0,0,0,.163-.015.663.663,0,0,0,.163.015h4.864a1.2,1.2,0,1,0,0-2.395H24.48V69.139a5.851,5.851,0,0,1,3.592-5.706c.015,0,.03-.015.059-.015l5.824-2.277.044.044L37.09,64.2a1.163,1.163,0,0,0,.828.34h.015a1.141,1.141,0,0,0,.843-.37L41.746,61.1l5.81,2.336c.015.015.03.015.059.015a5.83,5.83,0,0,1,3.592,5.706v4.169H31.886a1.2,1.2,0,1,0,0,2.395H70.322a1.2,1.2,0,0,0,1.2-1.2V70.248A6.8,6.8,0,0,0,67.247,63.625ZM62.457,61.7v-.68a6.245,6.245,0,0,0,2.779-3.444,3.38,3.38,0,0,0,1.877-5.987V49.463a8.061,8.061,0,0,0-7.037-7.983q.067-1.22.089-2.439H73.293A35.2,35.2,0,0,1,63.64,62.176Zm-10.91-7.495a.962.962,0,0,1,.458-.828v1.67A.987.987,0,0,1,51.547,54.208Zm-12.92,1.818H37.253a5.085,5.085,0,0,1-5.085-5.085V46.714A15.06,15.06,0,0,0,40.593,43.4a6.529,6.529,0,0,0,3.1,3.045v4.494A5.082,5.082,0,0,1,38.627,56.027ZM28.6,49.123a1.539,1.539,0,0,1,1.168-1.493v2.986A1.54,1.54,0,0,1,28.6,49.123Zm1.582-12.477H17.931A58.328,58.328,0,0,1,20.09,21.775a108.816,108.816,0,0,0,16.571,1.39V33.453a9.83,9.83,0,0,0-6.342,3.208A.409.409,0,0,0,30.186,36.646Zm-14.4,25.175a6.261,6.261,0,0,0,.754.044h1.094a6.017,6.017,0,0,0,.739-.044v.665l-1.33,1.375-1.257-1.212v-.828Zm1.833-2.336H16.527A3.83,3.83,0,0,1,12.7,55.657V52.494a12.338,12.338,0,0,0,6.445-2.484,5.406,5.406,0,0,0,2.306,2.217v3.43A3.83,3.83,0,0,1,17.621,59.486ZM9.86,54.208a.962.962,0,0,1,.458-.828v1.67A.987.987,0,0,1,9.86,54.208Zm13.984-.8a.977.977,0,0,1,0,1.6Zm-.828-3.178a.133.133,0,0,0-.074-.015c-.015,0-.015,0-.03-.015-1.67-.384-2.217-2.6-2.217-2.617a1.189,1.189,0,0,0-.931-.9,1.212,1.212,0,0,0-1.212.473c-2.158,2.986-6.992,3.03-7.051,3.03h-.163a.111.111,0,0,0-.074.015c-.015,0-.03.015-.044.015s-.044.015-.059.015-.03.015-.044.015v-.783A5.672,5.672,0,0,1,16.778,43.8h.577a5.672,5.672,0,0,1,5.662,5.662v.769ZM2.41,36.646A35.2,35.2,0,0,1,8.086,18.6a54.836,54.836,0,0,0,9.638,2.764,59.823,59.823,0,0,0-2.188,15.3H2.41ZM45.664,43.2v1.463c-.015,0-.015-.015-.03-.015a.2.2,0,0,0-.059-.044c-.015-.015-.03-.015-.044-.03a.077.077,0,0,0-.059-.03c-.015-.015-.03-.015-.059-.03s-.03-.015-.044-.03-.044-.015-.059-.03-.03-.015-.044-.015a.133.133,0,0,0-.074-.015c-.015,0-.015,0-.03-.015-2.277-.517-2.986-3.474-3-3.5a1.189,1.189,0,0,0-.931-.9,1.212,1.212,0,0,0-1.212.473c-2.794,3.873-8.988,3.9-9.062,3.9h-.163a.111.111,0,0,0-.074.015c-.015,0-.03.015-.044.015s-.044.015-.059.015-.044.015-.059.015-.03.015-.059.015-.044.015-.059.03-.03.015-.044.015-.044.03-.059.044a.046.046,0,0,1-.03.015c-.015.015-.044.03-.059.044s-.03.015-.03.03l-.03.03V43.166a7.388,7.388,0,0,1,7.377-7.377h.71A7.435,7.435,0,0,1,45.664,43.2ZM36.646,2.454V20.785a107.033,107.033,0,0,1-15.832-1.3,38.88,38.88,0,0,1,3.134-6.963C27.422,6.49,31.886,2.971,36.646,2.454Zm9.461,45.191a1.534,1.534,0,0,1,0,2.957Zm-.577-11a9.769,9.769,0,0,0-6.49-3.193V23.179a108.491,108.491,0,0,0,16.571-1.39,58.115,58.115,0,0,1,2.158,14.857ZM58.466,43.8h.577A5.672,5.672,0,0,1,64.7,49.463v.769c-.03,0-.044-.015-.074-.015s-.015,0-.03-.015c-1.67-.384-2.217-2.6-2.217-2.617a1.189,1.189,0,0,0-.931-.9,1.212,1.212,0,0,0-1.212.473c-2.158,2.986-6.992,3.03-7.051,3.03h-.163a.111.111,0,0,0-.074.015c-.015,0-.03.015-.059.015s-.044.015-.059.015-.03.015-.044.015v-.783A5.694,5.694,0,0,1,58.466,43.8Zm7.066,9.609a.977.977,0,0,1,0,1.6ZM54.4,52.494a12.338,12.338,0,0,0,6.445-2.484,5.406,5.406,0,0,0,2.306,2.217v3.43a3.83,3.83,0,0,1-3.829,3.829H58.229A3.83,3.83,0,0,1,54.4,55.657V52.494Zm3.075,9.328a6.2,6.2,0,0,0,.739.044h1.094a6.017,6.017,0,0,0,.739-.044v.665l-1.33,1.375-1.257-1.212v-.828Zm10.141-43.24a35.474,35.474,0,0,1,5.662,18.065H60.151a60.267,60.267,0,0,0-2.188-15.285A53.719,53.719,0,0,0,67.616,18.582ZM51.74,12.521a39.95,39.95,0,0,1,3.134,6.963,107.07,107.07,0,0,1-15.847,1.3V2.454C43.8,2.971,48.266,6.49,51.74,12.521ZM28.058,3.77a27.632,27.632,0,0,0-6.194,7.569,42.805,42.805,0,0,0-3.43,7.731,52.825,52.825,0,0,1-8.944-2.484A35.61,35.61,0,0,1,28.058,3.77ZM2.41,39.041H15.537c.015.828.044,1.641.089,2.454a8.06,8.06,0,0,0-6.9,7.968v2.114a3.38,3.38,0,0,0,1.892,6,6.245,6.245,0,0,0,2.779,3.444v.68l-1.3.517A35.346,35.346,0,0,1,2.41,39.041ZM14.591,73.293H6.564V70.2a4.436,4.436,0,0,1,2.705-4.331c.015,0,.044-.015.059-.015L13.837,64.1l2.395,2.336a1.163,1.163,0,0,0,.828.34h.015a1.141,1.141,0,0,0,.843-.37l2.262-2.35,2.794,1.123a8.861,8.861,0,0,0-.872,3.962v4.169h-7.51Zm12.7-12.122a7.533,7.533,0,0,0-2.912,1.981L20.755,61.7v-.68a6.245,6.245,0,0,0,2.779-3.444,3.38,3.38,0,0,0,1.877-5.987V49.463a8.064,8.064,0,0,0-7.391-8.027c-.044-.8-.074-1.6-.089-2.41H28.738a9.773,9.773,0,0,0-.931,4.154v2.794a3.937,3.937,0,0,0,2.306,7.081,7.513,7.513,0,0,0,3.548,4.42v1.212Zm10.614.458-1.877-1.818V58.3a6.762,6.762,0,0,0,1.227.1h1.36a6.762,6.762,0,0,0,1.227-.1v1.212h0v.074Zm10.525-.443L42.249,58.7V57.475a7.513,7.513,0,0,0,3.548-4.42A3.926,3.926,0,0,0,48.059,46V43.21a9.723,9.723,0,0,0-.931-4.154H57.771c-.015.813-.044,1.611-.089,2.424a8.067,8.067,0,0,0-7.258,8.012v2.114a3.38,3.38,0,0,0,1.892,6A6.245,6.245,0,0,0,55.1,61.053v.68L51.355,63.2A7.311,7.311,0,0,0,48.428,61.186ZM69.154,73.293H53.617V69.124a8.8,8.8,0,0,0-.872-3.947l2.794-1.094,2.395,2.336a1.163,1.163,0,0,0,.828.34h.015a1.141,1.141,0,0,0,.843-.37l2.262-2.35,4.494,1.8c.015.015.03.015.059.015a4.44,4.44,0,0,1,2.72,4.331v3.1Z" transform="translate(0)"/></g></svg>