<svg xmlns="http://www.w3.org/2000/svg" xmlns:xlink="http://www.w3.org/1999/xlink" viewBox="955 2703.887 77.567 67.538"><defs><style>.a{fill:url(#a);}</style><linearGradient id="a" x1="-0.215" y1="1.448" x2="1.22" y2="-0.406" gradientUnits="objectBoundingBox"><stop offset="0" stop-color="#5253fb"/><stop offset="1" stop-color="#7745ff"/></linearGradient></defs><path class="a" d="M76.95,30.48,24.413.15a1.244,1.244,0,0,0-1.273,0l-22.5,13A1.273,1.273,0,0,0,0,14.255V35.91a1.273,1.273,0,0,0,.636,1.1l52.516,30.33a1.278,1.278,0,0,0,1.273,0l22.5-13a1.273,1.273,0,0,0,.636-1.1V31.583a1.229,1.229,0,0,0-.615-1.1ZM18.792,44.543,2.545,35.168v-1.4l16.247,9.375Zm0-4.327L2.545,30.841v-1.4l16.247,9.375Zm0-4.327L2.545,26.514v-1.4l16.247,9.375Zm0-4.327-16.247-9.4v-1.4l16.247,9.375Zm0-4.327-16.247-9.4v-1.4l16.247,9.375ZM3.818,14.255,23.777,2.738l16.2,9.354-20.022,11.5ZM33.766,53.2,21.337,46.027V27.3l12.429,7.169ZM22.525,25.051l20.022-11.5L55,20.745,34.827,32.156ZM52.516,64.035l-16.2-9.354v-1.4l16.2,9.354Zm0-4.327-16.2-9.354v-1.4l16.2,9.354Zm0-4.348-16.2-9.354v-1.4l16.2,9.354Zm0-4.327-16.2-9.354v-1.4l16.2,9.354Zm0-4.327-16.2-9.354v-1.4l16.2,9.354ZM53.789,43.1,37.372,33.62,57.543,22.208l16.226,9.375Zm21.253,9.4L55.061,64.035v-1.4L75.02,51.118V52.5Zm0-4.327L55.083,59.687V58.308L75.041,46.77Zm0-4.327L55.083,55.381v-1.4L75.041,42.464Zm0-4.327L55.083,51.033v-1.4L75.041,38.116Zm0-4.348L55.083,46.685v-1.4L75.041,33.768Zm0,0-27.276-16.2a1.288,1.288,0,0,0,.255-1.612,1.259,1.259,0,0,0-1.739-.445l-.785.467a9.049,9.049,0,0,0-7.848.594l-.021.021a3.294,3.294,0,0,0-1.633,2.863,3.253,3.253,0,0,0,.53,1.782l-4.666,2.736a.786.786,0,0,1-.17-.488.776.776,0,0,1,.382-.658A1.273,1.273,0,0,0,30.8,22.018a3.27,3.27,0,0,0-1.654,2.863,3.2,3.2,0,0,0,.53,1.782,1.277,1.277,0,0,0,.827,2.248,1.359,1.359,0,0,0,.636-.17l.785-.467a8.961,8.961,0,0,0,7.848-.594l.021-.021A3.294,3.294,0,0,0,41.423,24.8a3.253,3.253,0,0,0-.53-1.782l4.666-2.736a.956.956,0,0,1,.191.488.776.776,0,0,1-.382.658l-.806.467A1.273,1.273,0,1,0,45.835,24.1l.806-.467A3.27,3.27,0,0,0,48.3,20.766a3.324,3.324,0,0,0-.53-1.8ZM38.56,20.83a.8.8,0,0,1,.361-.658l.021-.021a6.263,6.263,0,0,1,3.288-.87l-3.478,2.036a.716.716,0,0,1-.191-.488ZM38.9,24.8a.8.8,0,0,1-.361.658l-.021.021a6.263,6.263,0,0,1-3.288.87l3.478-2.036a.716.716,0,0,1,.191.488Zm0,0" transform="translate(955 2703.912)"/></svg>